<svg xmlns="http://www.w3.org/2000/svg" viewBox="0 0 30 30"><g transform="matrix(0.63 0 0 0.63 0 0)"  ><g style=""   ><g transform="matrix(1 0 0 1 24 24)"  ><path style="stroke: none; stroke-width: 1; stroke-dasharray: none; stroke-linecap: butt; stroke-dashoffset: 0; stroke-linejoin: miter; stroke-miterlimit: 4; fill: rgb(0,0,0); fill-rule: nonzero; opacity: 1;"  transform=" translate(-24, -23.97)" d="M 25.3872 39.4871 L 18.2755 39.4872 C 17.9373 39.4872 17.4614 39.534 17.1401 39.4286 C 15.2813 38.8186 15.2006 37.8636 14.7444 36.1089 C 14.409 34.8187 14.2602 34.4496 14.6528 33.0411 L 14.8626 32.1835 C 14.8937 32.0445 14.944 31.8924 14.9495 31.7504 L 14.8796 26.3636 L 13.2169 30.4687 C 12.737 31.7009 12.2922 32.9037 11.5004 33.975 C 11.1276 34.4794 10.71 34.9601 10.3941 35.5038 C 9.95366 36.2619 9.90298 37.24 9.03547 37.6796 L 9.00411 37.695 C 8.37702 38.0077 7.93892 37.7937 7.33559 37.6062 C 5.99398 37.1892 5.27352 36.6727 5.26953 35.063 L 5.26962 33.396 C 5.27216 32.5551 5.51056 31.6837 5.77747 30.8926 L 9.70077 20.6058 C 10.1115 19.5097 10.5083 18.5182 10.7825 17.3802 C 11.3527 15.013 12.7817 13.3756 15.2872 12.9708 C 15.775 12.892 16.262 12.8973 16.7496 12.8478 C 16.4065 12.5427 16.1383 12.1433 16.0777 11.6804 L 16.0585 11.5144 C 15.9617 9.78354 18.1066 9.56829 19.2539 9.2329 C 19.4669 9.1706 19.6617 8.99717 19.8793 8.91931 C 20.6893 8.62967 21.59 8.49799 22.4479 8.46823 C 24.0586 8.43195 26.9596 8.33553 28.4336 9.0357 C 28.611 9.11993 28.7255 9.25034 28.9245 9.29192 C 30.1667 9.55146 31.7236 9.85114 31.9302 11.3499 C 32.0118 11.9414 31.6813 12.3745 31.338 12.8142 C 31.5828 12.8576 31.8329 12.8595 32.0799 12.8872 C 34.4231 13.1494 36.1363 14.2123 36.9834 16.5234 C 37.1867 17.078 37.2297 17.6886 37.4207 18.2406 L 42.3535 31.2656 L 42.6104 32.25 C 42.7732 33.0577 42.7288 33.9444 42.728 34.7628 C 42.7262 36.4419 42.3654 37.0996 40.7153 37.622 C 40.2823 37.7592 39.8318 37.9542 39.372 37.8166 L 39.1407 37.7405 C 38.1444 37.3531 38.0615 36.2977 37.5813 35.4763 C 37.035 34.5416 36.2609 33.7609 35.7579 32.7959 C 35.3569 32.0265 35.0855 31.1982 34.7691 30.3922 L 33.1259 26.3547 L 33.0979 26.5547 C 33.0635 26.7904 33.0781 27.0393 33.0752 27.2774 L 33.0002 30.9096 C 33.0016 31.7465 33.1509 32.4586 33.4062 33.252 C 33.5703 33.7624 33.6391 34.4677 33.5265 35.0011 L 33.1243 36.9023 C 32.7059 38.5314 31.8399 39.4764 30.1407 39.4837 L 25.3872 39.4871 Z M 23.6037 9.90818 C 22.6008 9.90973 21.2013 9.87715 20.2826 10.319 C 20.3618 10.4704 20.4748 10.5729 20.5745 10.7075 C 21.4908 11.9431 22.6569 13.1227 23.976 13.9219 C 24.0408 13.8822 24.1153 13.8449 24.1753 13.799 C 25.1674 13.1156 27.2149 11.4874 27.6344 10.2941 C 27.2386 10.1751 26.8382 10.0959 26.4288 10.0421 L 25.7522 9.96523 C 25.0609 9.8547 24.3038 9.90617 23.6037 9.90818 Z M 28.9961 10.7931 C 28.5425 11.7799 28.0287 12.2126 27.4437 13.0042 L 28.6116 12.6261 C 29.1676 12.4035 31.5962 11.5748 29.9026 11.0271 L 28.9961 10.7931 Z M 18.8686 10.8398 C 18.418 10.9354 17.9153 11.0444 17.5196 11.2878 C 17.2936 11.7599 18.5163 12.2092 18.7972 12.315 L 19.5876 12.5996 L 20.6465 12.9488 C 20.0278 12.3005 19.3682 11.63 18.9492 10.8287 L 18.8686 10.8398 Z M 16.4003 14.3263 C 15.0701 14.4143 14.0009 14.6924 13.0698 15.7333 C 12.2831 16.6128 11.975 18.526 11.5331 19.7712 L 8.33938 28.1719 C 7.81273 29.5407 7.20486 30.8959 6.84434 32.3203 C 6.73864 32.738 6.59328 35.4498 6.81458 35.8162 L 6.83347 35.8496 C 6.9793 36.045 8.09455 36.3473 8.42933 36.4221 C 8.7328 35.7154 9.00064 35.0267 9.42772 34.3809 C 9.92314 33.6319 10.5345 32.9661 10.961 32.1705 C 11.3597 31.4267 11.6368 30.6201 11.9477 29.8372 L 14.1125 24.4687 C 14.5092 23.5385 14.962 22.5988 15.0604 21.5815 C 15.0963 21.2114 15.093 20.854 15.5112 20.695 C 16.0995 20.4713 16.3952 20.8931 16.3886 21.4314 L 16.374 25.0547 C 16.371 25.2156 16.3392 25.3697 16.3306 25.529 L 16.33 27.064 C 16.3391 27.2414 16.3682 27.4148 16.3726 27.5934 L 16.3796 29.6944 L 16.385 31.109 C 16.3902 31.8011 16.3612 32.2287 16.1868 32.9009 C 16.1472 33.0536 16.052 33.2507 16.058 33.4051 C 17.5937 32.6248 18.8531 31.2304 19.3894 29.5888 C 19.5531 29.0878 19.6933 28.3439 20.415 28.5632 L 20.4523 28.5742 C 21.2249 28.8132 20.8451 29.7427 20.6477 30.2695 C 19.9028 32.257 18.4085 33.8452 16.5235 34.785 C 15.7753 35.158 15.9395 34.9422 16.1684 35.8262 C 16.5415 37.2673 16.3388 38.0344 18.2471 38.0344 L 23.2557 38.0261 L 23.2492 15.1077 C 21.851 14.9651 20.4909 14.6229 19.1016 14.4372 L 18.6244 14.3935 C 17.8772 14.3065 17.153 14.3246 16.4003 14.3263 Z M 29.5236 14.3261 C 28.8736 14.3677 28.2549 14.5306 27.62 14.6591 C 26.6684 14.8517 25.699 15.0335 24.7296 15.0974 L 24.7254 38.0467 L 29.8299 38.0307 C 31.2894 38.0284 31.47 37.5879 31.7795 36.2905 L 32.0762 35.0859 C 29.8538 33.9733 28.1359 32.6744 27.2996 30.1725 C 27.1845 29.8283 26.9639 29.2504 27.1403 28.9119 C 27.4129 28.3889 28.1607 28.4139 28.4057 28.957 L 28.4235 28.9946 C 28.6287 29.4447 28.6932 29.9835 28.9723 30.5156 C 29.6072 31.7259 30.7649 32.7921 31.976 33.4131 C 31.7283 32.6197 31.5954 32.0536 31.5954 31.2311 L 31.5981 30.1243 C 31.6001 29.6102 31.5233 28.1944 31.6791 27.7518 L 31.7083 23.1148 C 31.7055 22.5619 31.5888 22.0019 31.62 21.4535 C 31.6603 20.7447 32.6725 20.5107 32.9285 21.2461 L 32.944 21.2851 C 33.0199 21.4915 32.9702 21.7895 32.9941 22.0105 C 33.025 22.2953 33.1258 22.5713 33.2239 22.8379 L 36.3043 30.4336 C 36.8714 32.078 37.3208 32.6162 38.2927 33.9726 C 38.7848 34.6594 39.1801 35.4103 39.4797 36.1999 C 39.6262 36.5859 39.9616 36.3074 40.3132 36.1982 C 41.0267 35.9765 41.2665 36.0627 41.269 35.2579 L 41.2701 34.5598 C 41.2713 32.5039 41.2548 32.2489 40.5082 30.3227 L 36.8205 20.7026 C 36.5593 20.0034 36.2679 19.301 36.0554 18.5857 C 35.861 17.9313 35.7861 17.2594 35.4926 16.6343 C 34.3077 14.1113 31.9346 14.3227 29.5236 14.3261 Z" stroke-linecap="round" /></g></g></g></svg>