<svg xmlns="http://www.w3.org/2000/svg" width="24" height="24"  viewBox="0 0 24 24"><g transform="matrix(1 0 0 1 0 0)"  ><g style=""   ><g transform="matrix(1 0 0 1 12 3)"  ><path style="stroke: none; stroke-width: 1; stroke-dasharray: none; stroke-linecap: butt; stroke-dashoffset: 0; stroke-linejoin: miter; stroke-miterlimit: 4; fill: rgb(71,85,105); fill-rule: nonzero; opacity: 1;"  transform=" translate(-12, -3)" d="M 11 4 L 11 2 C 11 1.44772 11.4477 1 12 1 C 12.5523 1 13 1.44772 13 2 L 13 4 C 13 4.55228 12.5523 5 12 5 C 11.4477 5 11 4.55228 11 4 Z" stroke-linecap="round" /></g><g transform="matrix(1 0 0 1 5.64 5.63)"  ><path style="stroke: none; stroke-width: 1; stroke-dasharray: none; stroke-linecap: butt; stroke-dashoffset: 0; stroke-linejoin: miter; stroke-miterlimit: 4; fill: rgb(71,85,105); fill-rule: nonzero; opacity: 1;"  transform=" translate(-5.64, -5.63)" d="M 4.22297 4.22291 C 4.58909 3.85679 5.16809 3.8342 5.56086 4.15455 L 5.63703 4.22291 L 7.04719 5.63307 L 7.11555 5.70924 C 7.43575 6.10201 7.41325 6.68107 7.04719 7.04713 C 6.68113 7.41319 6.10207 7.43569 5.7093 7.11549 L 5.63313 7.04713 L 4.22297 5.63697 L 4.15461 5.5608 C 3.83426 5.16803 3.85686 4.58903 4.22297 4.22291 Z" stroke-linecap="round" /></g><g transform="matrix(1 0 0 1 21 12)"  ><path style="stroke: none; stroke-width: 1; stroke-dasharray: none; stroke-linecap: butt; stroke-dashoffset: 0; stroke-linejoin: miter; stroke-miterlimit: 4; fill: rgb(71,85,105); fill-rule: nonzero; opacity: 1;"  transform=" translate(-21, -12)" d="M 22 11 C 22.5523 11 23 11.4477 23 12 C 23 12.5523 22.5523 13 22 13 L 20 13 C 19.4477 13 19 12.5523 19 12 C 19 11.4477 19.4477 11 20 11 L 22 11 Z" stroke-linecap="round" /></g><g transform="matrix(1 0 0 1 18.36 5.64)"  ><path style="stroke: none; stroke-width: 1; stroke-dasharray: none; stroke-linecap: butt; stroke-dashoffset: 0; stroke-linejoin: miter; stroke-miterlimit: 4; fill: rgb(71,85,105); fill-rule: nonzero; opacity: 1;"  transform=" translate(-18.36, -5.64)" d="M 18.4393 4.15463 C 18.832 3.83436 19.4111 3.8569 19.7772 4.22299 C 20.1432 4.58909 20.1658 5.16814 19.8455 5.56088 L 19.7772 5.63705 L 18.367 7.04721 C 17.9765 7.43763 17.3435 7.43763 16.9529 7.04721 C 16.5625 6.65671 16.5625 6.02368 16.9529 5.63315 L 18.3631 4.22299 L 18.4393 4.15463 Z" stroke-linecap="round" /></g><g transform="matrix(1 0 0 1 13.01 10.32)"  ><path style="stroke: none; stroke-width: 1; stroke-dasharray: none; stroke-linecap: butt; stroke-dashoffset: 0; stroke-linejoin: miter; stroke-miterlimit: 4; fill: rgb(71,85,105); fill-rule: nonzero; opacity: 1;"  transform=" translate(-13.01, -10.32)" d="M 12.228 7.00336 C 13.1715 7.04638 14.0839 7.35602 14.8589 7.89593 C 15.6337 8.43578 16.2397 9.18414 16.6069 10.0541 C 16.9742 10.9243 17.0879 11.8811 16.9341 12.8129 L 16.9116 12.9125 C 16.7791 13.4019 16.2947 13.7205 15.7837 13.6362 C 15.2391 13.546 14.8705 13.0315 14.9605 12.4868 L 14.9878 12.2768 C 15.0336 11.7854 14.9569 11.2892 14.7642 10.8325 C 14.5438 10.3104 14.1803 9.86051 13.7153 9.53656 C 13.2505 9.21272 12.7032 9.02724 12.1372 9.0014 C 11.642 8.97882 11.1497 9.07926 10.7046 9.29242 L 10.5161 9.39105 C 10.0363 9.6639 9.42603 9.49668 9.15285 9.01703 C 8.87968 8.53703 9.04784 7.92593 9.52785 7.65277 L 9.84035 7.48871 C 10.5823 7.13331 11.4026 6.96574 12.228 7.00336 Z" stroke-linecap="round" /></g><g transform="matrix(1 0 0 1 9 17)"  ><path style="stroke: none; stroke-width: 1; stroke-dasharray: none; stroke-linecap: butt; stroke-dashoffset: 0; stroke-linejoin: miter; stroke-miterlimit: 4; fill: rgb(71,85,105); fill-rule: nonzero; opacity: 1;"  transform=" translate(-9, -17)" d="M 15 19 C 15 18.4696 14.7892 17.961 14.4141 17.586 C 14.0858 17.2577 13.6553 17.0552 13.1973 17.0098 L 13 17 L 11.9004 17 C 11.4253 17 11.015 16.6657 10.92 16.2002 C 10.7686 15.4587 10.41 14.7754 9.88577 14.2295 C 9.36163 13.6838 8.69367 13.2975 7.95902 13.1162 C 7.2242 12.9351 6.45231 12.9665 5.73441 13.2061 C 5.01678 13.4457 4.38196 13.8838 3.90335 14.4698 C 3.42464 15.0559 3.12163 15.7663 3.03031 16.5176 C 2.93905 17.2687 3.06257 18.0303 3.38675 18.7139 C 3.71109 19.3977 4.22275 19.9763 4.86234 20.3809 C 5.50186 20.7854 6.2433 20.9998 7.00003 21 L 13 21 L 13.1973 20.9903 C 13.6553 20.9449 14.0858 20.7424 14.4141 20.4141 C 14.7892 20.039 15 19.5305 15 19 Z M 17 19 C 17 20.0609 16.5783 21.078 15.8282 21.8282 C 15.1249 22.5314 14.1869 22.9461 13.1983 22.9951 L 13 23 L 7.00003 23 C 5.8648 22.9998 4.75238 22.6773 3.793 22.0703 C 2.8338 21.4634 2.06656 20.5969 1.58011 19.5713 C 1.09366 18.5457 0.908051 17.4032 1.04495 16.2764 C 1.18193 15.1496 1.63562 14.0843 2.35355 13.2051 C 3.07162 12.3258 4.02475 11.668 5.10159 11.3086 C 6.17842 10.9492 7.33532 10.9031 8.43753 11.1748 C 9.53956 11.4466 10.5419 12.0252 11.3282 12.8438 C 11.9218 13.4619 12.3737 14.198 12.6573 15 L 13 15 L 13.1983 15.0049 C 14.1869 15.0539 15.1249 15.4686 15.8282 16.1719 C 16.5783 16.922 17 17.9392 17 19 Z" stroke-linecap="round" /></g></g></g></svg>