<svg xmlns="http://www.w3.org/2000/svg" width="12" height="12"  viewBox="0 0 12 12"><g transform="matrix(1 0 0 1 0 0)"  ><g style=""   ><g transform="matrix(0.43 0 0 0.43 6 3.43)"  ><polyline style="stroke: rgb(103,63,49); stroke-width: 2.4; stroke-dasharray: none; stroke-linecap: square; stroke-dashoffset: 0; stroke-linejoin: miter; stroke-miterlimit: 10; fill: none; fill-rule: nonzero; opacity: 1;"  points="-10,4 -3,-3 3,3 10,-4 " /></g><g transform="matrix(0.43 0 0 0.43 2.14 9.64)"  ><line style="stroke: rgb(103,63,49); stroke-width: 2.4; stroke-dasharray: none; stroke-linecap: square; stroke-dashoffset: 0; stroke-linejoin: miter; stroke-miterlimit: 10; fill: none; fill-rule: nonzero; opacity: 1;"  x1="0" y1="1.5" x2="0" y2="-1.5" /></g><g transform="matrix(0.43 0 0 0.43 4.71 8.14)"  ><line style="stroke: rgb(103,63,49); stroke-width: 2.4; stroke-dasharray: none; stroke-linecap: square; stroke-dashoffset: 0; stroke-linejoin: miter; stroke-miterlimit: 10; fill: none; fill-rule: nonzero; opacity: 1;"  x1="0" y1="-5" x2="0" y2="5" /></g><g transform="matrix(0.43 0 0 0.43 7.29 9.64)"  ><line style="stroke: rgb(103,63,49); stroke-width: 2.4; stroke-dasharray: none; stroke-linecap: square; stroke-dashoffset: 0; stroke-linejoin: miter; stroke-miterlimit: 10; fill: none; fill-rule: nonzero; opacity: 1;"  x1="0" y1="1.5" x2="0" y2="-1.5" /></g><g transform="matrix(0.43 0 0 0.43 9.86 8.14)"  ><line style="stroke: rgb(103,63,49); stroke-width: 2.4; stroke-dasharray: none; stroke-linecap: square; stroke-dashoffset: 0; stroke-linejoin: miter; stroke-miterlimit: 10; fill: none; fill-rule: nonzero; opacity: 1;"  x1="0" y1="-5" x2="0" y2="5" /></g></g></g></svg>