<svg xmlns="http://www.w3.org/2000/svg" viewBox="0 0 30 30"><g transform="matrix(0.63 0 0 0.63 0 0)"  ><g style=""   ><g transform="matrix(1 0 0 1 24 24)"  ><path style="stroke: none; stroke-width: 1; stroke-dasharray: none; stroke-linecap: butt; stroke-dashoffset: 0; stroke-linejoin: miter; stroke-miterlimit: 4; fill: rgb(0,0,0); fill-rule: nonzero; opacity: 1;"  transform=" translate(-24, -23.98)" d="M 20.2869 39.3572 L 20.0646 39.7734 C 19.2969 41.0251 17.4464 41.5924 16.0394 41.3691 C 15.5636 41.2935 15.1053 41.1477 14.6453 41.0072 L 8.89289 39.3174 C 8.328 39.1525 7.73334 39.0436 7.17914 38.85 C 6.00342 38.4394 5.02476 37.302 4.76381 36.0981 C 4.58117 35.2553 4.79292 34.4553 4.86581 33.6151 L 5.5552 24.0586 C 5.56645 23.897 5.59786 23.7387 5.61295 23.578 L 5.721 22.2164 C 5.76225 21.5985 5.72948 20.9751 5.74158 20.356 L 5.80148 19.4578 C 5.92092 17.4867 6.17611 15.5105 6.71194 13.6054 L 7.19325 11.9715 C 7.46653 11.132 7.74675 10.3676 7.80215 9.47776 C 7.89351 8.0102 8.04384 7.01106 9.70322 6.62523 C 10.1995 6.50987 10.7396 6.66259 11.2331 6.7405 L 12.6446 6.93475 C 13.63 7.0449 14.6322 7.13837 15.6239 7.14376 L 18.1864 7.14845 C 18.936 7.14793 19.6592 7.13631 20.4032 7.06332 L 22.0207 6.90934 C 22.9627 6.80771 23.9134 6.69868 24.8624 6.77725 L 28.5467 7.13631 L 31.49 7.14479 C 32.365 7.13973 33.2315 7.05029 34.1017 6.96985 L 36.4002 6.73 C 36.8987 6.67412 37.39 6.57821 37.8916 6.54967 C 39.1976 6.42076 40.1264 7.60792 40.21 8.80923 C 40.2731 9.71729 40.3154 10.6185 40.6075 11.4917 L 41.051 13.0099 L 41.7669 16.1015 C 41.944 17.0691 42.0928 18.2717 42.1606 19.2617 L 42.1885 20.7415 C 42.1889 21.212 42.2194 21.423 42.262 21.8662 L 43.1972 33.803 C 43.243 34.3529 43.3754 35.0262 43.2554 35.5737 L 43.1968 35.9112 C 42.6933 38.2837 41.2462 38.6544 39.2579 39.2442 L 34.1587 40.8206 C 33.6342 40.9946 33.0876 41.2156 32.5431 41.3149 C 30.8114 41.6311 29.0613 41.1863 27.9936 39.7029 C 27.6963 39.29 27.5481 38.8638 27.3664 38.3966 L 24.1167 28.6281 C 24.0862 28.527 24.0697 28.3607 24.0157 28.2773 L 23.023 31.5265 L 20.9916 37.585 C 20.7834 38.1806 20.5701 38.7924 20.2869 39.3572 Z M 37.7333 8.31029 L 32.7892 8.88367 C 32.2468 8.92112 31.6862 8.89712 31.1419 8.89815 L 28.7145 8.8899 L 26.0962 8.68464 C 24.3207 8.48987 23.6549 8.46386 21.8673 8.67845 L 20.2835 8.81978 C 19.9381 8.84823 19.5964 8.88971 19.2492 8.89379 L 15.8229 8.8892 L 11.241 8.49306 C 10.8231 8.43751 10.397 8.35567 9.97669 8.32946 C 9.4837 8.29876 9.52097 9.40876 9.56137 9.78873 L 10.307 9.83523 L 12.1774 10.0284 C 13.0533 10.1495 13.2766 10.2432 14.1102 10.4943 C 15.8352 11.0139 17.7558 10.8753 19.5334 10.8757 L 29.432 10.8746 C 30.8007 10.8742 32.2612 10.9851 33.5897 10.5822 C 34.5036 10.3052 34.9575 10.1441 35.8979 10.0145 L 37.7017 9.80903 C 37.9636 9.78418 38.2477 9.7929 38.5052 9.75048 L 38.4793 9.09775 C 38.4727 8.91718 38.4987 8.60532 38.3606 8.46995 L 38.3102 8.42232 C 38.1853 8.30706 38.0509 8.28873 37.8857 8.29764 L 37.7333 8.31029 Z M 38.7743 11.4492 L 37.2704 11.5888 C 36.66 11.6699 36.5951 11.5315 36.8829 12.3139 L 37.035 12.8081 C 37.044 12.8455 37.0558 12.8762 37.0696 12.9117 L 37.5496 14.2968 L 38.8416 17.1527 L 39.6607 18.5982 L 40.229 19.4283 C 40.3079 19.5373 40.3698 19.6565 40.4736 19.7443 L 40.499 19.7226 C 40.4165 19.3487 40.4029 18.9587 40.3732 18.5775 L 40.213 17.2138 C 39.9564 15.5777 39.5415 13.9605 39.0918 12.3677 L 38.9005 11.69 C 38.8806 11.6142 38.8763 11.4998 38.8239 11.4421 L 38.7743 11.4492 Z M 9.19912 11.5008 C 9.04017 11.8542 8.92584 12.2605 8.81315 12.6445 L 8.16497 15.0716 L 7.78992 17.1008 L 7.4978 19.7717 C 7.85194 19.4269 8.139 18.9945 8.40028 18.5759 L 9.27436 17.0669 C 10.0243 15.6204 10.6465 14.0029 11.0665 12.4265 L 11.1996 11.9175 C 11.2235 11.8267 11.2655 11.7266 11.2645 11.633 L 9.19912 11.5008 Z M 35.0208 11.9414 L 34.9986 11.9512 C 34.2003 12.2985 32.9271 12.5196 32.0377 12.5349 L 28.4754 12.5384 C 28.0204 12.5385 27.5466 12.5115 27.0935 12.5453 L 27.0877 17.2248 C 27.0895 17.8753 27.1365 18.5589 27.06 19.2035 C 26.8726 20.7811 25.796 22.7189 24.128 23.0783 C 24.1686 23.6092 24.2443 24.1983 24.375 24.7148 L 24.4309 24.9353 C 24.4674 25.1049 24.6397 25.2058 24.7262 25.3593 C 24.9602 25.7749 25.1778 26.2698 25.3398 26.7185 L 25.7908 28.1476 L 28.8864 37.6134 C 28.9057 37.6734 28.9417 37.7284 28.9733 37.7827 L 30.2527 37.3997 L 41.5033 33.8942 L 40.5257 22.0812 C 37.9942 20.5521 35.8331 15.1098 35.1252 12.1945 L 35.0208 11.9414 Z M 12.8018 11.9882 C 12.723 12.274 12.6752 12.5716 12.6137 12.8619 C 12.0862 15.3497 10.1028 20.5078 7.65173 21.8592 C 7.58883 21.8939 7.52503 21.9109 7.48425 21.9733 C 7.4708 23.1457 7.31915 24.3206 7.2187 25.4882 L 6.6239 33.4348 C 6.61673 33.5777 6.58392 33.766 6.61209 33.9046 L 17.3112 37.1553 L 19.0404 37.7174 L 19.7776 35.6402 L 22.601 26.8727 C 22.7422 26.3693 22.8505 26.0947 22.7505 25.5736 L 22.4515 23.789 C 22.3975 23.482 22.4147 23.1784 22.4222 22.869 L 22.4295 21.9445 C 22.4452 21.6294 22.4947 21.3261 22.4968 21.0081 L 22.4915 12.5396 L 17.9662 12.5379 C 16.2176 12.5378 15.3285 12.588 13.6062 12.1793 L 13.0754 12.052 C 12.9938 12.0321 12.8838 11.9909 12.8018 11.9882 Z M 24.1767 12.5377 L 24.0673 21.3474 C 24.3173 21.1107 24.5413 20.9139 24.7538 20.6333 C 25.1804 19.9903 25.4458 19.1815 25.4806 18.4057 L 25.4743 13.1323 C 25.4742 12.9612 25.4992 12.7363 25.4685 12.5709 L 24.1767 12.5377 Z M 6.39478 35.6367 C 6.39844 35.7292 6.41479 35.7864 6.4492 35.8711 L 6.46565 35.9136 C 6.83967 36.8554 7.56253 37.1291 8.44744 37.3801 L 14.99 39.2952 C 15.7898 39.5347 16.7231 39.8893 17.5442 39.5437 L 17.822 39.4104 L 18.1005 39.2261 C 17.9407 39.1854 17.79 39.123 17.6321 39.0762 L 7.18631 35.8704 C 6.95011 35.7935 6.64003 35.6495 6.39478 35.6367 Z M 41.5962 35.6367 L 30.5232 39.0624 C 30.0739 39.1928 29.8147 39.1639 30.3062 39.3986 C 31.3969 39.9252 32.5982 39.5231 33.6687 39.1881 L 38.3742 37.7201 C 39.6194 37.3573 41.3333 37.152 41.6719 35.6367 C 41.6152 35.6316 41.6404 35.6301 41.5962 35.6367 Z" stroke-linecap="round" /></g></g></g></svg>