<svg xmlns="http://www.w3.org/2000/svg" width="18" height="18"  viewBox="0 0 18 18"><g transform="matrix(1 0 0 1 0 0)"  ><g style=""   ><g transform="matrix(0.75 0 0 0.75 6 14.06)"  ><path style="stroke: none; stroke-width: 1; stroke-dasharray: none; stroke-linecap: butt; stroke-dashoffset: 0; stroke-linejoin: miter; stroke-miterlimit: 4; fill: rgb(103,63,49); fill-rule: nonzero; opacity: 1;"  transform=" translate(-8, -18.75)" d="M 8.73437 16.5 C 9.11382 16.4939 9.47058 16.7048 9.64453 17.0527 L 10.8945 19.5527 L 10.9355 19.6465 C 11.1153 20.1204 10.9104 20.663 10.4473 20.8945 C 9.98416 21.1261 9.42756 20.9643 9.15625 20.5361 L 9.10547 20.4473 L 8.19043 18.6172 L 6.17871 18.9834 C 5.63536 19.0821 5.11539 18.7221 5.0166 18.1787 C 4.91786 17.6354 5.27794 17.1154 5.82129 17.0166 L 8.57129 16.5166 L 8.73437 16.5 Z" stroke-linecap="round" /></g><g transform="matrix(0.75 0 0 0.75 6 3.94)"  ><path style="stroke: none; stroke-width: 1; stroke-dasharray: none; stroke-linecap: butt; stroke-dashoffset: 0; stroke-linejoin: miter; stroke-miterlimit: 4; fill: rgb(103,63,49); fill-rule: nonzero; opacity: 1;"  transform=" translate(-8, -5.25)" d="M 9.15625 3.46387 C 9.42756 3.03575 9.98416 2.87392 10.4473 3.10547 C 10.9104 3.33704 11.1153 3.87959 10.9355 4.35352 L 10.8945 4.44727 L 9.64453 6.94727 C 9.44578 7.34477 9.00853 7.56286 8.57129 7.4834 L 5.82129 6.9834 L 5.72168 6.96094 C 5.23455 6.82049 4.92401 6.3308 5.0166 5.8213 C 5.10921 5.31195 5.57195 4.96323 6.07715 5.00294 L 6.17871 5.01661 L 8.19043 5.38184 L 9.10547 3.55274 L 9.15625 3.46387 Z" stroke-linecap="round" /></g><g transform="matrix(0.75 0 0 0.75 12 14.06)"  ><path style="stroke: none; stroke-width: 1; stroke-dasharray: none; stroke-linecap: butt; stroke-dashoffset: 0; stroke-linejoin: miter; stroke-miterlimit: 4; fill: rgb(103,63,49); fill-rule: nonzero; opacity: 1;"  transform=" translate(-16, -18.75)" d="M 15.4287 16.5166 L 18.1787 17.0166 L 18.2783 17.0391 C 18.7654 17.1795 19.076 17.6692 18.9834 18.1787 C 18.8908 18.688 18.4281 19.0368 17.9229 18.9971 L 17.8213 18.9834 L 15.8086 18.6172 L 14.8945 20.4473 C 14.6475 20.9412 14.0467 21.1415 13.5527 20.8945 C 13.0588 20.6475 12.8585 20.0467 13.1055 19.5527 L 14.3555 17.0527 L 14.4404 16.9121 C 14.6632 16.605 15.0461 16.4471 15.4287 16.5166 Z" stroke-linecap="round" /></g><g transform="matrix(0.75 0 0 0.75 12 3.94)"  ><path style="stroke: none; stroke-width: 1; stroke-dasharray: none; stroke-linecap: butt; stroke-dashoffset: 0; stroke-linejoin: miter; stroke-miterlimit: 4; fill: rgb(103,63,49); fill-rule: nonzero; opacity: 1;"  transform=" translate(-16, -5.25)" d="M 13.5527 3.10547 C 14.0158 2.87392 14.5724 3.03575 14.8438 3.46387 L 14.8945 3.55274 L 15.8086 5.38184 L 17.8213 5.01661 C 18.3646 4.91787 18.8846 5.27795 18.9834 5.8213 C 19.0821 6.36464 18.7221 6.88461 18.1787 6.9834 L 15.4287 7.4834 C 15.0461 7.55293 14.6632 7.39497 14.4404 7.0879 L 14.3555 6.94727 L 13.1055 4.44727 L 13.0645 4.35352 C 12.8847 3.87959 13.0896 3.33704 13.5527 3.10547 Z" stroke-linecap="round" /></g><g transform="matrix(0.75 0 0 0.75 10.13 13.5)"  ><path style="stroke: none; stroke-width: 1; stroke-dasharray: none; stroke-linecap: butt; stroke-dashoffset: 0; stroke-linejoin: miter; stroke-miterlimit: 4; fill: rgb(103,63,49); fill-rule: nonzero; opacity: 1;"  transform=" translate(-13.5, -18)" d="M 14 14 L 14.1406 14.0098 C 14.4628 14.0555 14.7464 14.2564 14.8945 14.5527 L 17.8945 20.5527 L 17.9355 20.6465 C 18.1153 21.1204 17.9104 21.663 17.4473 21.8945 C 16.9842 22.1261 16.4276 21.9643 16.1562 21.5361 L 16.1055 21.4473 L 13.3818 16 L 10 16 C 9.44772 16 9 15.5523 9 15 C 9 14.4477 9.44772 14 10 14 L 14 14 Z" stroke-linecap="round" /></g><g transform="matrix(0.75 0 0 0.75 11.63 5.63)"  ><path style="stroke: none; stroke-width: 1; stroke-dasharray: none; stroke-linecap: butt; stroke-dashoffset: 0; stroke-linejoin: miter; stroke-miterlimit: 4; fill: rgb(103,63,49); fill-rule: nonzero; opacity: 1;"  transform=" translate(-15.5, -7.5)" d="M 16.1563 2.46387 C 16.4276 2.03575 16.9842 1.87392 17.4473 2.10547 C 17.9104 2.33704 18.1153 2.87959 17.9355 3.35352 L 17.8945 3.44727 L 15.1182 9.00001 L 16.3945 11.5527 L 16.4355 11.6465 C 16.6153 12.1204 16.4104 12.663 15.9473 12.8945 C 15.4842 13.1261 14.9276 12.9643 14.6563 12.5361 L 14.6055 12.4473 L 13.1055 9.44727 C 12.9647 9.16574 12.9647 8.83427 13.1055 8.55274 L 16.1055 2.55274 L 16.1563 2.46387 Z" stroke-linecap="round" /></g><g transform="matrix(0.75 0 0 0.75 4.5 7.87)"  ><path style="stroke: none; stroke-width: 1; stroke-dasharray: none; stroke-linecap: butt; stroke-dashoffset: 0; stroke-linejoin: miter; stroke-miterlimit: 4; fill: rgb(103,63,49); fill-rule: nonzero; opacity: 1;"  transform=" translate(-6, -10.5)" d="M 9.15625 8.46387 C 9.42756 8.03575 9.98416 7.87392 10.4473 8.10547 C 10.9104 8.33704 11.1153 8.87959 10.9355 9.35352 L 10.8945 9.44727 L 9.39453 12.4473 C 9.22514 12.7861 8.87877 13 8.5 13 L 2 13 C 1.44772 13 1 12.5523 1 12 C 1 11.4477 1.44772 11 2 11 L 7.88184 11 L 9.10547 8.55274 L 9.15625 8.46387 Z" stroke-linecap="round" /></g><g transform="matrix(0.75 0 0 0.75 14.44 9)"  ><path style="stroke: none; stroke-width: 1; stroke-dasharray: none; stroke-linecap: butt; stroke-dashoffset: 0; stroke-linejoin: miter; stroke-miterlimit: 4; fill: rgb(103,63,49); fill-rule: nonzero; opacity: 1;"  transform=" translate(-19.25, -12)" d="M 19.2656 9.32126 C 19.6091 8.9487 20.1854 8.88966 20.5996 9.20016 C 21.0137 9.51072 21.1187 10.0805 20.8574 10.5146 L 20.7998 10.5996 L 19.749 12 L 20.7998 13.4004 L 20.8574 13.4853 C 21.1187 13.9194 21.0137 14.4892 20.5996 14.7998 C 20.1854 15.1103 19.6091 15.0512 19.2656 14.6787 L 19.2002 14.5996 L 17.7002 12.5996 C 17.4337 12.2441 17.4337 11.7558 17.7002 11.4004 L 19.2002 9.40036 L 19.2656 9.32126 Z" stroke-linecap="round" /></g><g transform="matrix(0.75 0 0 0.75 13.5 10.13)"  ><path style="stroke: none; stroke-width: 1; stroke-dasharray: none; stroke-linecap: butt; stroke-dashoffset: 0; stroke-linejoin: miter; stroke-miterlimit: 4; fill: rgb(103,63,49); fill-rule: nonzero; opacity: 1;"  transform=" translate(-18, -13.5)" d="M 22 11 C 22.5523 11 23 11.4477 23 12 C 23 12.5523 22.5523 13 22 13 L 16.1182 13 L 14.8945 15.4473 C 14.6475 15.9412 14.0467 16.1415 13.5527 15.8945 C 13.0588 15.6475 12.8585 15.0467 13.1055 14.5527 L 14.6055 11.5527 L 14.6768 11.4316 C 14.8617 11.1637 15.1685 11 15.5 11 L 22 11 Z" stroke-linecap="round" /></g><g transform="matrix(0.75 0 0 0.75 3.56 9)"  ><path style="stroke: none; stroke-width: 1; stroke-dasharray: none; stroke-linecap: butt; stroke-dashoffset: 0; stroke-linejoin: miter; stroke-miterlimit: 4; fill: rgb(103,63,49); fill-rule: nonzero; opacity: 1;"  transform=" translate(-4.75, -12)" d="M 3.40039 9.20016 C 3.81456 8.88966 4.39089 8.9487 4.73437 9.32126 L 4.7998 9.40036 L 6.2998 11.4004 L 6.38769 11.539 C 6.53764 11.8275 6.53764 12.1724 6.38769 12.4609 L 6.2998 12.5996 L 4.7998 14.5996 C 4.46847 15.0414 3.84221 15.131 3.40039 14.7998 C 2.95861 14.4684 2.86896 13.8422 3.20019 13.4004 L 4.25 12 L 3.20019 10.5996 L 3.14258 10.5146 C 2.88132 10.0805 2.98631 9.51072 3.40039 9.20016 Z" stroke-linecap="round" /></g><g transform="matrix(0.75 0 0 0.75 6.37 12.38)"  ><path style="stroke: none; stroke-width: 1; stroke-dasharray: none; stroke-linecap: butt; stroke-dashoffset: 0; stroke-linejoin: miter; stroke-miterlimit: 4; fill: rgb(103,63,49); fill-rule: nonzero; opacity: 1;"  transform=" translate(-8.5, -16.5)" d="M 8.05273 11.1055 C 8.51584 10.8739 9.07244 11.0357 9.34375 11.4639 L 9.39453 11.5527 L 10.8945 14.5527 L 10.9404 14.6602 C 11.0198 14.8797 11.0198 15.1203 10.9404 15.3398 L 10.8945 15.4473 L 7.89453 21.4473 C 7.64754 21.9412 7.04671 22.1415 6.55273 21.8945 C 6.05876 21.6475 5.85848 21.0467 6.10547 20.5527 L 8.88184 15 L 7.60547 12.4473 L 7.56445 12.3535 C 7.38471 11.8796 7.58961 11.337 8.05273 11.1055 Z" stroke-linecap="round" /></g><g transform="matrix(0.75 0 0 0.75 7.87 4.5)"  ><path style="stroke: none; stroke-width: 1; stroke-dasharray: none; stroke-linecap: butt; stroke-dashoffset: 0; stroke-linejoin: miter; stroke-miterlimit: 4; fill: rgb(103,63,49); fill-rule: nonzero; opacity: 1;"  transform=" translate(-10.5, -6)" d="M 6.55274 2.10547 C 7.01584 1.87392 7.57244 2.03575 7.84375 2.46387 L 7.89453 2.55274 L 10.6182 8.00001 L 14 8.00001 C 14.5523 8.00001 15 8.44772 15 9.00001 C 15 9.55229 14.5523 10 14 10 L 10 10 C 9.62123 10 9.27486 9.78606 9.10547 9.44727 L 6.10547 3.44727 L 6.06445 3.35352 C 5.88472 2.87959 6.08962 2.33704 6.55274 2.10547 Z" stroke-linecap="round" /></g></g></g></svg>