<svg xmlns="http://www.w3.org/2000/svg" viewBox="0 0 45 35"><g transform="matrix(0.94 0 0 0.94 0 -5)"  ><g style=""   ><g transform="matrix(1 0 0 1 24 24)"  ><path style="stroke: none; stroke-width: 1; stroke-dasharray: none; stroke-linecap: butt; stroke-dashoffset: 0; stroke-linejoin: miter; stroke-miterlimit: 4; fill: rgb(0,0,0); fill-rule: nonzero; opacity: 1;"  transform=" translate(-24, -24)" d="M 26.8917 36.6476 L 23.9754 27.4696 L 23.3051 29.9907 L 20.5751 38.2317 C 20.3801 38.8 20.222 39.3496 19.9253 39.8778 C 19.1913 41.1843 17.6087 42.1172 16.1159 42.2562 C 15.6677 42.298 14.4564 42.3049 14.0218 42.2322 L 12.3197 42.004 C 10.2968 41.6464 8.35319 41.0033 6.51072 40.0968 L 5.44905 39.5365 C 4.48127 38.9912 4.37798 38.8634 4.59259 37.8285 L 6.81316 26.6488 L 8.76433 15.6268 C 9.00016 14.5325 9.31961 13.4223 9.67938 12.3637 L 10.1917 10.9691 C 10.2762 10.7059 10.3049 10.4237 10.3739 10.1563 L 10.7488 8.82461 C 10.879 8.27716 10.9644 7.71681 11.0478 7.16055 C 11.1513 6.47041 11.1526 5.77717 12.013 5.70508 L 35.9847 5.70578 C 37.0127 5.731 36.9233 7.00436 37.0322 7.73477 C 37.1396 8.45538 37.2506 9.39489 37.5139 10.0802 C 37.6929 10.546 37.929 11.0391 38.0461 11.5221 L 38.4205 12.6784 L 39.2659 15.8793 L 40.4912 22.7746 C 40.5142 23.0387 40.5843 23.3303 40.6417 23.5902 L 41.9004 30.4618 C 41.9926 31.0105 42.1519 31.5546 42.2292 32.1049 L 42.3638 32.8123 C 42.3924 33.058 42.4625 33.3211 42.5167 33.5629 L 43.4058 37.8871 C 43.4787 38.1931 43.5829 38.5562 43.4251 38.8534 L 43.4089 38.8832 C 43.2453 39.1901 42.8853 39.3322 42.5984 39.5008 L 41.5697 40.0694 C 38.9352 41.3638 35.5094 42.2574 32.5985 42.2619 C 30.649 42.2649 28.7466 41.3789 27.8893 39.5371 C 27.6746 39.0757 27.5455 38.5634 27.3879 38.0799 L 26.8917 36.6476 Z M 12.6137 7.29414 L 12.1664 9.81784 L 18.7206 9.81813 C 18.8525 9.81995 19.1175 9.85455 19.233 9.81208 L 18.1796 7.29602 L 12.6137 7.29414 Z M 19.9824 7.29414 L 19.9032 7.31608 C 19.9235 7.43111 19.9808 7.51628 20.0278 7.62002 L 20.9861 9.77889 C 21.0993 9.81841 21.2236 9.80992 21.3424 9.8118 L 25.9169 9.81344 C 26.2732 9.81269 26.6452 9.83069 26.9989 9.79127 L 27.2899 9.09991 L 28.0781 7.29888 L 19.9824 7.29414 Z M 29.8433 7.29414 L 29.2859 8.56595 C 29.0977 8.96566 28.882 9.37591 28.7552 9.7998 L 34.787 9.81813 L 35.7956 9.82698 L 35.4061 7.30577 L 29.8433 7.29414 Z M 11.7457 11.2469 C 11.2867 11.9824 10.1941 16.4544 10.0136 17.4506 C 11.3729 17.474 12.4475 17.3532 13.6399 16.612 C 15.6033 15.3325 16.2376 13.447 16.2189 11.2405 L 11.7457 11.2469 Z M 31.8065 11.2496 L 31.8359 12.364 C 31.8617 12.6993 31.8979 13.0671 32.0163 13.3832 L 32.1125 13.6879 C 32.8311 15.7051 34.2281 16.9404 36.3719 17.3893 L 36.4594 17.4078 C 36.6607 17.4509 36.8785 17.4496 37.0838 17.4527 L 37.9766 17.4483 C 37.6293 15.6059 37.1333 13.7992 36.5441 12.0238 C 36.4725 11.8079 36.4113 11.4359 36.3083 11.2497 L 31.8065 11.2496 Z M 19.1849 11.3734 L 18.1834 11.3765 C 18.0727 11.3769 17.914 11.356 17.8095 11.389 C 17.7943 11.9782 17.7896 12.5356 17.6835 13.1168 C 17.1281 16.1562 14.8001 18.5774 11.7297 18.9989 C 11.1713 19.0756 10.5136 19.1285 9.96082 19.0507 C 9.90236 19.0424 9.78888 19.0084 9.73502 19.0243 L 6.8261 34.857 C 7.31018 35.0601 7.83724 35.1812 8.34002 35.3334 L 13.8397 36.8446 C 14.2421 36.9549 14.6703 36.9639 14.9082 37.3598 L 14.9314 37.3971 C 15.0629 37.6206 15.0403 37.9137 14.9178 38.1335 L 14.902 38.1629 C 14.6602 38.5952 14.2757 38.5652 13.8632 38.4722 L 8.03308 36.9128 L 6.50125 36.4677 L 6.16591 38.0843 C 7.56499 39.083 10.7027 40.0458 12.3314 40.348 L 13.1014 40.499 C 13.3913 40.5417 13.697 40.5901 13.9886 40.6107 L 15.1347 40.6744 C 16.4783 40.8014 18.0325 40.0977 18.6577 38.8598 C 18.8124 38.5534 18.9156 38.2237 19.0203 37.8976 L 20.9764 31.952 C 21.5908 30.1015 22.1973 28.2572 22.6295 26.3534 L 22.8591 25.3503 C 23.0434 24.5508 22.9109 24.7713 22.8957 24.0657 L 22.8862 11.3922 C 22.7475 11.3664 22.5987 11.3759 22.4578 11.3752 L 19.1849 11.3734 Z M 25.9928 11.3734 L 24.4087 11.3838 L 24.4257 21.9727 L 24.8032 21.9293 C 26.5432 21.4285 26.4569 20.559 26.4577 19.0576 L 26.4581 13.0084 C 26.4579 12.4789 26.4963 11.9152 26.4493 11.3893 L 25.9928 11.3734 Z M 28.1652 11.3734 L 28.0464 11.3816 C 28.0002 11.5179 28.0275 11.725 28.0271 11.8693 L 28.0273 19.5426 C 28.0269 21.1811 27.6822 22.4203 26.0375 23.2305 C 25.5 23.4953 25.056 23.5067 24.481 23.5637 C 24.5148 23.8254 24.5966 24.1245 24.6851 24.3727 L 26.1648 29.2774 C 26.1725 29.3087 26.1837 29.3363 26.1952 29.3662 L 29.2571 38.7055 C 29.2937 38.8144 29.3739 38.9264 29.4335 39.0249 C 30.0877 40.1049 30.6656 40.1644 31.6629 40.5764 C 32.3456 40.8584 35.7046 40.3801 36.7372 40.0663 L 38.0272 39.7199 C 39.3657 39.3063 40.6344 38.7443 41.8634 38.0766 L 41.5233 36.4533 L 39.8261 36.9356 L 34.4958 38.4117 C 34.1609 38.4869 33.7099 38.6375 33.3866 38.4569 C 32.8525 38.1584 32.8134 37.3345 33.3856 37.0719 C 33.5549 36.9941 33.7374 36.9592 33.9159 36.9101 L 40.4364 35.0955 C 40.6544 35.0299 40.9733 34.9712 41.1603 34.8496 L 38.3129 19.048 C 34.4875 19.3032 31.2649 17.3423 30.3968 13.4089 C 30.2498 12.7431 30.2082 12.0539 30.211 11.3757 L 28.1652 11.3734 Z" stroke-linecap="round" /></g></g></g></svg>