<svg xmlns="http://www.w3.org/2000/svg" width="16" height="16"  viewBox="0 0 16 16"><g transform="matrix(1 0 0 1 0 0)"  ><g style=""   ><g transform="matrix(0.57 0 0 0.57 8 8)"  ><path style="stroke: rgb(133,100,87); stroke-width: 2.4; stroke-dasharray: none; stroke-linecap: square; stroke-dashoffset: 0; stroke-linejoin: miter; stroke-miterlimit: 10; fill: none; fill-rule: nonzero; opacity: 1;"  transform=" translate(-12, -12)" d="M 20.4 16.8 C 22.009784963293107 15.293840848569213 22.94666484668728 13.203878031766825 23 11 C 23 6 18.1 2 12 2 C 5.899999999999999 2 1 6 1 11 C 1 16 5.9 20 12 20 C 13.047462441394917 20.021330787344993 14.092260008335067 19.886518198062394 15.099999999999998 19.6 L 21 22 Z" stroke-linecap="round" /></g><g transform="matrix(0.57 0 0 0.57 8 6.29)"  ><line style="stroke: rgb(133,100,87); stroke-width: 2.4; stroke-dasharray: none; stroke-linecap: square; stroke-dashoffset: 0; stroke-linejoin: miter; stroke-miterlimit: 10; fill: none; fill-rule: nonzero; opacity: 1;"  x1="0" y1="-3" x2="0" y2="3" /></g><g transform="matrix(0.57 0 0 0.57 8 10.29)"  ><circle style="stroke: none; stroke-width: 1; stroke-dasharray: none; stroke-linecap: butt; stroke-dashoffset: 0; stroke-linejoin: miter; stroke-miterlimit: 4; fill: rgb(133,100,87); fill-rule: nonzero; opacity: 1;"  cx="0" cy="0" r="1" /></g></g></g></svg>