<svg xmlns="http://www.w3.org/2000/svg" width="70" height="70"  viewBox="0 0 70 70"><g transform="matrix(1 0 0 1 0 0)"  ><g style=""   ><g transform="matrix(2.92 0 0 -2.92 46.67 16.04)"  ><circle style="stroke: none; stroke-width: 1; stroke-dasharray: none; stroke-linecap: butt; stroke-dashoffset: 0; stroke-linejoin: miter; stroke-miterlimit: 4; fill: rgb(237,112,45); fill-rule: nonzero; opacity: 1;"  cx="0" cy="0" r="1.5" /></g><g transform="matrix(2.92 0 0 -2.92 77.29 46.67)"  ><circle style="stroke: none; stroke-width: 1; stroke-dasharray: none; stroke-linecap: butt; stroke-dashoffset: 0; stroke-linejoin: miter; stroke-miterlimit: 4; fill: rgb(237,112,45); fill-rule: nonzero; opacity: 1;"  cx="0" cy="0" r="1.5" /></g><g transform="matrix(2.92 0 0 -2.92 72.92 31.35)"  ><circle style="stroke: none; stroke-width: 1; stroke-dasharray: none; stroke-linecap: butt; stroke-dashoffset: 0; stroke-linejoin: miter; stroke-miterlimit: 4; fill: rgb(237,112,45); fill-rule: nonzero; opacity: 1;"  cx="0" cy="0" r="1.5" /></g><g transform="matrix(2.92 0 0 2.92 72.92 61.98)"  ><circle style="stroke: none; stroke-width: 1; stroke-dasharray: none; stroke-linecap: butt; stroke-dashoffset: 0; stroke-linejoin: miter; stroke-miterlimit: 4; fill: rgb(237,112,45); fill-rule: nonzero; opacity: 1;"  cx="0" cy="0" r="1.5" /></g><g transform="matrix(2.92 0 0 2.92 8.75 19.69)"  ><circle style="stroke: none; stroke-width: 1; stroke-dasharray: none; stroke-linecap: butt; stroke-dashoffset: 0; stroke-linejoin: miter; stroke-miterlimit: 4; fill: rgb(237,112,45); fill-rule: nonzero; opacity: 1;"  cx="0" cy="0" r="1.5" /></g><g transform="matrix(2.92 0 0 -2.92 8.75 50.31)"  ><circle style="stroke: none; stroke-width: 1; stroke-dasharray: none; stroke-linecap: butt; stroke-dashoffset: 0; stroke-linejoin: miter; stroke-miterlimit: 4; fill: rgb(237,112,45); fill-rule: nonzero; opacity: 1;"  cx="0" cy="0" r="1.5" /></g><g transform="matrix(2.92 0 0 -2.92 61.98 20.42)"  ><circle style="stroke: none; stroke-width: 1; stroke-dasharray: none; stroke-linecap: butt; stroke-dashoffset: 0; stroke-linejoin: miter; stroke-miterlimit: 4; fill: rgb(237,112,45); fill-rule: nonzero; opacity: 1;"  cx="0" cy="0" r="1.5" /></g><g transform="matrix(2.92 0 0 2.92 61.98 72.92)"  ><circle style="stroke: none; stroke-width: 1; stroke-dasharray: none; stroke-linecap: butt; stroke-dashoffset: 0; stroke-linejoin: miter; stroke-miterlimit: 4; fill: rgb(237,112,45); fill-rule: nonzero; opacity: 1;"  cx="0" cy="0" r="1.5" /></g><g transform="matrix(2.92 0 0 2.92 19.69 8.75)"  ><circle style="stroke: none; stroke-width: 1; stroke-dasharray: none; stroke-linecap: butt; stroke-dashoffset: 0; stroke-linejoin: miter; stroke-miterlimit: 4; fill: rgb(237,112,45); fill-rule: nonzero; opacity: 1;"  cx="0" cy="0" r="1.5" /></g><g transform="matrix(2.92 0 0 -2.92 19.69 61.25)"  ><circle style="stroke: none; stroke-width: 1; stroke-dasharray: none; stroke-linecap: butt; stroke-dashoffset: 0; stroke-linejoin: miter; stroke-miterlimit: 4; fill: rgb(237,112,45); fill-rule: nonzero; opacity: 1;"  cx="0" cy="0" r="1.5" /></g><g transform="matrix(2.92 0 0 -2.92 46.67 77.29)"  ><circle style="stroke: none; stroke-width: 1; stroke-dasharray: none; stroke-linecap: butt; stroke-dashoffset: 0; stroke-linejoin: miter; stroke-miterlimit: 4; fill: rgb(237,112,45); fill-rule: nonzero; opacity: 1;"  cx="0" cy="0" r="1.5" /></g><g transform="matrix(2.92 0 0 -2.92 16.04 46.67)"  ><circle style="stroke: none; stroke-width: 1; stroke-dasharray: none; stroke-linecap: butt; stroke-dashoffset: 0; stroke-linejoin: miter; stroke-miterlimit: 4; fill: rgb(237,112,45); fill-rule: nonzero; opacity: 1;"  cx="0" cy="0" r="1.5" /></g></g></g></svg>