<svg xmlns="http://www.w3.org/2000/svg" width="18" height="18"  viewBox="0 0 18 18"><g transform="matrix(1 0 0 1 0 0)"  ><g style=""   ><g transform="matrix(0.75 0 0 0.75 9 8.25)"  ><path style="stroke: none; stroke-width: 1; stroke-dasharray: none; stroke-linecap: butt; stroke-dashoffset: 0; stroke-linejoin: miter; stroke-miterlimit: 4; fill: rgb(124,45,18); fill-rule: nonzero; opacity: 1;"  transform=" translate(-12, -11)" d="M 12.0002 2 C 12.2779 2.00005 12.5435 2.11601 12.7326 2.31934 L 16.7326 6.61914 L 16.7316 6.61914 C 17.008 6.90691 17.193 7.27038 17.2609 7.66406 C 17.3305 8.06818 17.2743 8.48441 17.0998 8.85547 C 17.0038 9.05941 16.8729 9.24319 16.717 9.40234 L 18.7404 11.627 L 18.7394 11.627 C 18.9994 11.9021 19.1766 12.2452 19.2492 12.6172 C 19.3241 13.0015 19.284 13.3997 19.1349 13.7617 C 19.0367 14.0002 18.8927 14.2149 18.714 14.3975 L 20.7404 16.627 L 20.7394 16.627 C 20.9994 16.9021 21.1766 17.2452 21.2492 17.6172 C 21.3241 18.0015 21.284 18.3997 21.1349 18.7617 C 20.9859 19.1236 20.734 19.4342 20.4103 19.6543 C 20.0866 19.8743 19.705 19.9945 19.3137 20 L 4.68572 20 C 4.29435 19.9945 3.91273 19.8744 3.58904 19.6543 C 3.26539 19.4342 3.01346 19.1236 2.86443 18.7617 C 2.71537 18.3997 2.67627 18.0014 2.75115 17.6172 C 2.82373 17.2451 3.00091 16.9021 3.26092 16.627 L 3.25994 16.627 L 5.28533 14.3984 C 5.10655 14.2158 4.96269 14.0003 4.86443 13.7617 C 4.71537 13.3997 4.67627 13.0015 4.75115 12.6172 C 4.82369 12.2454 5.00018 11.902 5.25994 11.627 L 7.28142 9.40234 C 7.12584 9.24337 6.99638 9.05907 6.90057 8.85547 C 6.72596 8.48438 6.6698 8.06823 6.73943 7.66406 C 6.80732 7.27055 6.99151 6.90684 7.26775 6.61914 L 11.2678 2.31934 L 11.342 2.24707 C 11.5233 2.08857 11.757 2 12.0002 2 Z M 8.7326 7.98145 L 8.71014 8.00391 L 8.79998 8 L 9.00017 8 C 9.39592 8.00007 9.75413 8.23378 9.91424 8.5957 C 10.0743 8.9576 10.0065 9.38001 9.74041 9.67285 L 6.74041 12.9727 L 6.71404 13 L 7.00017 13 C 7.39592 13.0001 7.75413 13.2338 7.91424 13.5957 C 8.07428 13.9576 8.00653 14.38 7.74041 14.6729 L 4.74041 17.9727 L 4.71404 18 L 19.2863 18 L 19.2599 17.9727 L 16.2599 14.6729 C 15.9938 14.3801 15.9252 13.9576 16.0851 13.5957 C 16.2453 13.2337 16.6044 13 17.0002 13 L 17.2863 13 L 17.2599 12.9727 L 14.2599 9.67285 C 13.9938 9.38006 13.9252 8.95761 14.0851 8.5957 C 14.2453 8.23372 14.6044 8 15.0002 8 L 15.2004 8 L 15.2902 8.00391 L 15.2678 7.98145 L 12.0002 4.46777 L 8.7326 7.98145 Z" stroke-linecap="round" /></g><g transform="matrix(0.75 0 0 0.75 9 15.38)"  ><path style="stroke: none; stroke-width: 1; stroke-dasharray: none; stroke-linecap: butt; stroke-dashoffset: 0; stroke-linejoin: miter; stroke-miterlimit: 4; fill: rgb(124,45,18); fill-rule: nonzero; opacity: 1;"  transform=" translate(-12, -20.5)" d="M 11 22 L 11 19 C 11 18.4477 11.4477 18 12 18 C 12.5523 18 13 18.4477 13 19 L 13 22 C 13 22.5523 12.5523 23 12 23 C 11.4477 23 11 22.5523 11 22 Z" stroke-linecap="round" /></g></g></g></svg>