<svg xmlns="http://www.w3.org/2000/svg" viewBox="0 0 45 35"><g transform="matrix(0.94 0 0 0.94 0 -5)"  ><g style=""   ><g transform="matrix(1 0 0 1 24 24)"  ><g style=""   ><g transform="matrix(1 0 0 1 0 0.66)"  ><path style="stroke: none; stroke-width: 1; stroke-dasharray: none; stroke-linecap: butt; stroke-dashoffset: 0; stroke-linejoin: miter; stroke-miterlimit: 4; fill: rgb(0,0,0); fill-rule: nonzero; opacity: 1;"  transform=" translate(-24, -24.66)" d="M 21.5513 42.3607 L 8.91832 42.3653 C 8.75037 42.3657 8.56793 42.3741 8.40298 42.3397 L 8.05713 42.254 C 6.69251 41.8218 6.27565 40.764 6.2748 39.484 L 6.27246 35.3558 C 6.29477 34.3595 7.01609 33.2505 8.03046 33.0274 L 8.33941 32.951 C 8.5203 25.8761 11.3763 19.242 17.945 15.9414 L 19.0541 15.4344 C 19.2814 15.3379 19.521 15.2261 19.7588 15.1607 L 19.5778 14.3226 C 19.5543 14.2417 19.2813 14.1546 19.1958 14.1077 C 17.4821 13.165 17.6696 10.8396 19.3995 9.99102 C 19.5035 9.94002 19.6132 9.87515 19.7261 9.84763 L 19.7715 9.83769 C 19.7615 9.70283 19.7352 9.5713 19.7323 9.43607 C 19.6812 7.09166 22.4516 6.28977 24.0229 7.7151 C 24.5419 7.2884 25.0894 7.04001 25.757 6.97035 C 26.7297 6.86966 27.7966 7.58994 28.1109 8.49838 L 28.1261 8.54291 C 28.1976 8.72441 28.2531 8.96629 28.272 9.16269 L 28.2761 9.2083 C 28.291 9.35924 28.3066 9.64326 28.2399 9.77858 L 28.224 9.80854 C 28.261 9.91654 28.4297 9.91537 28.5266 9.9539 C 30.2674 10.6447 30.5331 13.0772 28.8879 14.0637 C 28.5971 14.238 28.4397 14.1587 28.409 14.5142 C 28.3901 14.734 28.3259 14.9342 28.2414 15.1361 C 32.3873 16.7058 35.3672 19.5723 37.4059 23.4257 L 38.157 25.1367 C 38.7874 26.6748 39.1451 28.3492 39.3751 29.9882 L 39.6375 32.9466 C 40.5746 33.199 41.3125 33.7088 41.6116 34.6977 L 41.626 34.746 C 41.7856 35.2002 41.7173 35.7709 41.7177 36.2434 L 41.7175 39.4305 C 41.7172 39.7018 41.7498 40.0226 41.6821 40.285 L 41.6488 40.4179 C 41.3637 41.7652 40.2025 42.3726 38.9291 42.3624 L 21.5513 42.3607 Z M 22.0852 8.23555 C 21.4192 8.31571 20.7108 8.92405 21.0631 9.64448 L 21.0747 9.66885 C 21.2066 9.93923 21.534 10.2923 21.4351 10.615 C 21.3271 10.9674 21.0446 11.0676 20.7192 11.0628 C 18.8159 11.0346 18.9657 12.7556 19.9458 13.0589 C 20.3028 13.1693 20.603 13.1543 20.7928 13.5359 C 20.9515 13.8549 20.7676 14.1104 20.8617 14.414 L 20.8717 14.447 C 21.2162 15.5243 22.6733 15.26 23.3207 14.5664 C 23.4593 14.4179 23.579 14.2565 23.7427 14.1338 L 23.7687 14.1136 C 24.1894 13.7993 24.4749 14.2345 24.7388 14.502 C 25.0777 14.8454 25.4916 15.0346 25.9452 15.1848 C 26.0584 15.2009 26.1479 15.2078 26.2622 15.194 L 26.2951 15.191 C 26.8129 15.1397 27.2831 14.6269 27.2056 14.0976 C 27.0598 13.1027 27.3314 13.3703 28.0667 13.0608 C 29.1991 12.5841 28.8161 11.0518 27.6216 11.0448 C 27.2722 11.0427 26.9612 11.1567 26.7001 10.8478 C 26.5593 10.6811 26.5042 10.4624 26.5936 10.258 L 26.6095 10.2207 C 26.7181 9.97579 26.9796 9.74024 27.0253 9.48041 L 27.0319 9.44559 C 27.2064 8.44916 25.8332 7.86646 25.0109 8.48535 C 24.6617 8.74823 24.425 9.33365 23.9163 9.26455 C 23.3345 9.18552 23.22 8.14958 22.0852 8.23555 Z M 24.0667 15.5742 L 24.0523 15.5916 C 23.2936 16.4827 21.9625 16.6335 20.9199 16.1878 C 20.7834 16.1294 20.7573 16.1647 20.6136 16.2089 L 19.7532 16.5113 C 15.9512 18.0094 12.9844 20.9707 11.3446 24.6914 L 10.7988 26.1053 C 10.5784 26.7151 10.3607 27.3384 10.2221 27.9726 L 9.65688 31.3828 L 9.60991 32.2799 C 9.59679 32.4974 9.55976 32.7051 9.56487 32.9242 L 23.936 32.9167 L 38.4013 32.898 C 38.3384 32.5563 38.3733 32.1855 38.3459 31.839 L 38.2764 31.2656 C 38.2129 30.6077 38.1614 29.9514 38.0492 29.2986 C 37.0123 23.2668 33.1828 18.1663 27.3657 16.1487 C 26.1057 16.7239 25.0915 16.3857 24.072 15.5764 L 24.0667 15.5742 Z M 12.7333 34.1867 L 9.87476 34.1875 C 9.34929 34.1879 8.74413 34.0727 8.25541 34.3007 L 8.22748 34.3135 C 7.4673 34.6697 7.49646 35.4073 7.4959 36.1089 L 7.49412 39.065 C 7.49426 39.777 7.44382 40.5333 8.18679 40.9328 L 8.21534 40.9476 C 8.32418 41.0056 8.42562 41.0544 8.54346 41.0933 L 8.57763 41.1049 C 8.78257 41.171 9.05726 41.1375 9.27312 41.1365 L 35.3325 41.1318 L 38.8168 41.1327 C 39.9566 41.1317 40.4791 40.6223 40.4816 39.4247 L 40.4842 35.4277 C 40.4777 34.9281 40.001 34.2778 39.4816 34.1982 C 39.2515 34.163 38.9883 34.1876 38.7544 34.1876 L 12.7333 34.1867 Z" stroke-linecap="round" /></g><g transform="matrix(1 0 0 1 -1.57 13.76)"  ><path style="stroke: none; stroke-width: 1; stroke-dasharray: none; stroke-linecap: butt; stroke-dashoffset: 0; stroke-linejoin: miter; stroke-miterlimit: 4; fill: rgb(0,0,0); fill-rule: nonzero; opacity: 1;"  transform=" translate(-22.43, -37.76)" d="M 22.5641 40.4063 C 21.794 40.5024 21.8104 39.9358 21.8083 39.3995 L 21.8044 36.5299 C 21.8042 35.9878 21.6468 35.3337 22.2856 35.1118 C 23.2804 35.0537 23.043 36.0629 23.0434 36.715 L 23.0426 39.6774 C 23.0417 40.1008 22.9737 40.2172 22.5641 40.4063 Z" stroke-linecap="round" /></g><g transform="matrix(1 0 0 1 1.61 13.77)"  ><path style="stroke: none; stroke-width: 1; stroke-dasharray: none; stroke-linecap: butt; stroke-dashoffset: 0; stroke-linejoin: miter; stroke-miterlimit: 4; fill: rgb(0,0,0); fill-rule: nonzero; opacity: 1;"  transform=" translate(-25.61, -37.77)" d="M 25.7295 40.4108 C 25.1552 40.5084 24.9637 40.0565 24.9625 39.5917 L 24.962 36.0823 C 24.9623 35.5963 24.9117 35.281 25.4808 35.1113 C 26.5404 35.0293 26.204 36.6825 26.2048 37.4003 L 26.205 39.1747 C 26.2036 39.7274 26.3161 40.137 25.7295 40.4108 Z" stroke-linecap="round" /></g><g transform="matrix(1 0 0 1 6.48 13.77)"  ><path style="stroke: none; stroke-width: 1; stroke-dasharray: none; stroke-linecap: butt; stroke-dashoffset: 0; stroke-linejoin: miter; stroke-miterlimit: 4; fill: rgb(0,0,0); fill-rule: nonzero; opacity: 1;"  transform=" translate(-30.48, -37.77)" d="M 30.5126 40.4196 C 29.832 40.3779 29.8551 39.8354 29.8545 39.2872 L 29.8545 36.4495 C 29.8548 35.8688 29.7154 35.2352 30.481 35.1172 C 31.0795 35.192 31.1042 35.6026 31.1046 36.1316 L 31.1048 38.9667 C 31.1044 39.5019 31.2555 40.3105 30.5126 40.4196 Z" stroke-linecap="round" /></g><g transform="matrix(1 0 0 1 -11.25 13.78)"  ><path style="stroke: none; stroke-width: 1; stroke-dasharray: none; stroke-linecap: butt; stroke-dashoffset: 0; stroke-linejoin: miter; stroke-miterlimit: 4; fill: rgb(0,0,0); fill-rule: nonzero; opacity: 1;"  transform=" translate(-12.75, -37.78)" d="M 12.9328 40.4124 C 12.0921 40.5253 12.1374 39.8794 12.137 39.2576 L 12.1356 36.3044 C 12.1344 36.0554 12.0483 35.6608 12.1948 35.4425 L 12.215 35.4138 C 12.3134 35.2724 12.4529 35.1972 12.6101 35.1379 C 12.755 35.128 12.9395 35.1204 13.0683 35.1986 L 13.0903 35.213 C 13.249 35.3147 13.3728 35.4791 13.3803 35.6716 L 13.3773 39.3983 C 13.3809 39.8954 13.4417 40.1782 12.9328 40.4124 Z" stroke-linecap="round" /></g><g transform="matrix(1 0 0 1 -6.47 13.77)"  ><path style="stroke: none; stroke-width: 1; stroke-dasharray: none; stroke-linecap: butt; stroke-dashoffset: 0; stroke-linejoin: miter; stroke-miterlimit: 4; fill: rgb(0,0,0); fill-rule: nonzero; opacity: 1;"  transform=" translate(-17.53, -37.77)" d="M 17.6666 40.4103 C 16.6741 40.4142 16.9148 39.2425 16.9146 38.5712 L 16.9143 36.7412 C 16.9138 36.1778 16.6957 35.3143 17.433 35.135 C 17.5135 35.1306 17.5845 35.1318 17.6638 35.148 L 17.7826 35.1732 C 17.9644 35.2264 18.1556 35.416 18.1651 35.6148 L 18.1667 39.3669 C 18.166 39.8654 18.2136 40.1972 17.6666 40.4103 Z" stroke-linecap="round" /></g><g transform="matrix(1 0 0 1 11.24 13.78)"  ><path style="stroke: none; stroke-width: 1; stroke-dasharray: none; stroke-linecap: butt; stroke-dashoffset: 0; stroke-linejoin: miter; stroke-miterlimit: 4; fill: rgb(0,0,0); fill-rule: nonzero; opacity: 1;"  transform=" translate(-35.24, -37.78)" d="M 35.4529 40.4041 C 34.7933 40.5363 34.6271 40.1574 34.6254 39.6311 L 34.6201 35.8687 C 34.6202 35.4818 34.6919 35.2924 35.0874 35.1383 C 35.198 35.1258 35.2878 35.1235 35.3985 35.1456 L 35.4929 35.1658 C 35.6749 35.2194 35.8475 35.4192 35.8542 35.6133 L 35.8552 39.4496 C 35.8665 39.9029 35.9198 40.1732 35.4529 40.4041 Z" stroke-linecap="round" /></g></g></g></g></g></svg>