<svg xmlns="http://www.w3.org/2000/svg" width="46" height="46"  viewBox="0 0 46 46"><g transform="matrix(1 0 0 1 0 0)"  ><g style=""   ><g transform="matrix(1.92 0 0 1.92 23 23)"  ><path style="stroke: none; stroke-width: 1; stroke-dasharray: none; stroke-linecap: butt; stroke-dashoffset: 0; stroke-linejoin: miter; stroke-miterlimit: 4; fill: rgb(251,146,60); fill-rule: nonzero; opacity: 1;"  transform=" translate(-12, -12)" d="M 20.9998 14.5 C 20.9998 13.5717 20.6308 12.6818 19.9744 12.0254 C 19.3591 11.4101 18.5387 11.0468 17.6737 11.0039 L 17.4998 11 L 15.7098 11 C 15.2678 10.9999 14.8783 10.7096 14.7518 10.2861 C 14.4339 9.21983 13.8254 8.26205 12.995 7.52148 C 12.1646 6.78109 11.1441 6.28599 10.0487 6.09179 C 8.95321 5.89769 7.82511 6.01195 6.79086 6.42187 C 5.75649 6.83185 4.8563 7.52204 4.19125 8.41406 C 3.52634 9.30603 3.12284 10.3654 3.02523 11.4736 C 2.92761 12.582 3.13962 13.6959 3.63851 14.6904 C 4.13741 15.685 4.90363 16.521 5.85043 17.1055 C 6.79707 17.6898 7.88739 17.9996 8.99984 18 L 17.4998 18 C 18.4281 18 19.3181 17.6309 19.9744 16.9746 C 20.6308 16.3182 20.9998 15.4283 20.9998 14.5 Z M 22.9998 14.5 C 22.9998 15.9585 22.4207 17.3573 21.3895 18.3887 C 20.358 19.4201 18.9585 20 17.4998 20 L 8.99984 20 C 7.51634 19.9996 6.06201 19.5868 4.79964 18.8076 C 3.53726 18.0283 2.5166 16.913 1.8514 15.5869 C 1.1862 14.2608 0.902874 12.7757 1.03304 11.2978 C 1.16324 9.82029 1.70125 8.40797 2.58773 7.21875 C 3.47449 6.02935 4.67532 5.10913 6.05453 4.5625 C 7.43361 4.01601 8.93763 3.86411 10.3983 4.12304 C 11.859 4.38201 13.2188 5.04197 14.326 6.02929 C 15.2442 6.84814 15.9579 7.86573 16.4168 9 L 17.4998 9 L 17.7723 9.00683 C 19.1319 9.07418 20.4224 9.64424 21.3895 10.6113 C 22.4207 11.6427 22.9998 13.0415 22.9998 14.5 Z" stroke-linecap="round" /></g></g></g></svg>