<svg xmlns="http://www.w3.org/2000/svg" viewBox="0 0 45 35"><g transform="matrix(0.94 0 0 0.94 0 -5)"  ><g style=""   ><g transform="matrix(1 0 0 1 24 24)"  ><path style="stroke: none; stroke-width: 1; stroke-dasharray: none; stroke-linecap: butt; stroke-dashoffset: 0; stroke-linejoin: miter; stroke-miterlimit: 4; fill: rgb(0,0,0); fill-rule: nonzero; opacity: 1;"  transform=" translate(-24, -23.96)" d="M 24.8445 26.9242 L 23.8448 21.3852 C 23.6676 21.9176 23.5893 22.4656 23.4871 23.0153 L 23.346 23.7305 C 23.2305 24.4281 23.1831 25.1345 23.1163 25.8374 L 22.9633 27.3589 L 22.3591 34.043 L 21.6607 40.3258 L 21.4835 42.6446 C 21.4536 43.082 21.473 43.5497 21.3298 43.9703 L 21.297 44.0809 C 21.0633 44.9819 20.0602 45.7586 19.138 45.8525 C 18.2424 45.9437 17.3752 45.7868 16.4879 45.7521 L 15.2608 45.7441 C 13.45 45.7334 11.7633 44.6005 11.1227 42.885 C 10.941 42.3984 10.8649 41.8839 10.7708 41.3759 L 10.2516 37.803 L 9.94251 33.6132 L 9.83732 28.8399 L 9.77441 17.8411 C 9.77638 17.5881 9.83113 17.3473 9.83685 17.0974 L 9.91663 14.0274 C 9.92034 13.4071 9.7851 12.7839 9.89376 12.1641 C 9.99655 11.5775 9.99876 10.9639 10.0599 10.3721 L 10.25 8.63007 C 10.2754 8.3926 10.3218 8.15743 10.3307 7.91832 L 10.3331 6.45718 C 10.3329 6.22576 10.3074 5.96448 10.3583 5.73976 C 10.6669 4.37623 11.6347 3.12162 13.0909 2.89516 C 13.3712 2.85157 13.6428 2.92938 13.916 2.89031 C 15.2425 2.70059 16.5039 2.13649 17.8538 2.0727 L 19.2332 2.06404 C 19.685 2.06399 20.1497 2.0446 20.6 2.07632 C 21.2914 2.12503 21.9661 2.24252 22.667 2.24928 L 26.049 2.1783 C 26.3447 2.16094 26.6372 2.09491 26.9315 2.07636 C 28.0479 2.00598 29.2377 2.05115 30.3363 2.23834 L 34.1715 2.9987 C 34.5185 3.05482 34.8455 3.09391 35.1793 3.21519 C 36.1935 3.5836 37.1646 4.6052 37.4998 5.64849 L 37.5163 5.69321 C 37.6974 6.2026 37.5407 7.39131 37.6008 8.01568 L 38.0523 12.2158 C 38.0682 12.5025 38.0889 12.8035 38.085 13.0899 L 38.0623 16.3583 C 38.0686 16.6065 38.1141 16.8511 38.1212 17.0977 L 38.1626 19.2305 C 38.1703 19.4233 38.2163 19.6131 38.2224 19.8047 L 38.2219 31.2559 C 38.2172 31.4624 38.1671 31.659 38.1609 31.8624 L 38.1152 33.6914 C 38.1086 33.8395 38.0781 33.9819 38.0677 34.1286 L 37.927 36.9374 L 37.7646 38.5607 C 37.6589 39.6477 37.5569 40.2928 37.3371 41.3321 C 36.8827 43.4814 35.7154 45.4451 33.2959 45.7272 C 32.8091 45.784 32.0481 45.7909 31.5113 45.8112 L 29.6745 45.8179 C 29.3586 45.8192 29.0262 45.8421 28.7129 45.8164 C 27.4319 45.7117 26.4568 44.3562 26.432 43.1259 L 26.417 42.4277 C 26.4098 42.2804 26.381 42.1352 26.3728 41.9883 L 26.0504 37.5754 L 25.6264 33.4426 C 25.607 33.2772 25.6086 33.1077 25.5929 32.9415 L 24.8445 26.9242 Z M 18.6606 3.31316 C 18.2819 3.30888 17.9006 3.30887 17.5249 3.36386 C 16.3979 3.52882 14.8774 4.18131 13.8476 4.15578 C 13.6713 4.15141 13.4898 4.10558 13.3151 4.14339 C 12.4448 4.33172 11.8456 5.07437 11.6387 5.91493 L 11.5926 6.16679 C 12.2825 6.32523 13.2767 6.49346 13.9879 6.33278 C 14.6683 6.17907 15.3636 6.21877 16.0543 6.19102 C 16.6159 6.16848 17.0774 6.11171 17.6677 6.11073 L 18.5688 6.10909 C 19.3466 6.10721 20.0986 6.0197 20.9016 6.01876 L 29.5376 6.01702 L 33.691 6.31009 C 34.2877 6.37299 35.1258 6.46904 35.7184 6.33713 L 36.3658 6.16393 C 35.9463 4.96267 35.1185 4.46323 33.9663 4.25578 L 31.1479 3.69146 C 29.4608 3.32989 28.5394 3.24063 26.8054 3.38431 C 26.3872 3.41896 25.9772 3.47933 25.5561 3.48211 L 21.8502 3.47456 C 21.3826 3.45701 20.9221 3.37436 20.4555 3.3417 L 18.6606 3.31316 Z M 24.8011 7.25448 L 23.6099 7.26559 L 23.6003 15.7174 C 23.6004 16.1072 23.5649 16.533 23.6174 16.9176 C 23.741 16.8742 23.8435 16.8172 23.9547 16.7486 C 25.6628 15.6399 25.3297 12.9149 25.3304 11.1428 L 25.3314 7.25429 L 24.8011 7.25448 Z M 26.6011 7.26479 L 26.5902 13.2943 C 26.4739 15.5668 25.9868 17.7422 23.4254 18.2818 C 22.1549 18.5494 22.3375 17.3657 22.3371 16.5546 L 22.337 7.91649 C 22.3369 7.71132 22.3525 7.49209 22.3279 7.2887 C 21.7449 7.24145 21.0893 7.23484 20.5048 7.2767 L 16.6893 7.39234 C 16.3338 7.39613 15.9734 7.38498 15.6195 7.42267 C 15.4465 9.35373 14.8903 11.4392 13.3432 12.7383 C 12.7243 13.2581 12.0013 13.6906 11.1822 13.768 L 11.0775 17.2149 C 11.0664 17.4121 11.0272 17.6039 11.0224 17.8029 L 11.0199 27.2028 C 11.0226 27.5172 11.0775 27.823 11.08 28.1395 L 11.0893 31.9789 C 11.0951 32.1517 11.1239 32.3229 11.1278 32.4961 L 11.1522 34.1954 C 11.1632 34.4309 11.2179 34.6626 11.225 34.8985 L 11.3427 37.356 C 11.3555 37.5333 11.3914 37.7102 11.409 37.8879 L 11.6727 39.9844 C 11.6893 40.1019 11.6874 40.2217 11.7111 40.3381 L 12.795 40.2913 C 12.9507 40.2813 13.1023 40.2533 13.2591 40.2493 L 17.3097 40.2524 C 17.873 40.2749 18.5835 40.3339 19.1391 40.3924 L 20.3951 40.5311 L 21.4205 30.7087 C 21.4641 30.4181 21.4764 30.1317 21.5062 29.8404 L 22.066 23.7696 L 22.3035 22.4213 C 22.4593 21.5671 22.779 19.0833 24.1988 19.6414 L 24.2296 19.6533 C 24.9014 19.928 25.1569 21.5545 25.3238 22.3011 L 26.1082 26.8296 L 27.1599 36.0919 L 27.4133 39.1366 C 27.4492 39.5849 27.4329 40.0684 27.5226 40.5077 L 30.8327 40.2453 L 34.4431 40.2477 C 34.9742 40.2587 35.7995 40.4425 36.2772 40.3173 L 36.6554 36.8618 C 36.6914 36.1458 36.7486 35.4384 36.7778 34.7227 L 36.8486 32.5899 C 36.8595 32.1325 36.9391 31.6806 36.9493 31.2194 L 36.9563 18.5085 C 36.9555 18.2465 36.9705 17.9741 36.95 17.7136 C 36.9408 17.5973 36.8545 17.5233 36.846 17.3951 C 36.8299 17.1522 36.8416 16.8998 36.8408 16.6558 L 36.8395 15.1898 C 36.8393 14.9698 36.8113 14.7609 36.8019 14.5431 L 36.7955 13.8488 C 34.2169 13.3456 32.8456 11.1201 32.4674 8.64273 L 32.3679 7.75787 C 32.3609 7.66196 32.411 7.47488 32.291 7.45041 C 31.9926 7.38966 31.6777 7.39674 31.3754 7.36857 L 30.5338 7.28556 L 26.6011 7.26479 Z M 11.6062 7.4649 C 11.585 8.39274 11.451 9.31018 11.3455 10.2305 L 11.2003 11.7372 C 11.1684 11.9987 11.1272 12.2496 11.1306 12.5142 C 11.7952 12.3674 12.3903 11.9058 12.8515 11.4235 C 13.8809 10.2593 14.0845 9.10515 14.3255 7.59254 C 13.2473 7.60337 12.7956 7.73092 11.6062 7.4649 Z M 36.257 7.53521 C 35.2489 7.76471 34.5656 7.61476 33.6239 7.61729 C 33.634 8.20651 33.7731 8.84565 33.9381 9.41021 L 34.1292 9.99291 C 34.2476 10.4176 34.7693 11.292 35.1521 11.5791 C 35.6051 12.0079 36.2162 12.4496 36.8392 12.5765 L 36.3194 7.55476 C 36.2984 7.54674 36.2795 7.53774 36.257 7.53521 Z M 31.798 41.5291 L 27.6742 41.7667 C 27.6178 41.8466 27.6571 42.8994 27.6841 43.0574 L 27.7391 43.4491 C 27.799 43.7904 28.0936 44.1634 28.3718 44.3533 L 28.5641 44.4615 C 28.9492 44.6641 29.5579 44.5407 29.9827 44.5399 C 30.6156 44.5387 31.2617 44.5672 31.8923 44.5294 L 33.1621 44.4428 C 34.5882 44.354 35.7493 42.8904 35.9659 41.5588 C 35.4918 41.5027 34.9875 41.5323 34.5102 41.5307 L 31.798 41.5291 Z M 13.6684 41.5323 L 12.0296 41.6072 C 12.0555 41.7673 12.0914 41.9164 12.1425 42.0704 L 12.2838 42.4607 C 12.6641 43.5006 13.6854 44.2567 14.7623 44.4386 C 15.1066 44.4968 15.4958 44.4544 15.8456 44.4651 L 16.7409 44.5324 C 17.4002 44.5573 18.0468 44.5407 18.7061 44.5981 C 19.7849 44.6273 20.2407 43.7 20.2607 42.7371 L 20.2701 41.7548 L 13.6684 41.5323 Z" stroke-linecap="round" /></g></g></g></svg>