<svg xmlns="http://www.w3.org/2000/svg" width="24" height="24"  viewBox="0 0 24 24"><g transform="matrix(1 0 0 1 0 0)"  ><g style=""   ><g transform="matrix(1 0 0 1 12 9.62)"  ><path style="stroke: none; stroke-width: 1; stroke-dasharray: none; stroke-linecap: butt; stroke-dashoffset: 0; stroke-linejoin: miter; stroke-miterlimit: 4; fill: rgb(71,85,105); fill-rule: nonzero; opacity: 1;"  transform=" translate(-12, -9.62)" d="M 8.36981 2.02806 C 9.57991 1.93209 10.7965 2.11276 11.9264 2.55638 C 13.0563 3.00001 14.0708 3.69506 14.8923 4.58861 C 15.5422 5.29566 16.0556 6.11341 16.4147 6.99974 L 17.4997 6.99974 L 17.7204 7.00463 C 18.8226 7.04871 19.8883 7.42271 20.777 8.08178 C 21.7247 8.78458 22.4208 9.77404 22.7634 10.9031 C 23.1059 12.0323 23.0761 13.2422 22.6784 14.3533 C 22.2807 15.4643 21.5366 16.4185 20.5554 17.074 L 20.4675 17.1257 C 20.0198 17.3632 19.4563 17.228 19.1686 16.7976 C 18.8619 16.3383 18.9857 15.7176 19.445 15.4109 L 19.6716 15.2449 C 20.1839 14.8396 20.5742 14.298 20.7956 13.6794 C 21.0486 12.9724 21.0682 12.2027 20.8503 11.4841 C 20.6323 10.7655 20.1888 10.1355 19.5856 9.68822 C 19.0579 9.29691 18.4321 9.06379 17.7809 9.01146 L 17.4997 8.99974 L 15.7097 8.99974 C 15.2677 8.99958 14.8781 8.70937 14.7516 8.28588 C 14.4912 7.41367 14.0357 6.61225 13.4196 5.94213 C 12.8034 5.2719 12.0425 4.75043 11.195 4.41771 C 10.3476 4.08508 9.43548 3.94926 8.52801 4.02123 C 7.62051 4.09324 6.74107 4.37065 5.95672 4.83275 C 5.17231 5.29489 4.5035 5.93023 4.00067 6.6892 C 3.49797 7.44806 3.17408 8.31125 3.05438 9.21361 C 2.93467 10.1161 3.02264 11.0344 3.31024 11.8982 C 3.59784 12.7619 4.07777 13.5494 4.71453 14.1999 C 5.1007 14.5946 5.09451 15.2277 4.69988 15.614 C 4.30525 16.0003 3.67215 15.9929 3.28582 15.5984 L 2.97723 15.2644 C 2.28057 14.4666 1.74733 13.5378 1.4118 12.53 C 1.02834 11.3783 0.91237 10.1542 1.07195 8.95092 C 1.23155 7.74764 1.66332 6.59661 2.33367 5.5847 C 3.00412 4.57274 3.89619 3.72628 4.94207 3.1101 C 5.98781 2.49403 7.1599 2.12407 8.36981 2.02806 Z" stroke-linecap="round" /></g><g transform="matrix(1 0 0 1 16 17)"  ><path style="stroke: none; stroke-width: 1; stroke-dasharray: none; stroke-linecap: butt; stroke-dashoffset: 0; stroke-linejoin: miter; stroke-miterlimit: 4; fill: rgb(71,85,105); fill-rule: nonzero; opacity: 1;"  transform=" translate(-16, -17)" d="M 15 20 L 15 14 C 15 13.4477 15.4477 13 16 13 C 16.5523 13 17 13.4477 17 14 L 17 20 C 17 20.5523 16.5523 21 16 21 C 15.4477 21 15 20.5523 15 20 Z" stroke-linecap="round" /></g><g transform="matrix(1 0 0 1 8 17)"  ><path style="stroke: none; stroke-width: 1; stroke-dasharray: none; stroke-linecap: butt; stroke-dashoffset: 0; stroke-linejoin: miter; stroke-miterlimit: 4; fill: rgb(71,85,105); fill-rule: nonzero; opacity: 1;"  transform=" translate(-8, -17)" d="M 7 20 L 7 14 C 7 13.4477 7.44772 13 8 13 C 8.55228 13 9 13.4477 9 14 L 9 20 C 9 20.5523 8.55228 21 8 21 C 7.44772 21 7 20.5523 7 20 Z" stroke-linecap="round" /></g><g transform="matrix(1 0 0 1 12 19)"  ><path style="stroke: none; stroke-width: 1; stroke-dasharray: none; stroke-linecap: butt; stroke-dashoffset: 0; stroke-linejoin: miter; stroke-miterlimit: 4; fill: rgb(71,85,105); fill-rule: nonzero; opacity: 1;"  transform=" translate(-12, -19)" d="M 11 22 L 11 16 C 11 15.4477 11.4477 15 12 15 C 12.5523 15 13 15.4477 13 16 L 13 22 C 13 22.5523 12.5523 23 12 23 C 11.4477 23 11 22.5523 11 22 Z" stroke-linecap="round" /></g></g></g></svg>