<svg xmlns="http://www.w3.org/2000/svg" viewBox="0 0 44 35"><g transform="matrix(0.92 0 0 0.92 0 -4)"  ><g style=""   ><g transform="matrix(1 0 0 1 24 24)"  ><g style=""   ><g transform="matrix(1 0 0 1 -0.02 -0.02)"  ><path style="stroke: none; stroke-width: 1; stroke-dasharray: none; stroke-linecap: butt; stroke-dashoffset: 0; stroke-linejoin: miter; stroke-miterlimit: 4; fill: rgb(0,0,0); fill-rule: nonzero; opacity: 1;"  transform=" translate(-23.98, -23.98)" d="M 24.8088 41.1328 L 8.46189 41.1347 C 6.83898 41.1331 5.56524 40.1663 5.37446 38.4851 C 5.35117 38.2795 5.45068 37.7651 5.27706 37.6489 C 4.69093 37.2569 5.13249 35.6753 5.07953 34.9505 C 5.06481 34.7496 4.95606 34.552 4.90562 34.3564 C 4.6503 33.367 5.47037 32.4534 6.40131 32.2464 C 6.49707 32.225 6.44865 31.2432 6.44921 31.05 L 6.45624 29.7944 C 6.4614 29.6298 6.48774 29.4672 6.49056 29.3023 L 6.64257 25.863 C 6.74926 24.0598 6.99029 22.2698 7.37823 20.5054 L 7.83629 18.66 C 8.49793 16.4626 9.44321 14.1608 11.0265 12.4753 C 14.1656 9.13361 18.5662 6.97352 23.176 6.82867 C 23.8511 6.82061 24.5319 6.80683 25.2057 6.85314 C 29.1821 7.12647 32.8623 8.90135 35.8261 11.5165 C 37.4829 12.9783 38.4554 14.283 39.2943 16.3303 L 40.2022 18.9351 C 40.2114 18.9806 40.219 19.0202 40.2339 19.0645 L 40.3952 19.7031 C 40.4094 19.7929 40.4427 19.8752 40.4616 19.9637 L 41.0217 23.1579 C 41.0522 23.3657 41.0519 23.58 41.0777 23.7888 L 41.352 27.5524 C 41.3688 27.7885 41.4159 28.0237 41.4267 28.2598 L 41.486 32.2581 C 41.5947 32.3433 41.6987 32.3238 41.8178 32.3716 C 42.9507 32.8271 43.4021 33.9464 42.8737 35.0405 C 42.6634 35.4759 43.266 37.0263 42.9577 37.5552 C 42.8593 37.7241 42.7024 37.9004 42.6293 38.0748 C 42.5085 38.3625 42.6017 38.7504 42.5154 39.0636 C 42.2322 40.0904 41.4459 40.8724 40.3823 41.0888 L 40.3397 41.0972 C 40.1052 41.1456 39.8729 41.1359 39.6347 41.1349 L 24.8088 41.1328 Z M 23.542 8.07892 C 19.2899 8.13396 15.1342 10.0453 12.18 13.0707 C 10.9334 14.3473 10.6918 14.8929 9.96915 16.5115 C 8.69743 19.3598 8.17787 22.4316 7.92048 25.5197 L 7.7342 28.8513 C 7.72698 29.0358 7.69318 29.2166 7.6877 29.4022 L 7.67387 31.9884 L 24.4338 31.9776 L 40.2617 31.973 C 40.1752 31.0086 40.2676 30.0215 40.2249 29.0528 L 40.152 28.2745 C 39.9525 23.9515 39.6127 19.3899 37.5078 15.5139 C 36.9363 14.4615 36.6431 14.0249 35.7931 13.1811 C 32.3402 9.75363 28.3654 8.10419 23.5495 8.07447 L 23.542 8.07892 Z M 7.92343 33.2601 C 7.39562 33.2915 6.40084 33.3753 6.07539 33.8701 C 6.53846 34.6204 6.27043 35.4661 6.2777 36.2858 C 7.05446 36.2075 7.47648 36.1645 8.29224 36.1629 L 39.2248 36.1617 C 39.4905 36.1638 39.7781 36.1867 40.0421 36.1594 C 40.6597 36.1734 41.1279 36.2843 41.7102 36.282 C 41.6202 35.7851 41.4105 34.4243 41.8336 34.0661 C 41.7772 33.1244 39.6622 33.2586 38.9822 33.2582 L 7.92343 33.2601 Z M 15.1011 37.4119 L 14.7474 37.4343 C 15.2804 38.3215 15.2424 38.9457 14.7528 39.8819 L 32.8302 39.8617 C 32.953 39.8647 33.102 39.8804 33.2214 39.8577 L 33.2093 39.835 C 33.014 39.4643 32.8999 39.0656 32.8689 38.648 L 32.8651 38.6007 C 32.8343 38.1871 32.9932 37.7887 33.1651 37.4218 L 15.1011 37.4119 Z M 10.1183 37.4194 C 9.67051 37.68 9.49768 38.3201 9.59251 38.7875 L 9.60062 38.8394 C 9.64839 39.1281 9.99442 39.8588 10.3642 39.8606 L 12.3422 39.859 C 12.61 39.8586 12.9968 39.9317 13.2384 39.7924 C 13.8813 39.34 14.0598 38.4536 13.6227 37.815 C 13.2274 37.2373 12.7147 37.4126 12.0936 37.4124 L 10.1183 37.4194 Z M 34.8798 37.4155 C 34.3238 37.568 34.0268 38.3182 34.1334 38.8328 L 34.1844 39.0128 C 34.2614 39.3355 34.5247 39.637 34.8041 39.8063 C 35.0375 39.9477 35.4973 39.859 35.7667 39.8593 L 37.717 39.8617 C 38.1689 39.7672 38.4868 38.7485 38.4249 38.3251 L 38.3997 38.2146 C 38.1388 37.2128 37.7429 37.4124 36.9104 37.4124 L 34.8798 37.4155 Z M 39.476 37.4193 L 39.6941 38.1237 C 39.8297 38.6082 39.6456 39.4988 39.3367 39.8852 C 39.5991 39.8826 39.8693 39.8928 40.1292 39.8543 L 40.1623 39.8496 C 40.3416 39.8204 40.5287 39.7031 40.6839 39.6137 C 41.4023 39.0294 41.3264 38.3459 41.3215 37.4994 L 39.476 37.4193 Z M 7.71629 37.4722 L 7.07143 37.4752 C 6.94459 37.4761 6.8041 37.4647 6.68007 37.4906 C 6.56579 38.3403 6.63024 39.2075 7.47676 39.652 L 7.51135 39.6706 C 7.63942 39.7379 7.77685 39.7826 7.91321 39.8298 L 8.65993 39.8893 L 8.50914 39.5669 C 8.20665 38.9312 8.24274 38.2421 8.47567 37.5971 L 8.51134 37.503 C 8.5209 37.4778 8.51799 37.4883 8.52099 37.4609 L 7.71629 37.4722 Z" stroke-linecap="round" /></g><g transform="matrix(1 0 0 1 8.45 -7.79)"  ><path style="stroke: none; stroke-width: 1; stroke-dasharray: none; stroke-linecap: butt; stroke-dashoffset: 0; stroke-linejoin: miter; stroke-miterlimit: 4; fill: rgb(0,0,0); fill-rule: nonzero; opacity: 1;"  transform=" translate(-32.45, -16.21)" d="M 34.7815 21.9794 C 34.0988 22.0459 34.0541 21.4446 33.9986 20.958 L 33.8437 19.7109 C 33.4831 17.0262 32.6098 13.9538 30.5284 12.1079 L 30.1194 11.7619 C 29.8344 11.534 29.4792 11.2211 29.6817 10.8057 L 29.7429 10.6853 C 29.8451 10.5222 29.9871 10.4753 30.1629 10.4316 C 30.6753 10.4625 30.9352 10.8158 31.2924 11.1431 C 32.7258 12.4561 33.9356 14.4232 34.3915 16.3395 L 34.4215 16.4487 C 34.74 17.3827 34.9974 18.7432 35.1139 19.7405 L 35.2063 20.6111 C 35.2583 21.1778 35.4805 21.7332 34.7815 21.9794 Z" stroke-linecap="round" /></g><g transform="matrix(1 0 0 1 10.88 1.72)"  ><path style="stroke: none; stroke-width: 1; stroke-dasharray: none; stroke-linecap: butt; stroke-dashoffset: 0; stroke-linejoin: miter; stroke-miterlimit: 4; fill: rgb(0,0,0); fill-rule: nonzero; opacity: 1;"  transform=" translate(-34.88, -25.72)" d="M 34.9799 27.9783 C 34.3624 27.9317 34.3105 27.5882 34.3086 27.0902 L 34.3014 26.0448 C 34.2967 25.7347 34.177 24.0365 34.2857 23.8361 C 34.3984 23.6285 34.5513 23.5268 34.7753 23.4627 C 35.0735 23.4502 35.3417 23.5852 35.4324 23.8812 L 35.441 23.9181 C 35.5647 24.3843 35.5046 24.962 35.5053 25.4455 L 35.5062 27.3752 C 35.5045 27.6994 35.2793 27.89 34.9799 27.9783 Z" stroke-linecap="round" /></g></g></g></g></g></svg>