<svg xmlns="http://www.w3.org/2000/svg" viewBox="0 0 30 30"><g transform="matrix(0.63 0 0 0.63 0 0)"  ><g style=""   ><g transform="matrix(1 0 0 1 24 24)"  ><g style=""   ><g transform="matrix(1 0 0 1 -0.01 -0.01)"  ><path style="stroke: none; stroke-width: 1; stroke-dasharray: none; stroke-linecap: butt; stroke-dashoffset: 0; stroke-linejoin: miter; stroke-miterlimit: 4; fill: rgb(0,0,0); fill-rule: nonzero; opacity: 1;"  transform=" translate(-23.99, -23.99)" d="M 28.1743 44.1314 L 26.8337 44.1299 C 25.7214 44.1294 24.8336 44.1187 23.9901 43.2403 C 23.2067 44.0212 22.1589 44.1258 21.1012 44.1288 C 19.066 44.1347 18.1044 44.1058 16.3885 42.6636 C 15.3515 41.7919 14.4031 41.0829 12.9977 40.8886 C 12.8233 40.8645 12.6387 40.8721 12.467 40.8365 C 11.6147 40.6603 11.8983 39.6324 12.0323 39.0583 L 12.9977 34.6835 C 11.0004 35.5543 8.37083 34.0353 8.25444 31.7507 C 8.22022 31.0785 8.37083 30.4555 8.50072 29.8008 L 9.58724 23.6953 L 10.5978 18.8937 C 11.1665 16.4247 12.0526 12.755 13.7262 10.7796 C 14.0225 10.43 13.9451 10.6114 14.0198 10.1521 C 14.246 8.76139 15.4092 8.05442 16.7533 8.00539 C 16.9854 6.71469 17.7236 5.78023 19.0864 5.56011 C 19.2235 4.91933 19.6163 4.28748 20.2454 4.03385 L 20.2818 4.01956 C 20.4585 3.94792 20.6228 3.90732 20.8101 3.87421 C 22.0006 3.6862 23.0241 4.76979 23.6863 5.60961 C 24.1314 4.95565 24.8781 4.13683 25.672 3.93783 L 25.9249 3.87635 C 26.8007 3.72949 27.6023 4.17621 27.9643 4.9805 C 28.1784 5.45609 27.9434 5.45656 28.5124 5.52331 C 29.8865 5.68456 30.8314 6.62384 31.0331 8.01059 C 31.5842 8.06839 32.1006 8.05184 32.6131 8.3029 C 33.403 8.6899 33.9367 9.51139 34.0048 10.3833 C 34.0179 10.5513 34.2816 10.7951 34.3908 10.9369 L 34.7858 11.4937 C 35.2386 12.1841 35.9375 13.6338 36.1682 14.461 L 37.201 18.1055 C 37.2614 18.4356 37.3573 18.7767 37.4412 19.1024 L 38.0219 21.6949 L 39.5573 30.3232 C 39.6489 30.9192 39.8166 31.5131 39.6562 32.1178 L 39.4819 32.6826 C 38.8707 34.5847 36.7273 35.2707 34.9209 34.6761 L 35.426 37.0337 C 35.4622 37.2603 35.5407 37.4904 35.5881 37.716 L 35.9005 39.1289 C 35.9969 39.5356 36.2844 40.1385 35.9732 40.5155 C 35.6777 40.8736 35.2416 40.7066 34.8473 40.7964 C 32.1368 41.4138 31.2385 43.9425 28.1743 44.1314 Z M 20.9553 5.37069 C 20.5893 5.53179 20.6421 5.65634 20.5669 5.99965 C 20.3773 6.86412 19.9805 6.98164 19.2694 7.06644 C 18.1463 7.20036 17.9631 8.55275 18.7924 9.2405 C 18.9423 9.36481 19.1438 9.44005 19.3168 9.52639 C 21.2575 10.4952 22.0062 11.2423 23.1577 13.125 C 23.4154 13.5464 23.6805 14.0152 23.84 14.4844 L 23.8896 14.6296 C 23.9214 14.7211 23.9708 14.8077 24.0188 14.8915 C 24.3414 13.6776 25.0162 12.4408 25.8444 11.4987 C 26.2973 10.9862 26.8132 10.5445 27.3915 10.1786 C 28.2141 9.65806 29.6068 9.34353 29.5293 8.11536 C 29.4602 7.02036 28.4688 7.12733 27.785 6.99467 C 26.6109 6.76686 26.7185 5.65245 26.5328 5.45722 C 25.859 5.10636 25.2153 6.1152 24.8646 6.54711 L 24.5078 6.97611 C 24.2391 7.33058 23.9352 7.91201 23.3814 7.60451 C 22.868 7.31933 21.9389 5.29156 20.9553 5.37069 Z M 30.7101 9.4805 C 30.0632 10.594 29.7137 10.6627 28.6951 11.1764 C 26.3618 12.3534 25.0636 15.3237 24.8331 17.8467 C 24.7948 18.266 24.8202 18.7036 24.8201 19.1255 L 24.8242 41.9905 C 25.3562 42.7017 26.2034 42.5933 26.9822 42.5948 L 28.0193 42.595 C 28.7758 42.5914 29.4553 42.3429 30.0836 41.9294 C 30.5098 41.6509 30.8838 41.3126 31.2816 40.9974 C 32.2638 40.2191 33.2376 39.6534 34.4408 39.3069 L 32.6611 31.6413 L 31.1542 24.4219 L 30.36 20.0676 C 30.19 19.1122 30.0696 19.1696 30.5006 18.305 C 31.2545 16.7928 31.4558 15.06 31.8083 13.4297 L 32.1501 11.9321 C 32.2444 11.5545 32.3595 11.1771 32.4306 10.7944 C 32.6752 9.47745 31.5356 9.5584 30.7101 9.4805 Z M 16.9572 9.50206 C 16.6517 9.53206 16.3293 9.52067 16.0428 9.63959 L 16.0172 9.64986 C 15.569 9.83773 15.4259 10.3146 15.5175 10.7578 L 15.6293 11.3113 C 15.7079 11.6905 15.7668 12.1008 15.8792 12.4707 L 16.7893 16.6743 C 16.7968 16.7099 16.8084 16.742 16.82 16.7762 L 17.297 18.2864 C 17.3571 18.4353 17.5002 18.5021 17.5563 18.638 C 17.6265 18.8082 17.8164 19.814 17.8244 19.9608 C 17.5234 20.2116 17.5868 20.3383 17.4991 20.7147 L 15.4334 30.7974 L 13.4732 39.1289 C 13.4548 39.2001 13.4044 39.3027 13.4017 39.373 L 13.4056 39.3935 C 13.7734 39.5195 14.1557 39.5692 14.5228 39.713 C 16.1856 40.364 16.7897 41.1692 18.1279 42.0803 C 19.1728 42.6658 19.9768 42.5987 21.1287 42.5942 C 21.9682 42.5909 23.2806 42.5454 23.3246 41.3743 L 23.3252 18.7066 C 23.1863 16.0112 21.7336 12.4301 19.2505 11.1717 C 18.3354 10.708 17.6725 10.6177 17.1762 9.48945 L 16.9572 9.50206 Z M 33.5982 12.3679 C 33.4501 12.8445 33.348 13.3502 33.2539 13.8399 L 32.9131 15.4912 C 32.8103 15.9848 32.7183 16.478 32.5828 16.9645 L 32.0148 18.6621 C 31.7328 19.3331 31.6756 19.3245 31.829 20.0508 L 32.3976 23.0335 C 32.5069 23.5941 32.6056 24.1616 32.7303 24.7187 L 34.2661 32.168 C 34.3147 32.3888 34.337 32.6324 34.4128 32.8454 C 35.1772 33.1926 35.56 33.4126 36.4036 33.3915 C 37.1201 33.327 37.7379 32.8981 38.0637 32.2521 C 38.4127 31.5602 38.2143 30.8852 38.08 30.1716 L 36.0538 19.698 C 35.465 17.1831 34.8826 14.6354 33.5982 12.3679 Z M 14.3778 12.4569 L 13.8635 13.4285 C 13.4621 14.2581 13.1327 15.1525 12.8752 16.0377 L 11.812 20.1806 L 9.80792 30.7475 C 9.734 31.121 9.62647 31.5855 9.76471 31.9512 L 9.78702 32.0011 C 9.80132 32.0326 9.80736 32.063 9.81655 32.0961 C 10.0249 32.8493 10.8499 33.3311 11.5891 33.3944 C 12.3653 33.3846 12.8726 33.1391 13.5114 32.7064 C 13.5744 32.4677 13.6053 32.2264 13.6586 31.9864 L 16.1766 19.7496 C 16.2407 19.4173 16.2726 19.4684 16.1377 19.1638 L 15.8905 18.5585 C 15.727 18.1115 15.5986 17.6549 15.472 17.1965 L 14.3778 12.4569 Z" stroke-linecap="round" /></g><g transform="matrix(1 0 0 1 5.58 3.12)"  ><path style="stroke: none; stroke-width: 1; stroke-dasharray: none; stroke-linecap: butt; stroke-dashoffset: 0; stroke-linejoin: miter; stroke-miterlimit: 4; fill: rgb(0,0,0); fill-rule: nonzero; opacity: 1;"  transform=" translate(-29.58, -27.12)" d="M 30.836 30.6138 C 30.1143 30.6239 29.8397 29.9286 29.5576 29.3764 C 29.1642 28.6064 28.8391 27.8187 28.5157 27.0179 C 28.2078 26.2556 27.0219 23.88 28.3783 23.6299 C 29.0918 23.6483 29.0901 24.2261 29.251 24.7618 C 29.3847 25.207 29.5456 25.6693 29.7328 26.0962 L 30.3877 27.6211 C 30.5165 27.9541 30.6681 28.274 30.8305 28.5915 L 31.2532 29.364 C 31.3178 29.4894 31.3899 29.5881 31.4095 29.7318 L 31.4138 29.7642 C 31.4277 29.8581 31.4326 29.9288 31.4158 30.0234 L 31.4091 30.0587 C 31.3559 30.3643 31.1241 30.5335 30.836 30.6138 Z" stroke-linecap="round" /></g><g transform="matrix(1 0 0 1 -5.61 3.11)"  ><path style="stroke: none; stroke-width: 1; stroke-dasharray: none; stroke-linecap: butt; stroke-dashoffset: 0; stroke-linejoin: miter; stroke-miterlimit: 4; fill: rgb(0,0,0); fill-rule: nonzero; opacity: 1;"  transform=" translate(-18.39, -27.11)" d="M 17.2885 30.5749 C 16.808 30.618 16.3303 30.1935 16.4997 29.6835 C 16.5819 29.436 16.7333 29.1916 16.8409 28.952 L 18.7737 24.6953 C 18.9663 24.1941 18.9316 23.8487 19.5155 23.6514 C 19.8184 23.6361 20.1352 23.7923 20.2391 24.0936 L 20.2507 24.1288 C 20.5382 24.7908 19.8874 25.9397 19.6061 26.5523 L 18.1689 29.6344 C 17.9656 30.0634 17.8209 30.4913 17.2885 30.5749 Z" stroke-linecap="round" /></g></g></g></g></g></svg>