<svg xmlns="http://www.w3.org/2000/svg" width="16" height="16"  viewBox="0 0 16 16"><g transform="matrix(1 0 0 1 0 0)"  ><g style=""   ><g transform="matrix(0.67 0 0 0.67 8 8)"  ><path style="stroke: none; stroke-width: 1; stroke-dasharray: none; stroke-linecap: butt; stroke-dashoffset: 0; stroke-linejoin: miter; stroke-miterlimit: 4; fill: rgb(234,88,12); fill-rule: nonzero; opacity: 1;"  transform=" translate(-12, -12)" d="M 12.9951 3.90137 C 12.9724 3.67237 12.8712 3.45711 12.707 3.29297 C 12.5429 3.12883 12.3276 3.02757 12.0986 3.00488 L 12 3 C 11.7348 3 11.4805 3.10543 11.293 3.29297 C 11.1054 3.48051 11 3.73478 11 4 L 11 14.54 C 11 14.8973 10.8094 15.2276 10.5 15.4062 C 9.92812 15.7365 9.48123 16.2463 9.22852 16.8564 C 8.97592 17.4664 8.9317 18.1425 9.10254 18.7803 C 9.27345 19.4181 9.64995 19.9818 10.1738 20.3838 C 10.6978 20.7858 11.3396 21.0039 12 21.0039 C 12.6604 21.0039 13.3022 20.7858 13.8262 20.3838 C 14.3501 19.9818 14.7265 19.4181 14.8975 18.7803 C 15.0683 18.1425 15.0241 17.4664 14.7715 16.8564 C 14.5503 16.3225 14.1803 15.8652 13.708 15.5381 L 13.5 15.4062 C 13.1906 15.2276 13 14.8973 13 14.54 L 13 4 L 12.9951 3.90137 Z M 15 14.0039 C 15.7142 14.5395 16.2747 15.2593 16.6191 16.0908 C 17.0403 17.1076 17.1148 18.2348 16.8301 19.2979 C 16.5452 20.361 15.9171 21.3007 15.0439 21.9707 C 14.1707 22.6407 13.1007 23.0039 12 23.0039 C 10.8993 23.0039 9.82928 22.6407 8.95606 21.9707 C 8.08292 21.3007 7.45478 20.361 7.16992 19.2979 C 6.88519 18.2348 6.95972 17.1076 7.38086 16.0908 C 7.72527 15.2593 8.28581 14.5395 9 14.0039 L 9 4 C 9 3.20435 9.3163 2.44151 9.87891 1.87891 C 10.4415 1.3163 11.2044 1 12 1 L 12.2969 1.01465 C 12.9835 1.08291 13.6289 1.38671 14.1211 1.87891 C 14.6837 2.44152 15 3.20435 15 4 L 15 14.0039 Z" stroke-linecap="round" /></g></g></g></svg>