<svg xmlns="http://www.w3.org/2000/svg" width="16" height="16"  viewBox="0 0 16 16"><g transform="matrix(1 0 0 1 0 0)"  ><g style=""   ><g transform="matrix(0.67 0 0 0.67 8.33 7.67)"  ><path style="stroke: none; stroke-width: 1; stroke-dasharray: none; stroke-linecap: butt; stroke-dashoffset: 0; stroke-linejoin: miter; stroke-miterlimit: 4; fill: rgb(234,88,12); fill-rule: nonzero; opacity: 1;"  transform=" translate(-12.5, -11.5)" d="M 21.7178 1.04003 C 22.0647 0.937902 22.4455 1.03144 22.707 1.29296 C 23.0058 1.59176 23.0842 2.04582 22.9033 2.42772 L 13.9033 21.4277 C 13.7225 21.8094 13.3217 22.0367 12.9014 21.9951 C 12.4811 21.9534 12.1327 21.6519 12.0303 21.2422 L 10.1758 13.8242 L 2.75782 11.9697 C 2.34808 11.8673 2.04654 11.5189 2.00489 11.0986 C 1.96327 10.6783 2.19055 10.2775 2.57227 10.0967 L 21.5723 1.09667 L 21.7178 1.04003 Z M 5.95117 10.707 L 11.2422 12.0303 L 11.373 12.0723 C 11.6678 12.1907 11.8914 12.4443 11.9697 12.7578 L 13.292 18.0478 L 19.8984 4.10057 L 5.95117 10.707 Z" stroke-linecap="round" /></g></g></g></svg>