<svg xmlns="http://www.w3.org/2000/svg" width="16" height="16"  viewBox="0 0 16 16"><g transform="matrix(1 0 0 1 0 0)"  ><g style=""   ><g transform="matrix(0.67 0 0 0.67 8 5.01)"  ><path style="stroke: none; stroke-width: 1; stroke-dasharray: none; stroke-linecap: butt; stroke-dashoffset: 0; stroke-linejoin: miter; stroke-miterlimit: 4; fill: rgb(234,88,12); fill-rule: nonzero; opacity: 1;"  transform=" translate(-12, -7.52)" d="M 12 2.03711 C 14.7244 2.03711 17.353 3.04292 19.3818 4.86133 C 21.4105 6.67965 22.6969 9.18259 22.9941 11.8906 C 23.0251 12.1729 22.9345 12.4554 22.7451 12.667 C 22.5554 12.8786 22.2842 13 22 13 L 1.99998 13 C 1.71578 13 1.44455 12.8786 1.25487 12.667 C 1.06547 12.4554 0.974873 12.1729 1.00584 11.8906 L 1.07323 11.3857 C 1.46677 8.8726 2.71619 6.56608 4.61815 4.86133 C 6.64696 3.04292 9.27553 2.03711 12 2.03711 Z M 12 4.03711 C 9.7682 4.03711 7.61504 4.86101 5.95311 6.35059 C 4.57234 7.58816 3.61364 9.21339 3.18846 11 L 20.8115 11 C 20.3863 9.21339 19.4276 7.58816 18.0469 6.35059 C 16.3849 4.86101 14.2318 4.03711 12 4.03711 Z" stroke-linecap="round" /></g><g transform="matrix(0.67 0 0 0.67 9.33 11.33)"  ><path style="stroke: none; stroke-width: 1; stroke-dasharray: none; stroke-linecap: butt; stroke-dashoffset: 0; stroke-linejoin: miter; stroke-miterlimit: 4; fill: rgb(234,88,12); fill-rule: nonzero; opacity: 1;"  transform=" translate(-14, -17)" d="M 11 20 L 11 12 C 11 11.4477 11.4477 11 12 11 C 12.5523 11 13 11.4477 13 12 L 13 20 C 13 20.2652 13.1054 20.5195 13.293 20.707 C 13.4805 20.8946 13.7348 21 14 21 C 14.2652 21 14.5195 20.8946 14.707 20.707 C 14.8946 20.5195 15 20.2652 15 20 C 15 19.4477 15.4477 19 16 19 C 16.5523 19 17 19.4477 17 20 C 17 20.7957 16.6837 21.5585 16.1211 22.1211 C 15.5585 22.6837 14.7957 23 14 23 C 13.2043 23 12.4415 22.6837 11.8789 22.1211 C 11.3163 21.5585 11 20.7957 11 20 Z" stroke-linecap="round" /></g><g transform="matrix(0.67 0 0 0.67 8 1.67)"  ><path style="stroke: none; stroke-width: 1; stroke-dasharray: none; stroke-linecap: butt; stroke-dashoffset: 0; stroke-linejoin: miter; stroke-miterlimit: 4; fill: rgb(234,88,12); fill-rule: nonzero; opacity: 1;"  transform=" translate(-12, -2.5)" d="M 11 3 L 11 2 C 11 1.44772 11.4477 1 12 1 C 12.5523 1 13 1.44772 13 2 L 13 3 C 13 3.55228 12.5523 4 12 4 C 11.4477 4 11 3.55228 11 3 Z" stroke-linecap="round" /></g></g></g></svg>