<svg xmlns="http://www.w3.org/2000/svg" width="20" height="20"  viewBox="0 0 20 20"><g transform="matrix(1 0 0 1 0 0)"  ><g style=""   ><g transform="matrix(0.83 0 0 0.83 9.59 10.41)"  ><path style="stroke: none; stroke-width: 1; stroke-dasharray: none; stroke-linecap: butt; stroke-dashoffset: 0; stroke-linejoin: miter; stroke-miterlimit: 4; fill: rgb(234,88,12); fill-rule: nonzero; opacity: 1;"  transform=" translate(-11.5, -12.5)" d="M 6.11918 3.91015 C 8.04532 2.50673 10.4092 1.83721 12.7852 2.02245 C 15.1614 2.20782 17.3938 3.2356 19.0791 4.92089 C 20.7645 6.6062 21.7922 8.83867 21.9776 11.2148 C 22.1628 13.5908 21.4933 15.9547 20.0899 17.8809 C 18.6863 19.8071 16.641 21.1691 14.3223 21.7207 C 12.1442 22.2389 9.85991 22.0095 7.83305 21.0781 L 2.32133 22.9473 C 1.96088 23.0694 1.56214 22.9761 1.29301 22.707 C 1.0239 22.4379 0.930594 22.0391 1.05278 21.6787 L 2.92094 16.166 C 1.99005 14.1394 1.76127 11.8554 2.27934 9.67773 C 2.83097 7.35906 4.1929 5.3137 6.11918 3.91015 Z M 12.6299 4.01659 C 10.7291 3.86835 8.83787 4.40363 7.29692 5.52636 C 5.75589 6.6492 4.66596 8.28568 4.22465 10.1406 C 3.78339 11.9955 4.01948 13.9471 4.88969 15.6435 C 5.01315 15.8842 5.03408 16.1647 4.94731 16.4209 L 3.5977 20.4014 L 7.57915 19.0527 L 7.67583 19.0254 C 7.90454 18.9728 8.14577 19.0022 8.35649 19.1103 C 10.0529 19.9806 12.0045 20.2166 13.8594 19.7754 C 15.7144 19.3341 17.3508 18.2441 18.4737 16.7031 C 19.5964 15.1622 20.1317 13.2709 19.9834 11.3701 C 19.8351 9.46918 19.0133 7.6832 17.6651 6.33495 C 16.3168 4.98672 14.5308 4.16489 12.6299 4.01659 Z" stroke-linecap="round" /></g><g transform="matrix(0.83 0 0 0.83 10 8.33)"  ><path style="stroke: none; stroke-width: 1; stroke-dasharray: none; stroke-linecap: butt; stroke-dashoffset: 0; stroke-linejoin: miter; stroke-miterlimit: 4; fill: rgb(234,88,12); fill-rule: nonzero; opacity: 1;"  transform=" translate(-12, -10)" d="M 11 12 L 11 8 C 11 7.44772 11.4477 7 12 7 C 12.5523 7 13 7.44772 13 8 L 13 12 C 13 12.5523 12.5523 13 12 13 C 11.4477 13 11 12.5523 11 12 Z" stroke-linecap="round" /></g><g transform="matrix(0.83 0 0 0.83 10 13.33)"  ><path style="stroke: none; stroke-width: 1; stroke-dasharray: none; stroke-linecap: butt; stroke-dashoffset: 0; stroke-linejoin: miter; stroke-miterlimit: 4; fill: rgb(234,88,12); fill-rule: nonzero; opacity: 1;"  transform=" translate(-12, -16)" d="M 12.0098 15 L 12.1123 15.0049 C 12.6165 15.0561 13.0098 15.4822 13.0098 16 C 13.0098 16.5178 12.6165 16.9439 12.1123 16.9951 L 12.0098 17 L 12 17 C 11.4477 17 11 16.5523 11 16 C 11 15.4477 11.4477 15 12 15 L 12.0098 15 Z" stroke-linecap="round" /></g></g></g></svg>