<svg xmlns="http://www.w3.org/2000/svg" width="20" height="20"  viewBox="0 0 20 20"><g transform="matrix(1 0 0 1 0 0)"  ><g style=""   ><g transform="matrix(0.5 0 0 0.5 10 9.95)"  ><path style="stroke: none; stroke-width: 1; stroke-dasharray: none; stroke-linecap: butt; stroke-dashoffset: 0; stroke-linejoin: miter; stroke-miterlimit: 4; fill: rgb(69,94,169); fill-rule: nonzero; opacity: 1;"  transform=" translate(-16, -15.9)" d="M 32 16 C 31.99865980447321 7.488802772743286 25.334310959388105 0.46832735185540386 16.834703556712157 0.02430703952427038 C 8.335096154036204 -0.4197132728068631 0.9755183639511493 5.868150865035545 0.08735411890644684 14.332880294332776 C -0.8008101261382521 22.797609723630007 5.093341130414583 30.47612531123901 13.500000000000007 31.806 L 13.5 20.625 L 9.438 20.625 L 9.438 16 L 13.5 16 L 13.5 12.475 C 13.5 8.465 15.889 6.25 19.543 6.25 C 20.74300415475392 6.266642708810538 21.94018969777796 6.370920176544623 23.125 6.561999999999998 L 23.125 10.5 L 21.107 10.5 C 20.410417855963843 10.40748610421626 19.709568260571444 10.636792554257234 19.202386018788946 11.123158340393116 C 18.695203777006448 11.609524126529 18.436743552554827 12.300154212587008 18.5 13 L 18.5 16 L 22.938 16 L 22.227999999999998 20.625 L 18.5 20.625 L 18.5 31.806 C 26.275675988386453 30.575942593906703 32.001239572905746 23.872367925987298 32 15.999999999999995 Z" stroke-linecap="round" /></g></g></g></svg>