<svg xmlns="http://www.w3.org/2000/svg" width="8" height="8"  viewBox="0 0 8 8"><g transform="matrix(1 0 0 1 0 0)"  ><g style=""   ><g transform="matrix(0.33 0 0 0.33 3.32 4.25)"  ><path style="stroke: none; stroke-width: 1; stroke-dasharray: none; stroke-linecap: butt; stroke-dashoffset: 0; stroke-linejoin: miter; stroke-miterlimit: 4; fill: rgb(194,65,12); fill-rule: nonzero; opacity: 1;"  transform=" translate(-9.97, -12.75)" d="M 12.1182 8.00723 C 12.6216 8.06654 13.0083 8.49832 13 9.01602 C 12.9911 9.56824 12.5356 10.0083 11.9834 9.99942 L 11.7334 10.0063 C 11.1529 10.0455 10.5941 10.2529 10.127 10.6059 C 9.59314 11.0092 9.20963 11.5795 9.03712 12.226 C 8.86467 12.8727 8.91358 13.5594 9.17579 14.1752 C 9.40526 14.7138 9.78652 15.1716 10.2705 15.4945 L 10.4834 15.6244 L 10.5713 15.6791 C 10.9875 15.968 11.1255 16.5308 10.875 16.9838 C 10.6245 17.4368 10.0744 17.6192 9.60841 17.4203 L 9.51564 17.3754 L 9.33595 17.2699 C 8.44559 16.728 7.7447 15.9206 7.33497 14.9584 C 6.89798 13.9321 6.81714 12.7891 7.1045 11.7113 C 7.39192 10.6335 8.03187 9.68261 8.92189 9.01016 C 9.81173 8.33793 10.9006 7.98254 12.0156 8.0004 L 12.1182 8.00723 Z" stroke-linecap="round" /></g><g transform="matrix(0.33 0 0 0.33 4 1.33)"  ><path style="stroke: none; stroke-width: 1; stroke-dasharray: none; stroke-linecap: butt; stroke-dashoffset: 0; stroke-linejoin: miter; stroke-miterlimit: 4; fill: rgb(194,65,12); fill-rule: nonzero; opacity: 1;"  transform=" translate(-12, -4)" d="M 11 5 L 11 3 C 11 2.44772 11.4477 2 12 2 C 12.5523 2 13 2.44772 13 3 L 13 5 C 13 5.55228 12.5523 6 12 6 C 11.4477 6 11 5.55228 11 5 Z" stroke-linecap="round" /></g><g transform="matrix(0.33 0 0 0.33 1.97 6.37)"  ><path style="stroke: none; stroke-width: 1; stroke-dasharray: none; stroke-linecap: butt; stroke-dashoffset: 0; stroke-linejoin: miter; stroke-miterlimit: 4; fill: rgb(194,65,12); fill-rule: nonzero; opacity: 1;"  transform=" translate(-5.9, -19.1)" d="M 5.96855 17.6246 C 6.36133 17.3039 6.94119 17.3267 7.30741 17.6929 C 7.67328 18.059 7.6959 18.6381 7.37577 19.0308 L 7.30741 19.107 L 5.90702 20.5074 C 5.51655 20.8976 4.88344 20.8976 4.49296 20.5074 C 4.1025 20.1169 4.10263 19.4838 4.49296 19.0933 L 5.89335 17.6929 L 5.96855 17.6246 Z" stroke-linecap="round" /></g><g transform="matrix(0.33 0 0 0.33 6 4)"  ><path style="stroke: none; stroke-width: 1; stroke-dasharray: none; stroke-linecap: butt; stroke-dashoffset: 0; stroke-linejoin: miter; stroke-miterlimit: 4; fill: rgb(194,65,12); fill-rule: nonzero; opacity: 1;"  transform=" translate(-18, -12)" d="M 19 4 C 19 3.73478 18.8946 3.48051 18.707 3.29297 C 18.5429 3.12883 18.3276 3.02757 18.0986 3.00488 L 18 3 C 17.7348 3 17.4805 3.10543 17.293 3.29297 C 17.1054 3.48051 17 3.73478 17 4 L 17 14.54 C 17 14.8973 16.8094 15.2276 16.5 15.4062 C 15.9281 15.7365 15.4812 16.2463 15.2285 16.8564 C 14.9759 17.4664 14.9317 18.1425 15.1025 18.7803 C 15.2735 19.4181 15.65 19.9818 16.1738 20.3838 C 16.6978 20.7858 17.3396 21.0039 18 21.0039 C 18.6604 21.0039 19.3022 20.7858 19.8262 20.3838 C 20.35 19.9818 20.7265 19.4181 20.8975 18.7803 C 21.0683 18.1425 21.0241 17.4664 20.7715 16.8564 C 20.5503 16.3225 20.1803 15.8652 19.708 15.5381 L 19.5 15.4062 C 19.1906 15.2276 19 14.8973 19 14.54 L 19 4 Z M 21 14.0039 C 21.7142 14.5395 22.2747 15.2593 22.6191 16.0908 C 23.0403 17.1076 23.1148 18.2348 22.8301 19.2979 C 22.5452 20.361 21.9171 21.3007 21.0439 21.9707 C 20.1707 22.6407 19.1007 23.0039 18 23.0039 C 16.8993 23.0039 15.8293 22.6407 14.9561 21.9707 C 14.0829 21.3007 13.4548 20.361 13.1699 19.2979 C 12.8852 18.2348 12.9597 17.1076 13.3809 16.0908 C 13.7253 15.2593 14.2858 14.5395 15 14.0039 L 15 4 C 15 3.20435 15.3163 2.44151 15.8789 1.87891 C 16.4415 1.3163 17.2044 1 18 1 L 18.2969 1.01465 C 18.9835 1.08291 19.6289 1.38671 20.1211 1.87891 C 20.6837 2.44152 21 3.20435 21 4 L 21 14.0039 Z" stroke-linecap="round" /></g><g transform="matrix(0.33 0 0 0.33 1 4.33)"  ><path style="stroke: none; stroke-width: 1; stroke-dasharray: none; stroke-linecap: butt; stroke-dashoffset: 0; stroke-linejoin: miter; stroke-miterlimit: 4; fill: rgb(194,65,12); fill-rule: nonzero; opacity: 1;"  transform=" translate(-3, -13)" d="M 4 12 C 4.55228 12 5 12.4477 5 13 C 5 13.5523 4.55228 14 4 14 L 2 14 C 1.44772 14 1 13.5523 1 13 C 1 12.4477 1.44772 12 2 12 L 4 12 Z" stroke-linecap="round" /></g><g transform="matrix(0.33 0 0 0.33 1.88 2.21)"  ><path style="stroke: none; stroke-width: 1; stroke-dasharray: none; stroke-linecap: butt; stroke-dashoffset: 0; stroke-linejoin: miter; stroke-miterlimit: 4; fill: rgb(194,65,12); fill-rule: nonzero; opacity: 1;"  transform=" translate(-5.64, -6.63)" d="M 4.22297 5.22291 C 4.58909 4.85679 5.16809 4.8342 5.56086 5.15455 L 5.63703 5.22291 L 7.04719 6.63307 L 7.11555 6.70924 C 7.43575 7.10201 7.41325 7.68107 7.04719 8.04713 C 6.68113 8.41319 6.10207 8.43569 5.7093 8.11549 L 5.63313 8.04713 L 4.22297 6.63697 L 4.15461 6.5608 C 3.83426 6.16803 3.85686 5.58903 4.22297 5.22291 Z" stroke-linecap="round" /></g></g></g></svg>