<svg xmlns="http://www.w3.org/2000/svg" width="28" height="28"  viewBox="0 0 28 28"><g transform="matrix(1 0 0 1 0 0)"  ><g style=""   ><g transform="matrix(1.17 0 0 1.17 14 14)"  ><path style="stroke: none; stroke-width: 1; stroke-dasharray: none; stroke-linecap: butt; stroke-dashoffset: 0; stroke-linejoin: miter; stroke-miterlimit: 4; fill: rgb(103,63,49); fill-rule: nonzero; opacity: 1;"  transform=" translate(-12, -12)" d="M 21 9 C 21 8.73478 20.8946 8.48051 20.707 8.29297 C 20.5429 8.12883 20.3276 8.02757 20.0986 8.00488 L 20 8 L 17 8 C 16.7033 8 16.4214 7.86856 16.2314 7.64062 L 14.0312 5 L 9.96875 5 L 7.76855 7.64062 C 7.57856 7.86856 7.29674 8 7 8 L 4 8 C 3.73478 8 3.48051 8.10543 3.29297 8.29297 C 3.10543 8.48051 3 8.73478 3 9 L 3 18 C 3 18.2652 3.10543 18.5195 3.29297 18.707 C 3.48051 18.8946 3.73478 19 4 19 L 20 19 C 20.2652 19 20.5195 18.8946 20.707 18.707 C 20.8946 18.5195 21 18.2652 21 18 L 21 9 Z M 23 18 C 23 18.7957 22.6837 19.5585 22.1211 20.1211 C 21.5585 20.6837 20.7957 21 20 21 L 4 21 C 3.20435 21 2.44152 20.6837 1.87891 20.1211 C 1.3163 19.5585 1 18.7956 1 18 L 1 9 C 1 8.20435 1.3163 7.44152 1.87891 6.87891 C 2.44152 6.3163 3.20435 6 4 6 L 6.53125 6 L 8.73145 3.35938 L 8.80762 3.2793 C 8.99282 3.10135 9.24033 3 9.5 3 L 14.5 3 L 14.6104 3.00586 C 14.8656 3.03418 15.1023 3.15991 15.2686 3.35938 L 17.4688 6 L 20 6 L 20.2969 6.01465 C 20.9835 6.08291 21.6289 6.38671 22.1211 6.87891 C 22.6837 7.44152 23 8.20435 23 9 L 23 18 Z" stroke-linecap="round" /></g><g transform="matrix(1.17 0 0 1.17 14 15.17)"  ><path style="stroke: none; stroke-width: 1; stroke-dasharray: none; stroke-linecap: butt; stroke-dashoffset: 0; stroke-linejoin: miter; stroke-miterlimit: 4; fill: rgb(103,63,49); fill-rule: nonzero; opacity: 1;"  transform=" translate(-12, -13)" d="M 14 13 C 14 11.8954 13.1046 11 12 11 C 10.8954 11 10 11.8954 10 13 C 10 14.1046 10.8954 15 12 15 C 13.1046 15 14 14.1046 14 13 Z M 16 13 C 16 15.2091 14.2091 17 12 17 C 9.79086 17 8 15.2091 8 13 C 8 10.7909 9.79086 9 12 9 C 14.2091 9 16 10.7909 16 13 Z" stroke-linecap="round" /></g></g></g></svg>