<svg xmlns="http://www.w3.org/2000/svg" viewBox="0 0 30 30"><g transform="matrix(0.63 0 0 0.63 0 0)"  ><g style=""   ><g transform="matrix(1 0 0 1 24 24)"  ><path style="stroke: none; stroke-width: 1; stroke-dasharray: none; stroke-linecap: butt; stroke-dashoffset: 0; stroke-linejoin: miter; stroke-miterlimit: 4; fill: rgb(0,0,0); fill-rule: nonzero; opacity: 1;"  transform=" translate(-23.99, -23.95)" d="M 25.1926 42.9807 L 21.0502 42.9671 L 18.8018 42.8229 C 18.6391 42.8104 18.4795 42.7699 18.3173 42.7525 L 16.9219 42.5774 C 15.6513 42.3796 14.2074 42.1906 13.4909 40.9752 C 13.1929 40.4699 13.2342 40.0174 13.2341 39.4489 L 13.2398 32.672 L 10.9455 43.1324 C 10.8284 43.647 10.3397 43.5264 9.92621 43.5229 L 8.65984 43.5001 C 7.93079 43.4523 7.19302 43.35 6.47129 43.2388 C 5.40793 43.0751 5.66546 42.8305 5.79751 42.0007 L 8.13948 26.2969 L 9.27774 17.7774 C 9.68724 14.9368 10.0266 11.5338 12.9152 10.0727 C 13.515 9.76929 14.1542 9.59069 14.8003 9.41688 C 15.7055 9.17341 17.3706 8.96383 17.6259 7.85065 L 17.6346 7.8109 C 17.7226 7.42122 17.5972 6.99288 17.7042 6.61563 C 18.2468 4.70369 21.3937 4.49227 22.999 4.36938 C 23.5791 4.34972 24.1751 4.32928 24.7538 4.36183 L 25.8076 4.44251 C 27.3469 4.60607 29.8887 4.71297 30.2586 6.60213 C 30.3424 7.03019 30.2202 7.44265 30.3391 7.87516 L 30.375 7.99226 C 30.7907 9.02791 32.3112 9.1774 33.2498 9.42035 C 33.7803 9.55769 34.3128 9.72194 34.8163 9.93902 C 36.395 10.6197 37.6853 12.3722 38.0476 14.0527 L 38.2579 14.8834 C 38.3572 15.1995 38.3825 15.5427 38.4421 15.8673 L 39.8001 25.7164 L 40.5009 30.9727 L 42.132 41.6224 C 42.1882 41.9259 42.2217 42.2364 42.2823 42.5391 C 42.4253 43.2537 42.0523 43.2385 41.4234 43.3404 L 40.4486 43.4837 C 40.1821 43.5103 39.912 43.5098 39.6444 43.5219 L 38.0873 43.5642 C 36.8945 43.5652 37.1014 43.4614 36.8495 42.3699 L 34.7236 32.4852 C 34.6989 32.6984 34.7227 32.9091 34.7329 33.1216 L 34.7544 39.6381 C 34.7548 40.1155 34.7696 40.438 34.5346 40.8731 L 34.5142 40.9102 C 33.9559 41.9396 32.9167 42.2009 31.8571 42.3868 L 29.7703 42.6645 C 28.2542 42.8234 26.7179 42.9574 25.1926 42.9807 Z M 23.0776 5.48744 L 21.0398 5.72191 C 20.6646 5.78365 20.257 5.86263 19.9088 6.01699 L 20.0954 6.12377 C 21.2641 6.9003 23.7132 7.1238 25.149 6.97919 L 25.805 6.91924 C 26.4197 6.82122 27.0452 6.67924 27.6084 6.40582 L 28.3519 6.0011 C 27.9825 5.87252 27.5898 5.81149 27.2041 5.75397 L 26.1852 5.61602 C 25.1435 5.51196 24.1304 5.41704 23.0776 5.48744 Z M 18.8642 6.69147 C 18.6261 6.85952 18.7772 7.73543 18.7163 8.05085 L 18.7094 8.08807 C 18.5634 8.85565 18.4878 8.58902 19.0395 9.4129 C 20.1861 11.1251 22.8422 11.2379 24.7301 11.1814 L 25.5536 11.1658 C 27.0521 11.0633 27.9962 10.718 28.8467 9.50979 L 29.4116 8.68647 L 29.1996 7.69301 C 29.1467 7.40135 29.1698 7.09155 29.1526 6.79544 L 29.136 6.81654 C 28.8488 7.16965 27.6057 7.63638 27.1745 7.76069 C 24.8139 8.44122 21.1327 8.35052 19.1567 6.85465 C 19.0554 6.77801 19.0019 6.66958 18.8642 6.69147 Z M 17.8206 9.52038 C 17.1976 9.88315 16.5675 10.1441 15.8697 10.3329 C 14.8117 10.6191 13.6673 10.7657 12.7786 11.4664 C 11.6521 12.3549 11.042 13.8958 10.7833 15.2579 L 9.42076 25.0545 L 8.48945 31.8997 L 6.98279 41.6873 C 6.95584 41.836 6.89335 42.0325 6.91567 42.1826 L 9.9902 42.4142 L 11.97 33.2272 L 12.8696 30.3513 C 13.0457 29.8704 13.1086 29.6655 13.1266 29.1642 L 13.1406 20.7431 C 13.1412 20.516 13.0843 20.2157 13.2219 20.0186 L 13.2433 19.9864 C 13.5128 19.593 13.9567 19.6644 14.1706 20.0391 L 14.1839 20.0604 C 14.3094 20.268 14.2311 20.7385 14.2315 20.9764 L 14.222 28.5641 C 14.2411 29.0214 14.3142 29.3072 14.3144 29.7841 L 14.3157 39.4866 C 14.3158 40.1769 14.3033 40.519 15.0058 40.9211 C 15.3699 41.1295 15.7786 41.1971 16.1835 41.2769 L 18.6373 41.6261 L 20.8765 41.7536 C 21.7031 41.8616 22.5507 41.8292 23.3826 41.8294 L 25.9259 41.8204 L 31.0837 41.3706 C 31.4461 41.3235 31.8151 41.2795 32.1693 41.1863 C 34.1142 40.7506 33.6767 39.6487 33.6761 38.0639 L 33.7254 20.5851 C 33.7273 20.4322 33.7129 20.2415 33.758 20.0957 C 33.886 19.6826 34.4264 19.5968 34.6933 19.9206 L 34.7184 19.9503 C 34.8626 20.1342 34.7986 20.4786 34.7992 20.6969 L 34.8018 26.3283 C 34.8149 26.6258 34.8774 26.9219 34.9283 27.2138 L 35.1101 28.3126 C 35.1346 28.4517 35.1339 28.5959 35.1586 28.7344 L 35.5036 30.879 C 35.6208 31.5749 35.8184 32.2585 35.9636 32.9484 L 36.2367 34.1485 C 36.2968 34.3973 36.3373 34.6553 36.4109 34.9005 L 37.9846 42.4271 L 41.1166 42.2823 L 39.7734 33.6446 L 37.4363 16.5001 C 37.1041 14.5321 36.673 12.5605 34.9562 11.2955 C 34.0054 10.5949 32.6957 10.5056 31.5929 10.1602 C 31.0847 10.001 30.6093 9.76432 30.1116 9.58001 C 28.7564 12.0105 27.1486 12.3095 24.4072 12.3098 C 21.846 12.31 19.1059 12.0371 17.8206 9.52038 Z" stroke-linecap="round" /></g></g></g></svg>