<svg xmlns="http://www.w3.org/2000/svg" viewBox="0 0 30 30"><g transform="matrix(0.63 0 0 0.63 0 0)"  ><g style=""   ><g transform="matrix(1 0 0 1 24 24)"  ><path style="stroke: none; stroke-width: 1; stroke-dasharray: none; stroke-linecap: butt; stroke-dashoffset: 0; stroke-linejoin: miter; stroke-miterlimit: 4; fill: rgb(0,0,0); fill-rule: nonzero; opacity: 1;"  transform=" translate(-24.15, -24.06)" d="M 20.2385 40.4815 L 17.1553 40.4806 C 15.8917 40.4778 14.6691 39.8082 14.4606 38.4609 C 14.3841 37.9672 14.4311 37.4165 14.4319 36.9152 L 14.4355 23.8865 C 14.4143 23.9343 14.4004 23.9658 14.3557 23.9958 L 14.2823 24.0432 C 14.1769 24.1157 14.0882 24.2278 14.0001 24.3212 L 13.5191 24.8298 C 12.2619 26.1685 11.7603 26.2785 12.0441 28.1521 L 12.5383 32.168 C 12.5924 32.8636 12.6928 33.6528 11.7512 33.7707 L 8.66653 34.045 C 7.85976 34.1379 7.15401 34.0603 6.80868 33.1481 C 6.69497 32.8478 6.68025 32.4944 6.62747 32.1797 L 5.90648 27.0586 C 5.56992 23.8548 6.06361 22.2028 8.12179 19.8812 L 11.3276 16.2294 C 11.7996 15.6235 12.2404 14.9908 12.6474 14.3396 C 13.897 12.3402 13.6007 12.1973 15.956 11.3536 L 17.3322 10.8356 C 17.6542 10.7157 17.6195 10.757 17.6195 10.3999 L 17.6212 9.6827 C 17.6261 8.71867 18.2299 7.82219 19.2208 7.66417 L 19.2658 7.65714 C 19.577 7.60422 19.806 7.68916 20.1022 7.70636 C 20.4653 7.72745 20.836 7.71189 21.2002 7.71198 L 27.7454 7.70547 C 27.9535 7.69534 28.1564 7.64303 28.3661 7.62794 C 29.1166 7.55214 29.9069 8.11694 30.2013 8.77694 L 30.264 8.92919 C 30.3689 9.29823 30.3779 9.49103 30.3778 9.88047 L 30.3795 10.8151 C 30.4815 10.8987 30.6765 10.9116 30.8058 10.9558 L 31.9604 11.3577 C 33.2712 11.7894 34.1406 12.0807 34.7998 13.4457 C 34.9244 13.7039 35.0205 13.9721 35.1556 14.2266 C 35.9414 15.7063 37.2115 16.9535 38.3465 18.1614 L 39.8812 19.8481 C 40.5502 20.5928 41.3178 21.3591 41.7312 22.287 L 42.095 23.1914 C 43.0416 25.4125 42.0349 28.9005 41.5354 31.1133 C 41.3151 32.0896 41.2259 33.8358 40.017 34.082 L 39.9895 34.0874 C 39.6565 34.1561 39.3082 34.0648 38.9774 34.0292 L 36.4179 33.7613 C 34.6098 33.575 35.2769 32.2192 35.5647 30.9485 L 35.9611 28.9004 C 36.4356 26.4938 36.3753 26.5613 34.7532 25.032 C 34.3799 24.6801 34.0008 24.2866 33.6585 23.902 L 33.6121 37.1696 C 33.6126 37.5423 33.6599 37.9879 33.5878 38.3522 C 33.3592 39.5065 32.5233 40.2519 31.3757 40.455 C 31.0165 40.5185 30.6031 40.4811 30.2375 40.4812 L 20.2385 40.4815 Z M 19.3764 9.18995 C 18.9871 9.31553 19.0763 9.47387 19.0779 9.84133 L 19.0828 10.793 C 19.0839 11.003 19.041 11.3129 19.1224 11.507 C 19.8171 13.1645 21.4464 13.677 23.1224 13.8123 C 23.1862 13.8145 23.2499 13.8151 23.313 13.8255 L 23.3141 10.6427 C 22.8884 10.4843 22.4752 10.3094 22.0389 10.1773 C 21.3933 9.98177 20.6138 9.88009 20.0275 9.53434 C 19.8151 9.40905 19.6346 9.18522 19.3764 9.18995 Z M 28.4856 9.19923 C 28.312 9.31061 28.1691 9.46816 27.9846 9.55895 C 27.0549 10.0162 25.868 10.0824 24.7728 10.6518 L 24.7559 13.7871 L 25.2136 13.7347 C 26.9828 13.5711 28.0277 13.0598 28.9477 11.4978 L 28.9435 10.078 C 28.9426 9.77406 29.0176 9.13009 28.5149 9.19319 L 28.4856 9.19923 Z M 23.568 9.23214 C 23.9874 9.43848 24.0931 9.64783 24.4873 9.38523 L 24.6005 9.29298 C 24.4162 9.19337 23.7759 9.22577 23.568 9.23214 Z M 17.8643 12.2695 L 16.4347 12.7891 C 15.3696 13.1681 14.9359 13.207 14.3616 14.2112 L 12.5567 16.9789 C 11.9969 17.7234 11.3972 18.4598 10.7689 19.1484 L 9.09103 20.9807 C 7.04962 23.3039 7.12233 24.5533 7.45008 27.6353 L 8.09831 32.2211 C 8.11593 32.3303 8.11279 32.4589 8.15123 32.5613 L 11.1313 32.3658 C 11.0864 32.1196 11.0825 31.8699 11.0521 31.622 L 10.6213 28.5173 C 10.5365 27.9276 10.4125 27.3533 10.5391 26.7539 L 10.5476 26.7118 C 10.9904 24.5829 13.522 23.3093 14.5474 21.4022 C 14.793 20.9455 14.9037 20.235 15.5978 20.373 C 16.4912 20.5505 16.0053 22.4181 15.9376 23.0391 L 15.863 31.8926 L 15.8586 32.8503 C 15.8576 33.0567 15.8434 33.2621 15.873 33.4669 L 17.6897 33.0399 C 18.9792 32.7377 19.4234 32.651 19.4252 31.2328 L 19.4262 30.4116 C 19.4265 30.2886 19.4055 30.1121 19.4395 29.9945 C 19.6301 29.3357 20.6737 29.2586 20.8078 29.9844 C 20.855 30.2394 20.8221 30.5495 20.8228 30.8115 L 20.8236 31.7463 C 20.8204 33.8416 19.1716 34.234 17.451 34.6019 L 15.8969 34.9506 C 15.8415 34.9631 15.8659 35.0182 15.8638 35.0712 L 15.8607 37.3329 C 15.861 37.5847 15.8344 37.8608 15.8631 38.1094 L 15.8845 38.2142 C 15.9409 38.4746 16.11 38.7152 16.3361 38.8579 L 16.5452 38.9664 C 16.8037 39.0965 17.2722 39.0164 17.5556 39.0164 L 23.3212 39.0123 L 23.3349 15.2151 C 21.362 15.0391 19.4138 14.6929 18.2594 12.8499 L 18.054 12.503 C 18.0111 12.4233 17.9763 12.3197 17.9053 12.2632 L 17.8643 12.2695 Z M 30.0904 12.2869 C 29.3106 13.8508 27.9644 14.6556 26.3147 15.008 L 25.6232 15.1348 C 25.3551 15.1955 25.0437 15.1718 24.7688 15.175 C 24.7213 15.6939 24.7556 16.2417 24.7559 16.7635 L 24.756 38.0956 C 24.7559 38.3882 24.7227 38.7293 24.7647 39.0165 L 30.6263 39.0155 C 31.9689 39.0142 32.177 38.8176 32.179 37.3653 C 32.1801 36.5763 32.1455 35.7704 32.1884 34.9841 L 29.991 34.495 C 28.3647 34.0996 27.2125 33.4634 27.2073 31.5141 L 27.207 30.6093 C 27.2074 30.4276 27.1725 30.1384 27.2227 29.9707 C 27.3554 29.5267 27.948 29.3112 28.3205 29.5937 L 28.3491 29.6145 C 28.5058 29.7309 28.5447 29.8419 28.6081 30.0117 L 28.6282 30.0503 C 28.6861 30.168 28.666 30.3816 28.6662 30.5127 L 28.6666 31.5246 C 28.668 32.553 29.1373 32.7873 30.1231 33.0146 L 32.1754 33.5258 L 32.179 31.2762 L 32.1779 22.7664 C 32.1675 22.0631 31.6644 20.6947 32.3818 20.4258 L 32.4095 20.4152 C 33.1634 20.1322 33.2889 20.8488 33.561 21.3277 C 34.0393 22.1697 34.7251 22.9093 35.403 23.5914 C 36.0766 24.2692 36.9642 24.9186 37.3416 25.8237 L 37.5186 26.2583 C 37.9042 27.177 37.6024 28.2055 37.4146 29.131 L 36.8009 32.3445 L 39.7089 32.6273 C 39.772 32.4905 39.7869 32.3042 39.8231 32.1552 L 40.6707 28.3347 C 41.2477 25.3068 41.3632 23.797 39.3493 21.4357 L 35.4701 17.2003 C 34.7996 16.4388 34.2016 15.5692 33.73 14.6707 C 33.3636 13.9724 33.4275 13.5238 32.6065 13.1519 L 30.0904 12.2869 Z" stroke-linecap="round" /></g></g></g></svg>