<svg xmlns="http://www.w3.org/2000/svg" width="20" height="20"  viewBox="0 0 20 20"><g transform="matrix(1 0 0 1 0 0)"  ><g style=""   ><g transform="matrix(0.5 0 0 0.5 9.88 10)"  ><path style="stroke: none; stroke-width: 1; stroke-dasharray: none; stroke-linecap: butt; stroke-dashoffset: 0; stroke-linejoin: miter; stroke-miterlimit: 4; fill: rgb(237,112,45); fill-rule: nonzero; opacity: 1;"  transform=" translate(-15.77, -16)" d="M 30.383 13.273 L 16.065 13.273 L 16.065 19.409 L 24.18 19.409 C 22.88 23.5 19.68 24.863999999999997 16 24.863999999999997 C 12.081475649769654 24.869164810754782 8.624527944803457 22.30079885822015 7.49830741802532 18.547601943098073 C 6.37208689124718 14.794405027975998 7.843865772421257 10.747077758537543 11.117862199953095 8.593985296257518 C 14.391858627484932 6.440892833977493 18.69109482071763 6.693002444679276 21.691000000000006 9.214000000000002 L 26.15 4.967 C 21.2113432953932 0.41808317779592397 13.851287981102224 -0.29474299657337166 8.131477084794152 3.2218942624802827 C 2.4116661884860804 6.738531521533938 -0.27442887018876405 13.627902227197218 1.5555121904574314 20.088110429403244 C 3.385453251103627 26.54831863160927 9.285616642139303 31.005515883624387 16.000000000000007 31 C 24.271 31 31.747 25.545 30.383 13.273 Z" stroke-linecap="round" /></g></g></g></svg>