<svg xmlns="http://www.w3.org/2000/svg" width="12" height="12"  viewBox="0 0 12 12"><g transform="matrix(1 0 0 1 0 0)"  ><g style=""   ><g transform="matrix(0.43 0 0 0.43 8.16 3.28)"  ><path style="stroke: rgb(103,63,49); stroke-width: 2.4; stroke-dasharray: none; stroke-linecap: butt; stroke-dashoffset: 0; stroke-linejoin: miter; stroke-miterlimit: 10; fill: none; fill-rule: nonzero; opacity: 1;"  transform=" translate(-17.05, -5.65)" d="M 11.1 6 C 11.6 3.2 14 1 17 1 C 20.3 1 23 3.7 23 7 C 23 8.2 22.6 9.4 22 10.3" stroke-linecap="round" /></g><g transform="matrix(0.43 0 0 0.43 6 5.79)"  ><path style="stroke: rgb(103,63,49); stroke-width: 2.4; stroke-dasharray: none; stroke-linecap: square; stroke-dashoffset: 0; stroke-linejoin: miter; stroke-miterlimit: 10; fill: none; fill-rule: nonzero; opacity: 1;"  transform=" translate(-12, -11.5)" d="M 5 17 C 2.8 17 1 15.2 1 13 C 1 10.8 2.8 9 5 9 C 5.5 9 6 9.1 6.5 9.3 C 7.3 7.4 9.3 6 11.5 6 C 13.9 6 16 7.6 16.7 9.7 C 17.4 9.3 18.1 9 19 9 C 21.2 9 23 10.8 23 13 C 23 15.2 21.2 17 19 17" stroke-linecap="round" /></g><g transform="matrix(0.43 0 0 0.43 6 9.64)"  ><line style="stroke: rgb(103,63,49); stroke-width: 2.4; stroke-dasharray: none; stroke-linecap: square; stroke-dashoffset: 0; stroke-linejoin: miter; stroke-miterlimit: 10; fill: none; fill-rule: nonzero; opacity: 1;"  x1="0" y1="2.5" x2="0" y2="-2.5" /></g><g transform="matrix(0.43 0 0 0.43 4.29 8.36)"  ><line style="stroke: rgb(103,63,49); stroke-width: 2.4; stroke-dasharray: none; stroke-linecap: square; stroke-dashoffset: 0; stroke-linejoin: miter; stroke-miterlimit: 10; fill: none; fill-rule: nonzero; opacity: 1;"  x1="0" y1="2.5" x2="0" y2="-2.5" /></g><g transform="matrix(0.43 0 0 0.43 7.71 8.36)"  ><line style="stroke: rgb(103,63,49); stroke-width: 2.4; stroke-dasharray: none; stroke-linecap: square; stroke-dashoffset: 0; stroke-linejoin: miter; stroke-miterlimit: 10; fill: none; fill-rule: nonzero; opacity: 1;"  x1="0" y1="2.5" x2="0" y2="-2.5" /></g></g></g></svg>