<svg xmlns="http://www.w3.org/2000/svg" width="24" height="24"  viewBox="0 0 24 24"><g transform="matrix(1 0 0 1 0 0)"  ><g style=""   ><g transform="matrix(1 0 0 1 12 6)"  ><path style="stroke: none; stroke-width: 1; stroke-dasharray: none; stroke-linecap: butt; stroke-dashoffset: 0; stroke-linejoin: miter; stroke-miterlimit: 4; fill: rgb(249,115,22); fill-rule: nonzero; opacity: 1;"  transform=" translate(-12, -6)" d="M 11 10 L 11 2 C 11 1.44772 11.4477 1 12 1 C 12.5523 1 13 1.44772 13 2 L 13 10 C 13 10.5523 12.5523 11 12 11 C 11.4477 11 11 10.5523 11 10 Z" stroke-linecap="round" /></g><g transform="matrix(1 0 0 1 5.64 11.64)"  ><path style="stroke: none; stroke-width: 1; stroke-dasharray: none; stroke-linecap: butt; stroke-dashoffset: 0; stroke-linejoin: miter; stroke-miterlimit: 4; fill: rgb(249,115,22); fill-rule: nonzero; opacity: 1;"  transform=" translate(-5.64, -11.64)" d="M 4.22297 10.223 C 4.58909 9.85686 5.16809 9.83426 5.56086 10.1546 L 5.63703 10.223 L 7.04719 11.6331 L 7.11555 11.7093 C 7.43575 12.1021 7.41325 12.6811 7.04719 13.0472 C 6.68113 13.4133 6.10207 13.4358 5.7093 13.1155 L 5.63313 13.0472 L 4.22297 11.637 L 4.15461 11.5609 C 3.83426 11.1681 3.85686 10.5891 4.22297 10.223 Z" stroke-linecap="round" /></g><g transform="matrix(1 0 0 1 3 18)"  ><path style="stroke: none; stroke-width: 1; stroke-dasharray: none; stroke-linecap: butt; stroke-dashoffset: 0; stroke-linejoin: miter; stroke-miterlimit: 4; fill: rgb(249,115,22); fill-rule: nonzero; opacity: 1;"  transform=" translate(-3, -18)" d="M 4 17 C 4.55228 17 5 17.4477 5 18 C 5 18.5523 4.55228 19 4 19 L 2 19 C 1.44772 19 1 18.5523 1 18 C 1 17.4477 1.44772 17 2 17 L 4 17 Z" stroke-linecap="round" /></g><g transform="matrix(1 0 0 1 21 18)"  ><path style="stroke: none; stroke-width: 1; stroke-dasharray: none; stroke-linecap: butt; stroke-dashoffset: 0; stroke-linejoin: miter; stroke-miterlimit: 4; fill: rgb(249,115,22); fill-rule: nonzero; opacity: 1;"  transform=" translate(-21, -18)" d="M 22 17 C 22.5523 17 23 17.4477 23 18 C 23 18.5523 22.5523 19 22 19 L 20 19 C 19.4477 19 19 18.5523 19 18 C 19 17.4477 19.4477 17 20 17 L 22 17 Z" stroke-linecap="round" /></g><g transform="matrix(1 0 0 1 18.37 11.64)"  ><path style="stroke: none; stroke-width: 1; stroke-dasharray: none; stroke-linecap: butt; stroke-dashoffset: 0; stroke-linejoin: miter; stroke-miterlimit: 4; fill: rgb(249,115,22); fill-rule: nonzero; opacity: 1;"  transform=" translate(-18.37, -11.64)" d="M 18.3631 10.223 C 18.7536 9.83252 19.3867 9.83247 19.7772 10.223 C 20.1676 10.6135 20.1676 11.2465 19.7772 11.637 L 18.367 13.0472 C 17.9765 13.4376 17.3435 13.4376 16.9529 13.0472 C 16.5625 12.6567 16.5625 12.0237 16.9529 11.6331 L 18.3631 10.223 Z" stroke-linecap="round" /></g><g transform="matrix(1 0 0 1 12 22)"  ><path style="stroke: none; stroke-width: 1; stroke-dasharray: none; stroke-linecap: butt; stroke-dashoffset: 0; stroke-linejoin: miter; stroke-miterlimit: 4; fill: rgb(249,115,22); fill-rule: nonzero; opacity: 1;"  transform=" translate(-12, -22)" d="M 22 21 C 22.5523 21 23 21.4477 23 22 C 23 22.5523 22.5523 23 22 23 L 2 23 C 1.44772 23 1 22.5523 1 22 C 1 21.4477 1.44772 21 2 21 L 22 21 Z" stroke-linecap="round" /></g><g transform="matrix(1 0 0 1 12 8)"  ><path style="stroke: none; stroke-width: 1; stroke-dasharray: none; stroke-linecap: butt; stroke-dashoffset: 0; stroke-linejoin: miter; stroke-miterlimit: 4; fill: rgb(249,115,22); fill-rule: nonzero; opacity: 1;"  transform=" translate(-12, -8)" d="M 15.3692 5.22462 C 15.7619 4.90427 16.3409 4.92686 16.707 5.29298 C 17.0732 5.65909 17.0958 6.2381 16.7754 6.63087 L 16.707 6.70704 L 12.707 10.707 C 12.3409 11.0732 11.7619 11.0958 11.3692 10.7754 L 11.293 10.707 L 7.29298 6.70704 L 7.22462 6.63087 C 6.90427 6.2381 6.92686 5.65909 7.29298 5.29298 C 7.65909 4.92686 8.2381 4.90427 8.63087 5.22462 L 8.70704 5.29298 L 12 8.58595 L 15.293 5.29298 L 15.3692 5.22462 Z" stroke-linecap="round" /></g><g transform="matrix(1 0 0 1 12 16)"  ><path style="stroke: none; stroke-width: 1; stroke-dasharray: none; stroke-linecap: butt; stroke-dashoffset: 0; stroke-linejoin: miter; stroke-miterlimit: 4; fill: rgb(249,115,22); fill-rule: nonzero; opacity: 1;"  transform=" translate(-12, -16)" d="M 15 18 C 15 17.2044 14.6837 16.4415 14.1211 15.8789 C 13.6289 15.3867 12.9835 15.0829 12.2969 15.0146 L 12 15 C 11.2044 15 10.4415 15.3163 9.87891 15.8789 C 9.3163 16.4415 9 17.2044 9 18 C 9 18.5523 8.55228 19 8 19 C 7.44772 19 7 18.5523 7 18 C 7 16.6739 7.52716 15.4025 8.46484 14.4648 C 9.40253 13.5272 10.6739 13 12 13 L 12.248 13.0059 C 13.4838 13.0672 14.6561 13.5858 15.5352 14.4648 C 16.4728 15.4025 17 16.6739 17 18 C 17 18.5523 16.5523 19 16 19 C 15.4477 19 15 18.5523 15 18 Z" stroke-linecap="round" /></g></g></g></svg>