<svg xmlns="http://www.w3.org/2000/svg" width="24" height="24"  viewBox="0 0 24 24"><g transform="matrix(1 0 0 1 0 0)"  ><g style=""   ><g transform="matrix(1 0 0 1 12 6)"  ><path style="stroke: none; stroke-width: 1; stroke-dasharray: none; stroke-linecap: butt; stroke-dashoffset: 0; stroke-linejoin: miter; stroke-miterlimit: 4; fill: rgb(234,88,12); fill-rule: nonzero; opacity: 1;"  transform=" translate(-12, -6)" d="M 11 10 L 11 2 C 11 1.44772 11.4477 1 12 1 C 12.5523 1 13 1.44772 13 2 L 13 10 C 13 10.5523 12.5523 11 12 11 C 11.4477 11 11 10.5523 11 10 Z" stroke-linecap="round" /></g><g transform="matrix(1 0 0 1 5.63 11.64)"  ><path style="stroke: none; stroke-width: 1; stroke-dasharray: none; stroke-linecap: butt; stroke-dashoffset: 0; stroke-linejoin: miter; stroke-miterlimit: 4; fill: rgb(234,88,12); fill-rule: nonzero; opacity: 1;"  transform=" translate(-5.63, -11.64)" d="M 4.22291 10.223 C 4.58903 9.85686 5.16803 9.83426 5.5608 10.1546 L 5.63697 10.223 L 7.04713 11.6331 L 7.11549 11.7093 C 7.43569 12.1021 7.41319 12.6811 7.04713 13.0472 C 6.68107 13.4133 6.10201 13.4358 5.70924 13.1155 L 5.63307 13.0472 L 4.22291 11.637 L 4.15455 11.5609 C 3.8342 11.1681 3.85679 10.5891 4.22291 10.223 Z" stroke-linecap="round" /></g><g transform="matrix(1 0 0 1 3 18)"  ><path style="stroke: none; stroke-width: 1; stroke-dasharray: none; stroke-linecap: butt; stroke-dashoffset: 0; stroke-linejoin: miter; stroke-miterlimit: 4; fill: rgb(234,88,12); fill-rule: nonzero; opacity: 1;"  transform=" translate(-3, -18)" d="M 4 17 C 4.55228 17 5 17.4477 5 18 C 5 18.5523 4.55228 19 4 19 L 2 19 C 1.44772 19 1 18.5523 1 18 C 1 17.4477 1.44772 17 2 17 L 4 17 Z" stroke-linecap="round" /></g><g transform="matrix(1 0 0 1 21 18)"  ><path style="stroke: none; stroke-width: 1; stroke-dasharray: none; stroke-linecap: butt; stroke-dashoffset: 0; stroke-linejoin: miter; stroke-miterlimit: 4; fill: rgb(234,88,12); fill-rule: nonzero; opacity: 1;"  transform=" translate(-21, -18)" d="M 22 17 C 22.5523 17 23 17.4477 23 18 C 23 18.5523 22.5523 19 22 19 L 20 19 C 19.4477 19 19 18.5523 19 18 C 19 17.4477 19.4477 17 20 17 L 22 17 Z" stroke-linecap="round" /></g><g transform="matrix(1 0 0 1 18.37 11.64)"  ><path style="stroke: none; stroke-width: 1; stroke-dasharray: none; stroke-linecap: butt; stroke-dashoffset: 0; stroke-linejoin: miter; stroke-miterlimit: 4; fill: rgb(234,88,12); fill-rule: nonzero; opacity: 1;"  transform=" translate(-18.37, -11.64)" d="M 18.3632 10.223 C 18.7537 9.83252 19.3867 9.83247 19.7772 10.223 C 20.1676 10.6135 20.1676 11.2465 19.7772 11.637 L 18.3671 13.0472 C 17.9766 13.4376 17.3435 13.4376 16.953 13.0472 C 16.5625 12.6567 16.5626 12.0237 16.953 11.6331 L 18.3632 10.223 Z" stroke-linecap="round" /></g><g transform="matrix(1 0 0 1 12 22)"  ><path style="stroke: none; stroke-width: 1; stroke-dasharray: none; stroke-linecap: butt; stroke-dashoffset: 0; stroke-linejoin: miter; stroke-miterlimit: 4; fill: rgb(234,88,12); fill-rule: nonzero; opacity: 1;"  transform=" translate(-12, -22)" d="M 22 21 C 22.5523 21 23 21.4477 23 22 C 23 22.5523 22.5523 23 22 23 L 2 23 C 1.44772 23 1 22.5523 1 22 C 1 21.4477 1.44772 21 2 21 L 22 21 Z" stroke-linecap="round" /></g><g transform="matrix(1 0 0 1 12 4)"  ><path style="stroke: none; stroke-width: 1; stroke-dasharray: none; stroke-linecap: butt; stroke-dashoffset: 0; stroke-linejoin: miter; stroke-miterlimit: 4; fill: rgb(234,88,12); fill-rule: nonzero; opacity: 1;"  transform=" translate(-12, -4)" d="M 11.3692 1.22462 C 11.762 0.904269 12.341 0.926863 12.7071 1.29298 L 16.7071 5.29298 L 16.7754 5.36915 C 17.0958 5.76192 17.0732 6.34092 16.7071 6.70704 C 16.341 7.07316 15.762 7.09575 15.3692 6.7754 L 15.293 6.70704 L 12 3.41407 L 8.70708 6.70704 C 8.31655 7.09757 7.68354 7.09757 7.29302 6.70704 C 6.90249 6.31652 6.90249 5.6835 7.29302 5.29298 L 11.293 1.29298 L 11.3692 1.22462 Z" stroke-linecap="round" /></g><g transform="matrix(1 0 0 1 12 16)"  ><path style="stroke: none; stroke-width: 1; stroke-dasharray: none; stroke-linecap: butt; stroke-dashoffset: 0; stroke-linejoin: miter; stroke-miterlimit: 4; fill: rgb(234,88,12); fill-rule: nonzero; opacity: 1;"  transform=" translate(-12, -16)" d="M 15 18 C 15 17.2044 14.6837 16.4415 14.1211 15.8789 C 13.6289 15.3867 12.9835 15.0829 12.2969 15.0146 L 12 15 C 11.2044 15 10.4415 15.3163 9.87891 15.8789 C 9.3163 16.4415 9 17.2044 9 18 C 9 18.5523 8.55228 19 8 19 C 7.44772 19 7 18.5523 7 18 C 7 16.6739 7.52716 15.4025 8.46484 14.4648 C 9.40253 13.5272 10.6739 13 12 13 L 12.248 13.0059 C 13.4838 13.0672 14.6561 13.5858 15.5352 14.4648 C 16.4728 15.4025 17 16.6739 17 18 C 17 18.5523 16.5523 19 16 19 C 15.4477 19 15 18.5523 15 18 Z" stroke-linecap="round" /></g></g></g></svg>