<svg xmlns="http://www.w3.org/2000/svg" width="20" height="20"  viewBox="0 0 20 20"><g transform="matrix(1 0 0 1 0 0)"  ><g style=""   ><g transform="matrix(0.83 0 0 0.83 11.67 10)"  ><path style="stroke: none; stroke-width: 1; stroke-dasharray: none; stroke-linecap: butt; stroke-dashoffset: 0; stroke-linejoin: miter; stroke-miterlimit: 4; fill: rgb(124,45,18); fill-rule: nonzero; opacity: 1;"  transform=" translate(-14, -12)" d="M 15.3691 9.22462 C 15.7619 8.90427 16.3409 8.92686 16.707 9.29298 C 17.0731 9.65909 17.0957 10.2381 16.7754 10.6309 L 16.707 10.707 L 12.707 14.707 C 12.3165 15.0976 11.6835 15.0976 11.293 14.707 C 10.9024 14.3165 10.9024 13.6835 11.293 13.293 L 15.293 9.29298 L 15.3691 9.22462 Z" stroke-linecap="round" /></g><g transform="matrix(0.83 0 0 0.83 10 9.58)"  ><path style="stroke: none; stroke-width: 1; stroke-dasharray: none; stroke-linecap: butt; stroke-dashoffset: 0; stroke-linejoin: miter; stroke-miterlimit: 4; fill: rgb(124,45,18); fill-rule: nonzero; opacity: 1;"  transform=" translate(-12, -11.5)" d="M 21 13.9995 C 21 12.4198 20.5838 10.8676 19.7939 9.49951 C 19.0041 8.13144 17.8681 6.99546 16.5 6.20557 C 15.1318 5.41561 13.5799 4.99951 12 4.99951 C 10.4201 4.99951 8.8682 5.41561 7.5 6.20557 C 6.13192 6.99546 4.99594 8.13144 4.20605 9.49951 C 3.41621 10.8676 3 12.4198 3 13.9995 C 3.00006 15.4808 3.36571 16.938 4.0625 18.2417 L 4.20605 18.4995 L 4.25293 18.5913 C 4.4605 19.0535 4.28812 19.6069 3.83984 19.8657 C 3.39153 20.1246 2.82582 19.9974 2.5293 19.5864 L 2.47363 19.4995 L 2.29785 19.1841 C 1.44641 17.5908 1.00007 15.8098 1 13.9995 C 1 12.0687 1.50827 10.1717 2.47363 8.49951 C 3.43906 6.82733 4.82783 5.4386 6.5 4.47314 C 8.1722 3.50771 10.0691 2.99951 12 2.99951 C 13.9309 2.99951 15.8278 3.50771 17.5 4.47314 C 19.1722 5.4386 20.5609 6.82733 21.5264 8.49951 C 22.4917 10.1717 23 12.0687 23 13.9995 C 22.9999 15.9303 22.4917 17.8274 21.5264 19.4995 C 21.2502 19.9778 20.6384 20.1418 20.1602 19.8657 C 19.6819 19.5896 19.5178 18.9778 19.7939 18.4995 C 20.5838 17.1314 20.9999 15.5793 21 13.9995 Z" stroke-linecap="round" /></g></g></g></svg>