<svg xmlns="http://www.w3.org/2000/svg" width="36" height="36"  viewBox="0 0 36 36"><g transform="matrix(1 0 0 1 0 0)"  ><g style=""   ><g transform="matrix(1.5 0 0 -1.5 24 8.25)"  ><circle style="stroke: none; stroke-width: 1; stroke-dasharray: none; stroke-linecap: butt; stroke-dashoffset: 0; stroke-linejoin: miter; stroke-miterlimit: 4; fill: rgb(237,112,45); fill-rule: nonzero; opacity: 1;"  cx="0" cy="0" r="1.5" /></g><g transform="matrix(1.5 0 0 -1.5 39.75 24)"  ><circle style="stroke: none; stroke-width: 1; stroke-dasharray: none; stroke-linecap: butt; stroke-dashoffset: 0; stroke-linejoin: miter; stroke-miterlimit: 4; fill: rgb(237,112,45); fill-rule: nonzero; opacity: 1;"  cx="0" cy="0" r="1.5" /></g><g transform="matrix(1.5 0 0 -1.5 37.5 16.13)"  ><circle style="stroke: none; stroke-width: 1; stroke-dasharray: none; stroke-linecap: butt; stroke-dashoffset: 0; stroke-linejoin: miter; stroke-miterlimit: 4; fill: rgb(237,112,45); fill-rule: nonzero; opacity: 1;"  cx="0" cy="0" r="1.5" /></g><g transform="matrix(1.5 0 0 1.5 37.5 31.88)"  ><circle style="stroke: none; stroke-width: 1; stroke-dasharray: none; stroke-linecap: butt; stroke-dashoffset: 0; stroke-linejoin: miter; stroke-miterlimit: 4; fill: rgb(237,112,45); fill-rule: nonzero; opacity: 1;"  cx="0" cy="0" r="1.5" /></g><g transform="matrix(1.5 0 0 1.5 4.5 10.13)"  ><circle style="stroke: none; stroke-width: 1; stroke-dasharray: none; stroke-linecap: butt; stroke-dashoffset: 0; stroke-linejoin: miter; stroke-miterlimit: 4; fill: rgb(237,112,45); fill-rule: nonzero; opacity: 1;"  cx="0" cy="0" r="1.5" /></g><g transform="matrix(1.5 0 0 -1.5 4.5 25.88)"  ><circle style="stroke: none; stroke-width: 1; stroke-dasharray: none; stroke-linecap: butt; stroke-dashoffset: 0; stroke-linejoin: miter; stroke-miterlimit: 4; fill: rgb(237,112,45); fill-rule: nonzero; opacity: 1;"  cx="0" cy="0" r="1.5" /></g><g transform="matrix(1.5 0 0 -1.5 31.88 10.5)"  ><circle style="stroke: none; stroke-width: 1; stroke-dasharray: none; stroke-linecap: butt; stroke-dashoffset: 0; stroke-linejoin: miter; stroke-miterlimit: 4; fill: rgb(237,112,45); fill-rule: nonzero; opacity: 1;"  cx="0" cy="0" r="1.5" /></g><g transform="matrix(1.5 0 0 1.5 31.88 37.5)"  ><circle style="stroke: none; stroke-width: 1; stroke-dasharray: none; stroke-linecap: butt; stroke-dashoffset: 0; stroke-linejoin: miter; stroke-miterlimit: 4; fill: rgb(237,112,45); fill-rule: nonzero; opacity: 1;"  cx="0" cy="0" r="1.5" /></g><g transform="matrix(1.5 0 0 1.5 10.13 4.5)"  ><circle style="stroke: none; stroke-width: 1; stroke-dasharray: none; stroke-linecap: butt; stroke-dashoffset: 0; stroke-linejoin: miter; stroke-miterlimit: 4; fill: rgb(237,112,45); fill-rule: nonzero; opacity: 1;"  cx="0" cy="0" r="1.5" /></g><g transform="matrix(1.5 0 0 -1.5 10.13 31.5)"  ><circle style="stroke: none; stroke-width: 1; stroke-dasharray: none; stroke-linecap: butt; stroke-dashoffset: 0; stroke-linejoin: miter; stroke-miterlimit: 4; fill: rgb(237,112,45); fill-rule: nonzero; opacity: 1;"  cx="0" cy="0" r="1.5" /></g><g transform="matrix(1.5 0 0 -1.5 24 39.75)"  ><circle style="stroke: none; stroke-width: 1; stroke-dasharray: none; stroke-linecap: butt; stroke-dashoffset: 0; stroke-linejoin: miter; stroke-miterlimit: 4; fill: rgb(237,112,45); fill-rule: nonzero; opacity: 1;"  cx="0" cy="0" r="1.5" /></g><g transform="matrix(1.5 0 0 -1.5 8.25 24)"  ><circle style="stroke: none; stroke-width: 1; stroke-dasharray: none; stroke-linecap: butt; stroke-dashoffset: 0; stroke-linejoin: miter; stroke-miterlimit: 4; fill: rgb(237,112,45); fill-rule: nonzero; opacity: 1;"  cx="0" cy="0" r="1.5" /></g></g></g></svg>