<svg xmlns="http://www.w3.org/2000/svg" width="24" height="24"  viewBox="0 0 24 24"><g transform="matrix(1 0 0 1 0 0)"  ><g style=""   ><g transform="matrix(1 0 0 1 12.01 9.99)"  ><path style="stroke: none; stroke-width: 1; stroke-dasharray: none; stroke-linecap: butt; stroke-dashoffset: 0; stroke-linejoin: miter; stroke-miterlimit: 4; fill: rgb(71,85,105); fill-rule: nonzero; opacity: 1;"  transform=" translate(-12.01, -9.99)" d="M 7.32388 2.18038 C 8.62716 1.90069 9.9796 1.95195 11.2584 2.32784 C 12.5374 2.70382 13.7025 3.39312 14.6471 4.3337 C 15.4124 5.09578 16.0131 6.00348 16.4167 6.99972 L 17.4997 6.99972 C 18.9065 6.99762 20.2609 7.53483 21.2838 8.5007 C 22.3072 9.46689 22.9214 10.7889 22.9997 12.1941 C 23.0779 13.5991 22.6142 14.9806 21.7047 16.0544 C 20.7951 17.1283 19.508 17.8126 18.109 17.9665 L 18.0075 17.9734 C 17.5006 17.9778 17.0623 17.5973 17.0055 17.0827 C 16.9451 16.5339 17.3415 16.0398 17.8903 15.9792 L 18.0563 15.9568 C 18.8819 15.8258 19.6356 15.4031 20.1784 14.7624 C 20.7572 14.0791 21.0524 13.1995 21.0026 12.3054 C 20.9528 11.4112 20.562 10.5696 19.9108 9.9548 C 19.2596 9.33999 18.3972 8.99816 17.5016 8.99972 L 15.7096 8.99972 C 15.2677 8.99955 14.8781 8.70934 14.7516 8.28585 C 14.4655 7.32786 13.9444 6.45616 13.236 5.7507 C 12.5275 5.04533 11.6541 4.52778 10.695 4.24581 C 9.73581 3.96385 8.72129 3.92668 7.7438 4.13644 C 6.76624 4.34628 5.85634 4.79716 5.09732 5.44796 C 4.3383 6.0988 3.75368 6.92889 3.39712 7.863 C 3.04059 8.79709 2.92303 9.80557 3.05532 10.7966 C 3.18766 11.7876 3.56581 12.73 4.15493 13.5378 C 4.7441 14.3457 5.52612 14.9937 6.42935 15.4226 C 6.92799 15.6595 7.13974 16.2558 6.90298 16.7546 C 6.66608 17.2535 6.06985 17.4661 5.57095 17.2292 C 4.36669 16.6574 3.32425 15.7936 2.53872 14.7165 C 1.7532 13.6394 1.24935 12.3827 1.0729 11.0612 C 0.896505 9.73988 1.05359 8.39556 1.52896 7.15011 C 2.00436 5.90457 2.78349 4.79722 3.79556 3.92941 C 4.80756 3.06174 6.02053 2.46016 7.32388 2.18038 Z" stroke-linecap="round" /></g><g transform="matrix(1 0 0 1 12 17)"  ><path style="stroke: none; stroke-width: 1; stroke-dasharray: none; stroke-linecap: butt; stroke-dashoffset: 0; stroke-linejoin: miter; stroke-miterlimit: 4; fill: rgb(71,85,105); fill-rule: nonzero; opacity: 1;"  transform=" translate(-12, -17)" d="M 12.1992 11.4004 C 12.5026 10.9942 13.0706 10.8761 13.5146 11.1426 C 13.9585 11.409 14.1207 11.9651 13.9053 12.4238 L 13.8574 12.5146 L 11.7666 16 L 14 16 C 14.3601 16 14.6926 16.1935 14.8701 16.5068 C 15.0254 16.7811 15.0416 17.1106 14.9189 17.3955 L 14.8574 17.5146 L 11.8574 22.5146 C 11.5732 22.9881 10.9589 23.1415 10.4854 22.8574 C 10.0119 22.5732 9.85846 21.9589 10.1426 21.4853 L 12.2334 18 L 10 18 C 9.63988 18 9.30744 17.8064 9.12988 17.4931 C 8.95238 17.1796 8.95722 16.7943 9.14258 16.4853 L 12.1426 11.4853 L 12.1992 11.4004 Z" stroke-linecap="round" /></g></g></g></svg>