<svg xmlns="http://www.w3.org/2000/svg" viewBox="0 0 45 35"><g transform="matrix(0.94 0 0 0.94 0 -5)"  ><g style=""   ><g transform="matrix(1 0 0 1 24 24)"  ><path style="stroke: none; stroke-width: 1; stroke-dasharray: none; stroke-linecap: butt; stroke-dashoffset: 0; stroke-linejoin: miter; stroke-miterlimit: 4; fill: rgb(0,0,0); fill-rule: nonzero; opacity: 1;"  transform=" translate(-23.96, -23.94)" d="M 32.0096 35.6282 C 31.1737 35.9775 30.3289 36.2704 29.5148 36.6762 L 28.5564 37.164 C 27.6084 37.6618 27.5877 37.2895 26.9719 36.4922 C 25.995 35.2274 24.2575 32.3925 23.9904 30.752 L 23.5557 32.0031 C 23.1394 33.0879 21.3387 36.6192 20.3239 37.3025 C 19.9918 37.5261 19.7787 37.3415 19.4794 37.1707 L 17.3641 36.1611 L 13.6218 34.7494 C 11.5114 33.9713 9.37133 33.2661 7.61802 31.8015 C 6.51425 30.8795 6.24997 30.3459 6.0628 28.957 L 5.90225 27.3154 C 5.88814 27.1045 5.84473 26.905 5.83152 26.6952 L 5.75 22.8578 L 5.83977 20.6345 L 6.31719 16.3146 L 7.12156 11.3788 C 7.19431 10.9588 7.17003 10.6967 7.59969 10.4805 L 40.3595 10.4892 C 40.5568 10.507 40.7444 10.7157 40.7793 10.9014 L 40.8837 11.4456 C 40.9285 11.6107 40.94 11.7762 40.9646 11.9447 L 41.6721 16.4999 C 41.6958 16.6516 41.6984 16.8057 41.7201 16.957 L 42.1042 20.7036 C 42.1166 20.8857 42.1585 21.0622 42.1694 21.246 L 42.178 26.1896 L 41.9276 29.3256 C 41.5722 32.0779 37.5104 33.598 35.2478 34.4435 L 32.0096 35.6282 Z M 8.19308 11.6079 C 8.13973 11.8433 8.14161 12.0977 8.11784 12.3426 L 8.03239 12.9896 C 8.53991 13.03 9.0717 13.0056 9.57308 13.0991 C 10.0212 13.1827 10.4998 13.1216 10.9543 13.1629 C 11.0857 13.1749 11.2127 13.2147 11.3439 13.2235 L 12.2726 13.2568 C 12.4288 13.269 12.5752 13.3075 12.7332 13.3163 L 14.7663 13.3659 C 15.3054 13.3813 15.6589 13.3706 16.1863 13.3632 L 18.7082 13.3562 C 19.1362 13.355 19.5553 13.4221 19.9775 13.4232 L 30.9142 13.4198 C 31.1153 13.4174 31.3145 13.3871 31.5147 13.3745 L 34.5954 13.3236 C 34.7961 13.3193 34.9918 13.273 35.1916 13.2616 L 36.5634 13.221 C 36.7833 13.2086 36.9997 13.1689 37.2196 13.1598 L 38.4464 13.1337 C 38.8146 13.1123 39.1747 13.0559 39.5451 13.0573 C 39.6993 13.0513 39.8538 13.0531 40.0067 13.031 L 39.8693 12.0655 C 39.8493 11.9282 39.8529 11.7247 39.7855 11.6056 L 8.19308 11.6079 Z M 7.81058 14.121 L 7.12869 18.832 L 6.98525 20.8949 C 6.97409 21.0769 6.93763 21.2574 6.92891 21.443 L 6.93411 26.084 L 7.09156 27.9168 C 7.10886 28.1705 7.09784 28.4519 7.15316 28.6996 C 9.78552 28.4163 12.9956 26.2248 14.5848 24.2477 L 14.9678 23.7548 L 20.7753 14.6027 L 7.81058 14.121 Z M 39.8184 14.1895 C 39.2272 14.2537 38.5024 14.1653 37.9411 14.2907 C 37.6401 14.358 37.2844 14.3351 36.9749 14.3494 L 35.0407 14.4242 C 34.7276 14.4264 34.4289 14.4936 34.1208 14.5003 L 28.5953 14.5087 C 28.1606 14.509 27.7004 14.4802 27.2702 14.5378 L 27.3398 14.6478 C 27.4262 14.7843 27.5342 14.8918 27.6364 15.0156 L 28.0979 15.61 C 28.6098 16.3053 29.0587 17.1761 29.3495 17.9972 L 29.908 19.215 C 30.5336 20.8417 31.9033 22.9941 32.9842 24.325 C 35.0774 26.6793 37.5114 28.5344 40.8155 28.7267 L 40.9464 27.8286 C 41.0321 27.3508 40.9761 26.8182 40.9945 26.332 L 41.0837 22.6636 C 41.0829 22.1795 41.1266 21.6231 41.0202 21.151 L 40.1824 14.1717 C 40.0796 14.176 39.9139 14.1624 39.8184 14.1895 Z M 25.8116 14.5663 L 25.019 14.5738 C 24.8526 14.5749 24.6826 14.5668 24.5185 14.5974 C 25.1602 15.3956 25.7123 15.6992 26.1256 16.7929 L 26.3773 17.5477 C 26.9673 19.2973 25.5335 19.2643 25.417 18.6079 L 25.3249 18.0018 C 25.1511 17.1364 24.5655 16.1309 23.855 15.5776 L 23.5086 16.2421 C 23.1753 16.8605 22.8281 17.503 22.6889 18.1991 C 22.6548 18.37 22.6483 18.5535 22.5782 18.7148 C 22.3918 19.144 21.3897 19.2598 21.5709 18.0286 C 21.7809 16.6022 22.5425 15.8073 23.0689 14.6267 C 22.004 14.6302 22.1758 14.7798 21.4805 15.6279 C 20.1986 17.1915 19.2566 18.8973 18.2936 20.6674 L 17.8213 21.477 C 15.2363 26.0054 12.4583 28.6971 7.37052 29.8691 C 7.64159 30.2264 7.90892 30.6012 8.25223 30.8944 C 10.6778 32.9655 15.8309 34.1545 18.9279 35.605 L 19.9024 36.1034 C 21.0394 34.7882 22.1261 32.6818 22.6855 31.0803 L 23.0514 29.9245 C 23.1398 29.628 23.2106 29.3235 23.3121 29.0318 C 23.5606 28.3175 24.3183 28.3728 24.5628 29.0155 L 24.8934 30.0351 L 25.7843 32.414 C 26.2317 33.3676 27.3345 35.3519 28.1288 36.0925 C 29.0001 35.6233 29.8998 35.2031 30.8253 34.8506 L 36.9611 32.5333 C 38.2811 31.9486 39.8553 31.1529 40.6181 29.8554 C 40.0777 29.779 39.5401 29.7274 39.0083 29.5972 C 33.8634 28.3372 30.8628 24.0081 28.7855 19.481 L 28.194 18.1884 C 27.7312 17.1526 27.2698 16.3232 26.5339 15.4436 C 26.2935 15.1564 26.0399 14.8887 25.8315 14.5757 L 25.8116 14.5663 Z" stroke-linecap="round" /></g></g></g></svg>