<svg xmlns="http://www.w3.org/2000/svg" viewBox="0 0 30 30"><g transform="matrix(1 0 0 1 0 0)"  ><g style=""   ><g transform="matrix(0.64 0 0 0.64 15 15)"  ><path style="stroke: none; stroke-width: 1; stroke-dasharray: none; stroke-linecap: butt; stroke-dashoffset: 0; stroke-linejoin: miter; stroke-miterlimit: 4; fill: rgb(0,0,0); fill-rule: nonzero; opacity: 1;"  transform=" translate(-23.89, -23.68)" d="M 25.1186 30.6321 L 24.0345 23.7292 C 24.0163 23.7526 24.0202 23.7419 24.0148 23.7707 L 22.0723 35.5012 L 21.1091 40.4927 C 21.0766 40.7158 21.0757 40.9442 21.048 41.1681 L 20.5208 45.6673 C 20.5024 45.8914 20.5437 46.163 20.4792 46.3781 L 20.4631 46.4181 C 20.261 46.9276 19.7594 47.0218 19.2815 47.0907 C 17.795 47.3049 15.7964 47.184 14.3362 46.9655 C 13.4383 46.8309 12.5138 46.8233 12.5511 45.7292 L 12.5618 45.1594 C 12.565 44.4714 12.5305 43.7635 12.5747 43.0782 L 12.6798 41.754 L 14.0338 31.3243 L 14.2756 27.3755 C 14.2897 27.0758 14.345 26.7788 14.3538 26.4801 L 14.3657 23.2765 L 14.5671 20.0509 L 15.1175 13.5821 L 15.5477 10.4063 C 15.6483 9.45951 15.6263 8.45549 16.0248 7.5704 C 16.2687 7.0288 16.5217 6.60444 16.5769 5.99441 C 16.6044 5.69024 16.5288 5.41209 16.5208 5.11157 L 16.5193 1.42938 C 16.52 0.78993 16.4893 0.382488 17.1959 0.118825 C 17.4672 0.0988187 17.6675 0.266706 17.9047 0.370724 C 18.6612 0.702409 19.5374 0.966545 20.3471 1.11697 L 22.6815 1.45818 C 23.6332 1.59111 25.2736 1.53727 26.2382 1.40298 C 27.4859 1.22927 28.7598 0.966358 29.9201 0.459363 C 30.1393 0.363556 30.3665 0.205666 30.5996 0.152202 C 31.0178 0.0563364 31.28 0.411553 31.4173 0.737795 C 31.5137 0.96655 31.4775 1.3119 31.4779 1.55794 L 31.4764 5.05087 C 31.4695 5.6009 31.3452 5.92363 31.5179 6.51276 L 31.7627 7.42977 C 31.7729 7.47159 31.779 7.50637 31.7957 7.54616 L 31.8539 7.71102 C 32.0805 8.53077 32.3113 9.24276 32.4909 10.0991 C 32.7133 11.16 32.8684 12.2136 33.003 13.2891 L 33.575 20.8664 C 33.5903 21.0713 33.6269 21.274 33.6372 21.4802 L 33.6651 22.5152 C 33.6778 22.7728 33.729 23.0257 33.7372 23.2843 L 33.7554 24.7268 C 33.7845 25.5098 33.7702 26.6092 33.8637 27.3173 C 34.007 28.4024 33.9119 29.5325 33.9411 30.6259 C 33.9474 30.8583 33.9917 31.0854 34.0008 31.3181 L 34.0375 32.5785 L 34.3595 35.6485 C 34.4689 36.4197 34.5644 37.1945 34.697 37.9619 L 34.91 39.4984 C 34.9678 39.9802 35.0233 40.7114 35.0408 41.2074 L 35.2271 45.5264 C 35.2276 46.3534 35.3544 46.6211 34.3896 46.7948 L 32.4608 47.1268 C 31.4482 47.236 30.4267 47.2318 29.4096 47.2309 C 28.4165 47.2304 27.7553 47.4109 27.7022 46.1197 L 27.66 45.1839 C 27.6052 44.4335 27.4879 43.6698 27.3751 42.9259 L 26.2878 37.4353 L 25.1186 30.6321 Z M 17.9637 1.86304 L 17.979 4.51477 L 30.0367 4.52104 L 30.0265 3.54486 L 30.0253 2.53066 C 30.0248 2.33368 30.0357 2.13126 30.0121 1.9358 C 26.875 3.11717 23.4765 3.22377 20.2119 2.51705 C 19.4754 2.35762 18.6877 2.19288 18.0013 1.88026 L 17.9637 1.86304 Z M 22.2831 5.97027 L 22.2804 5.99648 C 22.2662 6.1859 22.307 6.38465 22.3171 6.5743 L 22.3333 7.59473 C 22.2348 10.6035 20.1151 12.8849 17.1556 13.2428 L 16.6733 13.2914 C 16.6535 13.2927 16.5621 13.2921 16.5548 13.2977 C 16.5285 13.3181 16.3219 15.1379 16.3095 15.3303 L 15.9065 20.8878 C 15.8918 21.1403 15.8437 21.3838 15.8319 21.6385 L 15.8135 22.8743 C 15.8026 23.1505 15.7588 23.4183 15.7561 23.6964 L 15.7367 27.0953 C 15.7249 27.4369 15.6681 27.7723 15.6494 28.1132 L 15.3332 32.444 L 14.6715 37.5813 C 14.3947 39.4068 14.0588 41.2378 13.937 43.0825 C 13.9012 43.6228 13.9261 44.1812 13.9209 44.7243 L 13.915 45.239 C 13.9058 45.5599 13.9245 45.5377 14.2373 45.6015 L 15.0462 45.7324 C 15.4952 45.784 15.951 45.8516 16.4024 45.8573 L 18.2929 45.8576 C 18.5615 45.8555 18.8435 45.8584 19.1067 45.8025 L 19.5646 41.9424 C 19.678 40.9551 19.756 39.9609 19.9309 38.9818 L 21.1872 32.672 L 22.0848 27.0587 L 23.1469 19.0963 L 23.2522 17.672 C 23.3019 16.8509 23.2715 16.0153 23.2708 15.1927 L 23.2705 7.72518 C 23.2707 7.14594 23.2969 6.55251 23.2618 5.97534 L 22.2831 5.97027 Z M 28.5272 5.96985 C 28.4166 6.13419 28.643 6.67129 28.6943 6.84993 C 28.9342 7.68562 29.792 8.32644 30.6233 8.50185 C 30.4278 7.65529 30.0828 6.83634 30.0415 5.95977 L 28.5272 5.96985 Z M 18.0107 5.9744 C 17.9195 6.45318 17.8422 6.90599 17.673 7.35946 C 17.5563 7.67221 17.2606 8.08813 17.2147 8.40318 C 17.572 8.58477 18.2706 8.20377 18.5559 7.98613 C 19.4337 7.37601 19.4642 6.81154 19.7744 5.97759 L 18.0107 5.9744 Z M 24.704 5.9744 L 24.7065 12.1056 C 24.704 12.3418 24.6758 12.5647 24.7065 12.8008 C 24.9333 12.6389 25.1003 12.4769 25.2532 12.2438 L 25.2987 12.1743 C 25.5433 11.7207 25.5699 11.3108 25.6189 10.8048 L 25.82 9.20183 C 25.9374 8.51765 25.8638 8.41312 25.7178 7.75719 C 25.5852 7.16123 25.5243 6.5856 25.5481 5.97519 L 24.704 5.9744 Z M 26.9467 5.98837 C 26.8348 6.23066 26.948 6.97626 27.0373 7.27837 L 27.289 8.26068 C 27.3552 8.58819 27.4982 8.96577 27.6301 9.2713 C 28.3797 11.007 29.6303 11.7574 31.4348 11.8936 L 31.0019 9.87552 C 29.0596 10.091 27.3881 8.15741 27.1144 6.35268 C 27.0924 6.2076 27.1408 5.97759 26.9467 5.98837 Z M 20.9379 6.99618 C 20.4855 8.16683 19.6806 9.07457 18.5266 9.59048 C 17.8898 9.87515 17.1658 9.75571 17.0278 9.81501 C 16.9678 10.1658 16.9628 10.52 16.9167 10.8721 L 16.827 11.5146 C 16.8082 11.638 16.778 11.7405 16.7752 11.868 C 19.0069 11.6281 20.5264 10.3471 20.9049 8.03957 C 20.9538 7.7413 21.0242 7.31634 20.9477 7.01451 L 20.9379 6.99618 Z M 27.0341 10.9604 C 26.8343 12.3131 26.576 13.4172 25.1764 14.1089 C 25.0507 14.171 24.7999 14.2129 24.7066 14.298 L 24.7156 16.7316 C 24.7197 17.107 24.6944 17.4991 24.7457 17.8712 L 24.7505 17.9075 C 24.8019 18.2842 24.8204 18.6042 24.8622 18.9727 L 25.0302 20.9181 L 25.5988 24.9444 L 26.994 33.7507 L 28.7356 42.6915 L 29.0256 44.9189 C 29.0518 45.199 29.0116 45.4961 29.0563 45.7707 L 31.5292 45.7585 L 33.8214 45.5048 L 31.6128 13.2891 C 29.8441 13.256 27.9932 12.5118 27.0341 10.9604 Z" stroke-linecap="round" /></g></g></g></svg>