<svg xmlns="http://www.w3.org/2000/svg" width="12" height="12"  viewBox="0 0 12 12"><g transform="matrix(1 0 0 1 0 0)"  ><g style=""   ><g transform="matrix(0.5 0 0 0.5 6 6)"  ><path style="stroke: none; stroke-width: 1; stroke-dasharray: none; stroke-linecap: butt; stroke-dashoffset: 0; stroke-linejoin: miter; stroke-miterlimit: 4; fill: rgb(234,145,110); fill-rule: nonzero; opacity: 1;"  transform=" translate(-12, -12)" d="M 21.0001 4.81895 C 21.0001 4.33656 20.8079 3.87397 20.4669 3.53282 C 20.1259 3.19183 19.6639 2.99981 19.1817 2.99962 C 18.6995 2.99956 18.2357 3.19009 17.8946 3.53087 L 17.8956 3.53185 L 4.54791 16.8824 C 4.43193 16.9981 4.34594 17.1408 4.29791 17.2975 L 3.24908 20.7486 L 6.70611 19.7008 L 6.82037 19.6588 C 6.93205 19.6093 7.03415 19.5395 7.12115 19.4527 L 20.4669 6.10509 L 20.5879 5.9713 C 20.8531 5.64775 21 5.24091 21.0001 4.81895 Z M 23.0001 4.81895 C 22.9999 5.76856 22.6463 6.68195 22.0118 7.38243 L 21.8809 7.51915 L 8.53326 20.8688 C 8.18555 21.2154 7.75786 21.472 7.28815 21.6149 L 2.93463 22.9352 L 2.9317 22.9361 C 2.67259 23.014 2.39721 23.0196 2.13483 22.9537 C 1.87238 22.8877 1.63206 22.7523 1.44049 22.5611 C 1.24886 22.3698 1.1124 22.1293 1.04596 21.8668 C 0.979645 21.6045 0.985155 21.3292 1.06256 21.0699 L 1.06451 21.066 L 2.38483 16.7135 L 2.3858 16.7106 L 2.44537 16.5367 C 2.57447 16.1925 2.76594 15.8752 3.00983 15.6002 L 3.1358 15.4654 L 16.4805 2.11778 L 16.6182 1.98692 C 17.3188 1.35279 18.2322 0.999499 19.1817 0.999619 C 20.1944 0.999806 21.1659 1.40254 21.8819 2.11876 C 22.5978 2.835 23.0002 3.80625 23.0001 4.81895 Z" stroke-linecap="round" /></g><g transform="matrix(0.5 0 0 0.5 8.5 3.5)"  ><path style="stroke: none; stroke-width: 1; stroke-dasharray: none; stroke-linecap: butt; stroke-dashoffset: 0; stroke-linejoin: miter; stroke-miterlimit: 4; fill: rgb(234,145,110); fill-rule: nonzero; opacity: 1;"  transform=" translate(-17, -7)" d="M 14.293 4.29296 C 14.6591 3.92685 15.2381 3.90425 15.6309 4.2246 L 15.707 4.29296 L 19.707 8.29296 L 19.7754 8.36913 C 20.0957 8.76191 20.0731 9.34091 19.707 9.70703 C 19.3409 10.0731 18.7619 10.0957 18.3691 9.77538 L 18.293 9.70703 L 14.293 5.70703 L 14.2246 5.63085 C 13.9043 5.23808 13.9268 4.65908 14.293 4.29296 Z" stroke-linecap="round" /></g></g></g></svg>