<svg xmlns="http://www.w3.org/2000/svg" width="16" height="16"  viewBox="0 0 16 16"><g transform="matrix(1 0 0 1 0 0)"  ><g style=""   ><g transform="matrix(0.67 0 0 0.67 2.67 11.67)"  ><path style="stroke: none; stroke-width: 1; stroke-dasharray: none; stroke-linecap: butt; stroke-dashoffset: 0; stroke-linejoin: miter; stroke-miterlimit: 4; fill: rgb(103,63,49); fill-opacity: 0.7; fill-rule: nonzero; opacity: 1;"  transform=" translate(-4, -17.5)" d="M 3 21 L 3 14 C 3 13.4477 3.44772 13 4 13 C 4.55228 13 5 13.4477 5 14 L 5 21 C 5 21.5523 4.55228 22 4 22 C 3.44772 22 3 21.5523 3 21 Z" stroke-linecap="round" /></g><g transform="matrix(0.67 0 0 0.67 2.67 4.33)"  ><path style="stroke: none; stroke-width: 1; stroke-dasharray: none; stroke-linecap: butt; stroke-dashoffset: 0; stroke-linejoin: miter; stroke-miterlimit: 4; fill: rgb(103,63,49); fill-opacity: 0.7; fill-rule: nonzero; opacity: 1;"  transform=" translate(-4, -6.5)" d="M 3 10 L 3 3 C 3 2.44772 3.44772 2 4 2 C 4.55228 2 5 2.44772 5 3 L 5 10 C 5 10.5523 4.55228 11 4 11 C 3.44772 11 3 10.5523 3 10 Z" stroke-linecap="round" /></g><g transform="matrix(0.67 0 0 0.67 8 11)"  ><path style="stroke: none; stroke-width: 1; stroke-dasharray: none; stroke-linecap: butt; stroke-dashoffset: 0; stroke-linejoin: miter; stroke-miterlimit: 4; fill: rgb(103,63,49); fill-opacity: 0.7; fill-rule: nonzero; opacity: 1;"  transform=" translate(-12, -16.5)" d="M 11 21 L 11 12 C 11 11.4477 11.4477 11 12 11 C 12.5523 11 13 11.4477 13 12 L 13 21 C 13 21.5523 12.5523 22 12 22 C 11.4477 22 11 21.5523 11 21 Z" stroke-linecap="round" /></g><g transform="matrix(0.67 0 0 0.67 8 3.67)"  ><path style="stroke: none; stroke-width: 1; stroke-dasharray: none; stroke-linecap: butt; stroke-dashoffset: 0; stroke-linejoin: miter; stroke-miterlimit: 4; fill: rgb(103,63,49); fill-opacity: 0.7; fill-rule: nonzero; opacity: 1;"  transform=" translate(-12, -5.5)" d="M 11 8 L 11 3 C 11 2.44772 11.4477 2 12 2 C 12.5523 2 13 2.44772 13 3 L 13 8 C 13 8.55228 12.5523 9 12 9 C 11.4477 9 11 8.55228 11 8 Z" stroke-linecap="round" /></g><g transform="matrix(0.67 0 0 0.67 13.33 12.33)"  ><path style="stroke: none; stroke-width: 1; stroke-dasharray: none; stroke-linecap: butt; stroke-dashoffset: 0; stroke-linejoin: miter; stroke-miterlimit: 4; fill: rgb(103,63,49); fill-opacity: 0.7; fill-rule: nonzero; opacity: 1;"  transform=" translate(-20, -18.5)" d="M 19 21 L 19 16 C 19 15.4477 19.4477 15 20 15 C 20.5523 15 21 15.4477 21 16 L 21 21 C 21 21.5523 20.5523 22 20 22 C 19.4477 22 19 21.5523 19 21 Z" stroke-linecap="round" /></g><g transform="matrix(0.67 0 0 0.67 13.33 5)"  ><path style="stroke: none; stroke-width: 1; stroke-dasharray: none; stroke-linecap: butt; stroke-dashoffset: 0; stroke-linejoin: miter; stroke-miterlimit: 4; fill: rgb(103,63,49); fill-opacity: 0.7; fill-rule: nonzero; opacity: 1;"  transform=" translate(-20, -7.5)" d="M 19 12 L 19 3 C 19 2.44772 19.4477 2 20 2 C 20.5523 2 21 2.44772 21 3 L 21 12 C 21 12.5523 20.5523 13 20 13 C 19.4477 13 19 12.5523 19 12 Z" stroke-linecap="round" /></g><g transform="matrix(0.67 0 0 0.67 2.67 9.33)"  ><path style="stroke: none; stroke-width: 1; stroke-dasharray: none; stroke-linecap: butt; stroke-dashoffset: 0; stroke-linejoin: miter; stroke-miterlimit: 4; fill: rgb(103,63,49); fill-opacity: 0.7; fill-rule: nonzero; opacity: 1;"  transform=" translate(-4, -14)" d="M 6 13 C 6.55228 13 7 13.4477 7 14 C 7 14.5523 6.55228 15 6 15 L 2 15 C 1.44772 15 1 14.5523 1 14 C 1 13.4477 1.44772 13 2 13 L 6 13 Z" stroke-linecap="round" /></g><g transform="matrix(0.67 0 0 0.67 8 5.33)"  ><path style="stroke: none; stroke-width: 1; stroke-dasharray: none; stroke-linecap: butt; stroke-dashoffset: 0; stroke-linejoin: miter; stroke-miterlimit: 4; fill: rgb(103,63,49); fill-opacity: 0.7; fill-rule: nonzero; opacity: 1;"  transform=" translate(-12, -8)" d="M 14 7 C 14.5523 7 15 7.44772 15 8 C 15 8.55228 14.5523 9 14 9 L 10 9 C 9.44772 9 9 8.55228 9 8 C 9 7.44772 9.44772 7 10 7 L 14 7 Z" stroke-linecap="round" /></g><g transform="matrix(0.67 0 0 0.67 13.33 10.67)"  ><path style="stroke: none; stroke-width: 1; stroke-dasharray: none; stroke-linecap: butt; stroke-dashoffset: 0; stroke-linejoin: miter; stroke-miterlimit: 4; fill: rgb(103,63,49); fill-opacity: 0.7; fill-rule: nonzero; opacity: 1;"  transform=" translate(-20, -16)" d="M 22 15 C 22.5523 15 23 15.4477 23 16 C 23 16.5523 22.5523 17 22 17 L 18 17 C 17.4477 17 17 16.5523 17 16 C 17 15.4477 17.4477 15 18 15 L 22 15 Z" stroke-linecap="round" /></g></g></g></svg>