<svg xmlns="http://www.w3.org/2000/svg" width="8" height="8"  viewBox="0 0 8 8"><g transform="matrix(1 0 0 1 0 0)"  ><g style=""   ><g transform="matrix(0.33 0 0 0.33 2.67 6.25)"  ><path style="stroke: none; stroke-width: 1; stroke-dasharray: none; stroke-linecap: butt; stroke-dashoffset: 0; stroke-linejoin: miter; stroke-miterlimit: 4; fill: rgb(3,105,161); fill-rule: nonzero; opacity: 1;"  transform=" translate(-8, -18.75)" d="M 8.73438 16.5 C 9.11383 16.4939 9.47058 16.7048 9.64453 17.0527 L 10.8945 19.5527 L 10.9355 19.6465 C 11.1153 20.1204 10.9104 20.663 10.4473 20.8945 C 9.98416 21.1261 9.42756 20.9643 9.15625 20.5361 L 9.10547 20.4473 L 8.19043 18.6172 L 6.17871 18.9834 C 5.63537 19.0821 5.11539 18.7221 5.0166 18.1787 C 4.91786 17.6354 5.27794 17.1154 5.82129 17.0166 L 8.57129 16.5166 L 8.73438 16.5 Z" stroke-linecap="round" /></g><g transform="matrix(0.33 0 0 0.33 2.67 1.75)"  ><path style="stroke: none; stroke-width: 1; stroke-dasharray: none; stroke-linecap: butt; stroke-dashoffset: 0; stroke-linejoin: miter; stroke-miterlimit: 4; fill: rgb(3,105,161); fill-rule: nonzero; opacity: 1;"  transform=" translate(-8, -5.25)" d="M 9.15626 3.46387 C 9.42758 3.03575 9.98417 2.87392 10.4473 3.10547 C 10.9104 3.33704 11.1153 3.87959 10.9356 4.35352 L 10.8945 4.44727 L 9.64455 6.94727 C 9.4458 7.34477 9.00855 7.56286 8.5713 7.4834 L 5.8213 6.9834 L 5.72169 6.96094 C 5.23457 6.82049 4.92402 6.3308 5.01662 5.8213 C 5.10922 5.31195 5.57196 4.96323 6.07716 5.00294 L 6.17873 5.01661 L 8.19044 5.38184 L 9.10548 3.55274 L 9.15626 3.46387 Z" stroke-linecap="round" /></g><g transform="matrix(0.33 0 0 0.33 3.43 5)"  ><path style="stroke: none; stroke-width: 1; stroke-dasharray: none; stroke-linecap: butt; stroke-dashoffset: 0; stroke-linejoin: miter; stroke-miterlimit: 4; fill: rgb(3,105,161); fill-rule: nonzero; opacity: 1;"  transform=" translate(-10.29, -15)" d="M 10.585 14 L 10.6875 14.0049 C 11.1916 14.0562 11.585 14.4823 11.585 15 C 11.585 15.5177 11.1916 15.9438 10.6875 15.9951 L 10.585 16 L 10 16 C 9.44772 16 9 15.5523 9 15 C 9 14.4477 9.44772 14 10 14 L 10.585 14 Z" stroke-linecap="round" /></g><g transform="matrix(0.33 0 0 0.33 2 3.5)"  ><path style="stroke: none; stroke-width: 1; stroke-dasharray: none; stroke-linecap: butt; stroke-dashoffset: 0; stroke-linejoin: miter; stroke-miterlimit: 4; fill: rgb(3,105,161); fill-rule: nonzero; opacity: 1;"  transform=" translate(-6, -10.5)" d="M 9.15625 8.46387 C 9.42756 8.03575 9.98416 7.87392 10.4473 8.10547 C 10.9104 8.33704 11.1153 8.87959 10.9355 9.35352 L 10.8945 9.44727 L 9.39453 12.4473 C 9.22514 12.7861 8.87877 13 8.5 13 L 2 13 C 1.44772 13 1 12.5523 1 12 C 1 11.4477 1.44772 11 2 11 L 7.88184 11 L 9.10547 8.55274 L 9.15625 8.46387 Z" stroke-linecap="round" /></g><g transform="matrix(0.33 0 0 0.33 6 4)"  ><path style="stroke: none; stroke-width: 1; stroke-dasharray: none; stroke-linecap: butt; stroke-dashoffset: 0; stroke-linejoin: miter; stroke-miterlimit: 4; fill: rgb(3,105,161); fill-rule: nonzero; opacity: 1;"  transform=" translate(-18, -12)" d="M 19 4 C 19 3.73478 18.8946 3.48051 18.707 3.29297 C 18.5429 3.12883 18.3276 3.02757 18.0986 3.00488 L 18 3 C 17.7348 3 17.4805 3.10543 17.293 3.29297 C 17.1054 3.48051 17 3.73478 17 4 L 17 14.54 C 17 14.8973 16.8094 15.2276 16.5 15.4062 C 15.9281 15.7365 15.4812 16.2463 15.2285 16.8564 C 14.9759 17.4664 14.9317 18.1425 15.1025 18.7803 C 15.2735 19.4181 15.65 19.9818 16.1738 20.3838 C 16.6978 20.7858 17.3396 21.0039 18 21.0039 C 18.6604 21.0039 19.3022 20.7858 19.8262 20.3838 C 20.35 19.9818 20.7265 19.4181 20.8975 18.7803 C 21.0683 18.1425 21.0241 17.4664 20.7715 16.8564 C 20.5503 16.3225 20.1803 15.8652 19.708 15.5381 L 19.5 15.4062 C 19.1906 15.2276 19 14.8973 19 14.54 L 19 4 Z M 21 14.0039 C 21.7142 14.5395 22.2747 15.2593 22.6191 16.0908 C 23.0403 17.1076 23.1148 18.2348 22.8301 19.2979 C 22.5452 20.361 21.9171 21.3007 21.0439 21.9707 C 20.1707 22.6407 19.1007 23.0039 18 23.0039 C 16.8993 23.0039 15.8293 22.6407 14.9561 21.9707 C 14.0829 21.3007 13.4548 20.361 13.1699 19.2979 C 12.8852 18.2348 12.9597 17.1076 13.3809 16.0908 C 13.7253 15.2593 14.2858 14.5395 15 14.0039 L 15 4 C 15 3.20435 15.3163 2.44151 15.8789 1.87891 C 16.4415 1.3163 17.2044 1 18 1 L 18.2969 1.01465 C 18.9835 1.08291 19.6289 1.38671 20.1211 1.87891 C 20.6837 2.44152 21 3.20435 21 4 L 21 14.0039 Z" stroke-linecap="round" /></g><g transform="matrix(0.33 0 0 0.33 1.58 4)"  ><path style="stroke: none; stroke-width: 1; stroke-dasharray: none; stroke-linecap: butt; stroke-dashoffset: 0; stroke-linejoin: miter; stroke-miterlimit: 4; fill: rgb(3,105,161); fill-rule: nonzero; opacity: 1;"  transform=" translate(-4.75, -12)" d="M 3.40039 9.20022 C 3.81456 8.88972 4.39088 8.94876 4.73437 9.32132 L 4.7998 9.40042 L 6.2998 11.4004 L 6.38769 11.5391 C 6.53764 11.8276 6.53764 12.1725 6.38769 12.461 L 6.2998 12.5996 L 4.7998 14.5996 C 4.46847 15.0414 3.84221 15.1311 3.40039 14.7998 C 2.95861 14.4685 2.86896 13.8422 3.20019 13.4004 L 4.25 12 L 3.20019 10.5996 L 3.14257 10.5147 C 2.88131 10.0806 2.98631 9.51078 3.40039 9.20022 Z" stroke-linecap="round" /></g><g transform="matrix(0.33 0 0 0.33 2.83 5.5)"  ><path style="stroke: none; stroke-width: 1; stroke-dasharray: none; stroke-linecap: butt; stroke-dashoffset: 0; stroke-linejoin: miter; stroke-miterlimit: 4; fill: rgb(3,105,161); fill-rule: nonzero; opacity: 1;"  transform=" translate(-8.5, -16.5)" d="M 8.05274 11.1055 C 8.51585 10.8739 9.07245 11.0357 9.34376 11.4639 L 9.39454 11.5527 L 10.8945 14.5527 L 10.9404 14.6602 C 11.0198 14.8797 11.0198 15.1203 10.9404 15.3398 L 10.8945 15.4473 L 7.89454 21.4473 C 7.64755 21.9412 7.04672 22.1415 6.55274 21.8945 C 6.05876 21.6475 5.85849 21.0467 6.10548 20.5527 L 8.88184 15 L 7.60548 12.4473 L 7.56446 12.3535 C 7.38472 11.8796 7.58962 11.337 8.05274 11.1055 Z" stroke-linecap="round" /></g><g transform="matrix(0.33 0 0 0.33 3.17 2)"  ><path style="stroke: none; stroke-width: 1; stroke-dasharray: none; stroke-linecap: butt; stroke-dashoffset: 0; stroke-linejoin: miter; stroke-miterlimit: 4; fill: rgb(3,105,161); fill-rule: nonzero; opacity: 1;"  transform=" translate(-9.5, -6)" d="M 6.55274 2.10547 C 7.01585 1.87392 7.57245 2.03575 7.84376 2.46387 L 7.89454 2.55274 L 10.6182 8.00001 L 12 8.00001 C 12.5523 8.00001 13 8.44772 13 9.00001 C 13 9.55229 12.5523 10 12 10 L 10 10 C 9.62124 10 9.27487 9.78606 9.10548 9.44727 L 6.10548 3.44727 L 6.06446 3.35352 C 5.88472 2.87959 6.08962 2.33704 6.55274 2.10547 Z" stroke-linecap="round" /></g></g></g></svg>